<svg xmlns="http://www.w3.org/2000/svg" width="312.109" height="231.226" viewBox="0 0 312.109 231.226"><circle cx="26.879" cy="26.879" r="26.879" transform="translate(213.618 0)" fill="#ff5252"/><rect width="220.575" height="173.088" transform="translate(45.939 45.406)" fill="#c7efdb"/><rect width="220.575" height="173.088" transform="translate(45.939 45.406)" opacity="0.1"/><rect width="312.109" height="150.377" transform="translate(0 69.149)" fill="#464353"/><rect width="182.379" height="203.714" transform="translate(65.037 27.512)" fill="#c7efdb"/><rect width="38.54" height="24.776" transform="translate(12.732 89.452)" fill="#c7efdb"/><rect width="38.54" height="24.776" transform="translate(12.732 131.433)" fill="#c7efdb"/><rect width="38.54" height="24.776" transform="translate(12.732 173.415)" fill="#c7efdb"/><rect width="38.54" height="24.776" transform="translate(88.437 47.47)" fill="#464353"/><rect width="38.54" height="24.776" transform="translate(88.437 89.452)" fill="#464353"/><rect width="38.54" height="24.776" transform="translate(88.437 131.433)" fill="#464353"/><rect width="38.54" height="24.776" transform="translate(224.017 72.246) rotate(180)" fill="#464353"/><rect width="38.54" height="24.776" transform="translate(224.017 114.228) rotate(180)" fill="#464353"/><rect width="38.54" height="24.776" transform="translate(224.017 156.209) rotate(180)" fill="#464353"/><rect width="38.54" height="24.776" transform="translate(258.084 89.452)" fill="#c7efdb"/><rect width="38.54" height="24.776" transform="translate(258.084 131.433)" fill="#c7efdb"/><rect width="38.54" height="24.776" transform="translate(258.084 173.415)" fill="#c7efdb"/><rect width="33.723" height="66.069" transform="translate(139.365 165.156)" fill="#464353"/><rect width="38.54" height="7.57" transform="translate(88.437 47.47)" opacity="0.1"/><rect width="38.54" height="7.57" transform="translate(185.476 47.47)" opacity="0.1"/><rect width="38.54" height="7.57" transform="translate(185.476 89.452)" opacity="0.1"/><rect width="38.54" height="7.57" transform="translate(185.476 131.433)" opacity="0.1"/><rect width="38.54" height="7.57" transform="translate(88.437 89.452)" opacity="0.1"/><rect width="38.54" height="7.57" transform="translate(88.437 131.433)" opacity="0.1"/><rect width="38.54" height="5.85" transform="translate(12.732 89.452)" opacity="0.1"/><rect width="38.54" height="5.85" transform="translate(12.732 131.433)" opacity="0.1"/><rect width="38.54" height="5.85" transform="translate(12.732 173.415)" opacity="0.1"/><rect width="38.54" height="5.85" transform="translate(258.084 89.452)" opacity="0.1"/><rect width="38.54" height="5.85" transform="translate(258.084 131.433)" opacity="0.1"/><rect width="38.54" height="5.85" transform="translate(258.084 173.415)" opacity="0.1"/></svg>