<svg xmlns="http://www.w3.org/2000/svg" width="134.125" height="48.629" viewBox="0 0 134.125 48.629"><g transform="translate(-507.943 -238.114)"><path d="M802.665,422.205a28.625,28.625,0,0,1,28.586-27.129c.87,0,1.729.045,2.579.121a38.032,38.032,0,0,1,65.743-.031c.717-.054,1.439-.09,2.17-.09A28.625,28.625,0,0,1,930.329,422.2" transform="translate(-294.722 -135.462)" fill="#f2f2f2"/><path d="M810.778,419.209a28.625,28.625,0,0,1,28.586-27.129c.87,0,1.729.045,2.579.121a38.032,38.032,0,0,1,65.743-.031c.717-.054,1.439-.09,2.17-.09a28.625,28.625,0,0,1,28.585,27.129" transform="translate(-296.873 -134.668)" fill="none" stroke="#3f3d56" stroke-miterlimit="10" stroke-width="1"/></g></svg>