<svg xmlns="http://www.w3.org/2000/svg" width="718.896" height="486.114" viewBox="0 0 718.896 486.114"><path d="M194.052,376.1c0-59.472,48.211-200.6,107.683-200.6S409.418,316.624,409.418,376.1a107.683,107.683,0,0,1-215.367,0Z" transform="translate(-194.052 -175.5)" fill="#c7efdb"/><path d="M315.551,649.661a.885.885,0,0,1-.885-.885V277.519a.885.885,0,1,1,1.771,0V648.776A.885.885,0,0,1,315.551,649.661Z" transform="translate(-207.868 -187.085)" fill="#3f3d56"/><path d="M310.037,352.837a.883.883,0,0,1-.626-.259L266.79,309.957a.885.885,0,0,1,1.252-1.252l42.621,42.621a.885.885,0,0,1-.626,1.511Z" transform="translate(-202.354 -190.728)" fill="#3f3d56"/><path d="M315.551,432.447a.885.885,0,0,1-.626-1.511L386.3,359.559a.885.885,0,1,1,1.252,1.252l-71.376,71.377A.883.883,0,0,1,315.551,432.447Z" transform="translate(-207.868 -196.554)" fill="#3f3d56"/><path d="M242.2,717c.154.119.316.226.471.342H374.688c2.587-10.481,3.5-20.973-.364-30.084-5.505-12.983-21.8-21.088-34.751-15.512a19.779,19.779,0,0,0-7.769,6.147c-5.062-9.061-14.142-15.893-24.623-15.885-13.131.009-24.049,10.748-27.611,23.152-5.737-9.684-17.07-16.452-28.146-13.541C232.9,676.487,227.045,705.286,242.2,717Z" transform="translate(-198.577 -231.228)" fill="#f2f2f2"/><path d="M831.052,474.144c0-42.735,34.667-144.144,77.431-144.144s77.431,101.409,77.431,144.144a77.431,77.431,0,1,1-154.863,0Z" transform="translate(-267.018 -193.197)" fill="#e6e6e6"/><path d="M918.418,670.722a.636.636,0,0,1-.637-.636V403.309a.637.637,0,0,1,1.273,0V670.086a.636.636,0,0,1-.636.636Z" transform="translate(-276.953 -201.522)" fill="#3f3d56"/><path d="M914.453,457.431a.635.635,0,0,1-.45-.186l-30.647-30.626a.636.636,0,1,1,.9-.9L914.9,456.344a.636.636,0,0,1-.45,1.086Z" transform="translate(-272.988 -204.14)" fill="#3f3d56"/><path d="M918.418,514.637a.636.636,0,0,1-.45-1.086l51.324-51.29a.636.636,0,1,1,.9.9l-51.324,51.29a.635.635,0,0,1-.45.186Z" transform="translate(-276.953 -208.326)" fill="#3f3d56"/><path d="M865.674,719.11c.111.085.227.162.339.246h94.927c1.86-7.531,2.517-15.07-.262-21.618-3.958-9.329-15.674-15.153-24.988-11.147a14.221,14.221,0,0,0-5.586,4.417c-3.64-6.511-10.169-11.42-17.706-11.415-9.442.007-17.293,7.723-19.854,16.636-4.126-6.959-12.274-11.822-20.239-9.73C858.984,690,854.776,710.693,865.674,719.11Z" transform="translate(-270.272 -233.242)" fill="#f2f2f2"/><path d="M603.886,520.929c6.533,12.926-.293,31.138-14.562,35.227-4.013,1.15-8.561,1.03-12.1-1.394a10.567,10.567,0,0,1-4.746-9.143c.534-6.932,9.362-9.509,14.982-7.271,7.61,3.03,11.019,11.958,12.083,19.453,1.3,9.164-.486,18.632-4.067,27.1-7.168,16.95-21.357,30.155-35.422,41.491A224.107,224.107,0,0,1,512.971,655.5q-3.172,1.456-6.388,2.812a1.338,1.338,0,0,0-.476,1.817,1.362,1.362,0,0,0,1.817.477,227.064,227.064,0,0,0,51.738-30.53c15.311-12.016,30.761-26.2,38.4-44.512,3.807-9.13,5.521-19.213,3.964-29.039-1.31-8.272-5.425-17.425-13.724-20.693-6.548-2.578-15.674.139-18,7.251-1.279,3.91.045,8.139,2.577,11.231a14.755,14.755,0,0,0,11.246,5.2c8.539.177,16.353-5.3,20.641-12.413a29.5,29.5,0,0,0,3.42-22.266,26.157,26.157,0,0,0-2-5.253c-.771-1.526-3.064-.183-2.294,1.341Z" transform="translate(-229.776 -214.837)" fill="#ccc"/><path d="M585.119,522.543l-9.546,3.369L558.035,490.7l14.088-4.973Z" transform="translate(-63.921 -55.638)" fill="#a0616a"/><path d="M12.292,0H31.814V12.292H0A12.292,12.292,0,0,1,12.292,0Z" transform="translate(492.278 474.044) rotate(-19.441)" fill="#2f2e41"/><path d="M469.63,532.782H459.507l-4.814-39.045h14.94Z" transform="translate(-52.084 -56.556)" fill="#a0616a"/><path d="M450.373,534.565H469.9v12.292H438.082A12.292,12.292,0,0,1,450.373,534.565Z" transform="translate(-50.181 -61.233)" fill="#2f2e41"/><path d="M662.107,673.05a4.032,4.032,0,0,1-.991-.125l-14.929-3.785a3.978,3.978,0,0,1-2.994-4.167L657.46,478.806l.441.034-.441-.034A15.984,15.984,0,0,1,672.533,464.1l45.118-2.342,7.586,116.831,45,81.036a3.984,3.984,0,0,1-2.138,5.684l-20.726,7.437a3.962,3.962,0,0,1-4.963-2.08L689.493,556.076a1.328,1.328,0,0,0-2.512.315l-20.968,113.4a3.991,3.991,0,0,1-3.907,3.263Z" transform="translate(-245.498 -208.29)" fill="#2f2e41"/><path d="M608.554,511.85a8.3,8.3,0,0,1,12.2-3.645l15.721-10.623,8.785,7.979-22.412,14.689a8.348,8.348,0,0,1-14.293-8.4Z" transform="translate(-241.451 -212.393)" fill="#a0616a"/><circle cx="21.748" cy="21.748" r="21.748" transform="translate(430.822 139.048)" fill="#a0616a"/><path d="M670.683,461.637a8.258,8.258,0,0,1-8.1-9.776l3.8-20.29c-4.052-14.712,16.587-27.683,17.469-28.229l12.876-4.938.158.413-.158-.413a15.693,15.693,0,0,1,21.295,15.2l-1.561,44.619-45.142,3.385C671.1,461.629,670.893,461.637,670.683,461.637Z" transform="translate(-247.704 -200.914)" fill="#c7efdb"/><path d="M689.142,599.7a218.615,218.615,0,0,1-29.619-2.368l-.415-.065.043-.418c.781-7.621,19.168-186.793,23.147-199.423,1.028-3.264,4.226-5.829,9.505-7.624,16.593-5.64,35.229,2.724,42.428,19.042a45.313,45.313,0,0,1,3.819,19.122L734.7,585.694l-.353.067c-.092.018-9.361,1.829-21.6,9.737C707.773,598.715,698.538,599.7,689.142,599.7Z" transform="translate(-247.322 -199.846)" fill="#3f3d56"/><path d="M715.527,433.03c11.5,19.53,5.7,29.93-5.183,49.86-6.036,11.055-24.661,24.726-33.384,15.938s-1.829-20.736,1.959-32.87,11.937-22.126,20.443-31.152C705.427,428.371,717.949,433.654,715.527,433.03Z" transform="translate(-248.883 -204.833)" opacity="0.051"/><path d="M635.711,506.877a3.989,3.989,0,0,1-3.849-2.956L629.1,493.6a4,4,0,0,1,1.531-4.27l44.7-31.984,6.024-34.217a16.911,16.911,0,1,1,32.528,8.767l-12.732,34.642A28.031,28.031,0,0,1,687.132,482.1l-49.666,24.373a3.978,3.978,0,0,1-1.755.409Z" transform="translate(-243.87 -202.263)" fill="#3f3d56"/><path d="M692.406,344.73a9.737,9.737,0,0,1-18.268-6.31,21.725,21.725,0,0,1,40.3-5.92c6.882-4.813,17.686-2.382,21.844,4.915s.74,17.83-6.909,21.3c-3.807,1.725-3.523,8.386.416,9.782a6.721,6.721,0,0,1-.069,12.693c-4.956,1.7-10.008,3.41-15.245,3.543s-10.785-1.562-14.09-5.626-3.535-10.735.364-14.234a12.483,12.483,0,0,0,2.531-14.833C700.679,345.292,693.718,342.052,692.406,344.73Z" transform="translate(-249.019 -192.191)" fill="#2f2e41"/><path d="M535.428,716.271a5.753,5.753,0,0,1-4.956-8.663h0l8.055-13.753,9.933,5.818L540.4,713.425A5.759,5.759,0,0,1,535.428,716.271Z" transform="translate(-232.497 -234.876)" fill="#c7efdb"/><circle cx="7.084" cy="7.084" r="7.084" transform="translate(327.457 435.796)" fill="#c7efdb"/><path d="M500.23,716.271a5.753,5.753,0,0,1-4.956-8.663l8.055-13.753,9.932,5.818-8.055,13.753A5.76,5.76,0,0,1,500.23,716.271Z" transform="translate(-228.465 -234.876)" fill="#c7efdb"/><path d="M546.363,704.894H510.671a18.342,18.342,0,0,1-18.321-18.321v-5.422a6.37,6.37,0,0,1,6.362-6.362h47.65a15.053,15.053,0,1,1,0,30.105Z" transform="translate(-228.221 -232.692)" fill="#3f3d56"/><path d="M550.7,721.654a5.762,5.762,0,0,1-5.755-5.755V699.96h11.511V715.9A5.762,5.762,0,0,1,550.7,721.654Z" transform="translate(-234.245 -235.575)" fill="#3f3d56"/><path d="M512.973,721.654a5.762,5.762,0,0,1-5.755-5.755V699.96h11.511V715.9a5.762,5.762,0,0,1-5.755,5.755Z" transform="translate(-229.924 -235.575)" fill="#3f3d56"/><path d="M502.885,647.1H488.718V628.5a7.084,7.084,0,0,1,14.167,0Z" transform="translate(-227.805 -226.579)" fill="#c7efdb"/><path d="M499.757,675.82H476.326a5.114,5.114,0,0,1-5.108-5.108V658.439a16.285,16.285,0,0,1,16.266-16.266h3.738a13.658,13.658,0,0,1,13.643,13.643v14.9a5.114,5.114,0,0,1-5.108,5.108Z" transform="translate(-225.8 -228.956)" fill="#3f3d56"/><path d="M503.458,647.1h-9.74V626.291a4.87,4.87,0,0,1,9.74,0Z" transform="translate(-228.377 -226.579)" fill="#3f3d56"/><path d="M497.738,678.167H472.06a7.084,7.084,0,0,1,0-14.167h25.678Z" transform="translate(-225.085 -231.456)" fill="#3f3d56"/><ellipse cx="1.66" cy="2.988" rx="1.66" ry="2.988" transform="translate(238.894 436.512)" fill="#c7efdb"/><path d="M780.692,724.271H443.334a.885.885,0,1,1,0-1.771H780.692a.885.885,0,0,1,0,1.771Z" transform="translate(-222.505 -238.157)" fill="#3f3d56"/></svg>