<svg xmlns="http://www.w3.org/2000/svg" width="151.756" height="157.377" viewBox="0 0 151.756 157.377"><g transform="translate(-265.446)"><path d="M788.835,236.779a12.733,12.733,0,0,0-10.976,7.674c-2.745,6.634.789,14.427,6.094,19.265s12.119,7.6,18.311,11.237c8.316,4.882,15.789,11.659,19.95,20.358s4.6,19.475-.287,27.786c-4.54,7.714-12.794,12.33-20.667,16.588" transform="translate(-485.003 -182.749)" fill="none" stroke="#3f3d56" stroke-miterlimit="10" stroke-width="1"/><path d="M835.9,150.885a12.733,12.733,0,0,0-10.976,7.674c-2.745,6.634.789,14.427,6.094,19.265s12.119,7.6,18.311,11.237c8.316,4.882,15.789,11.659,19.95,20.358s4.6,19.475-.287,27.786c-4.54,7.714-12.794,12.33-20.667,16.588" transform="translate(-509.906 -137.301)" fill="none" stroke="#3f3d56" stroke-miterlimit="10" stroke-width="1"/><path d="M944.3,168.122a12.733,12.733,0,0,0-13.377-.651c-6.231,3.566-8.208,11.891-6.975,18.964s4.929,13.431,7.6,20.095c3.587,8.951,5.347,18.884,3.312,28.31s-8.282,18.217-17.237,21.795c-8.312,3.32-17.665,1.917-26.5.465" transform="translate(-545.439 -145.235)" fill="none" stroke="#3f3d56" stroke-miterlimit="10" stroke-width="1"/><ellipse cx="13.297" cy="6.459" rx="13.297" ry="6.459" transform="translate(321.351 93.581)" fill="#57b894"/><ellipse cx="13.297" cy="6.459" rx="13.297" ry="6.459" transform="translate(319.689 92.473)" fill="none" stroke="#3f3d56" stroke-miterlimit="10" stroke-width="1"/><ellipse cx="13.297" cy="6.459" rx="13.297" ry="6.459" transform="translate(350.162 88.041)" fill="#57b894"/><ellipse cx="13.297" cy="6.459" rx="13.297" ry="6.459" transform="translate(348.499 86.932)" fill="none" stroke="#3f3d56" stroke-miterlimit="10" stroke-width="1"/><ellipse cx="13.297" cy="6.459" rx="13.297" ry="6.459" transform="translate(354.594 112.419)" fill="#57b894"/><ellipse cx="13.297" cy="6.459" rx="13.297" ry="6.459" transform="translate(352.932 111.311)" fill="none" stroke="#3f3d56" stroke-miterlimit="10" stroke-width="1"/><ellipse cx="13.297" cy="6.459" rx="13.297" ry="6.459" transform="translate(351.824 51.473)" fill="#57b894"/><ellipse cx="13.297" cy="6.459" rx="13.297" ry="6.459" transform="translate(350.162 50.365)" fill="none" stroke="#3f3d56" stroke-miterlimit="10" stroke-width="1"/><ellipse cx="13.297" cy="6.459" rx="13.297" ry="6.459" transform="translate(318.581 47.595)" fill="#57b894"/><ellipse cx="13.297" cy="6.459" rx="13.297" ry="6.459" transform="translate(316.918 46.486)" fill="none" stroke="#3f3d56" stroke-miterlimit="10" stroke-width="1"/><ellipse cx="13.297" cy="6.459" rx="13.297" ry="6.459" transform="translate(333.54 33.743)" fill="#57b894"/><ellipse cx="13.297" cy="6.459" rx="13.297" ry="6.459" transform="translate(331.878 32.635)" fill="none" stroke="#3f3d56" stroke-miterlimit="10" stroke-width="1"/><ellipse cx="13.297" cy="6.459" rx="13.297" ry="6.459" transform="translate(366.229 36.514)" fill="#57b894"/><ellipse cx="13.297" cy="6.459" rx="13.297" ry="6.459" transform="translate(364.567 35.405)" fill="none" stroke="#3f3d56" stroke-miterlimit="10" stroke-width="1"/><ellipse cx="13.297" cy="6.459" rx="13.297" ry="6.459" transform="translate(390.607 54.797)" fill="#57b894"/><ellipse cx="13.297" cy="6.459" rx="13.297" ry="6.459" transform="translate(388.945 53.689)" fill="none" stroke="#3f3d56" stroke-miterlimit="10" stroke-width="1"/><ellipse cx="13.297" cy="6.459" rx="13.297" ry="6.459" transform="translate(304.729 22.662)" fill="#57b894"/><ellipse cx="13.297" cy="6.459" rx="13.297" ry="6.459" transform="translate(303.067 21.554)" fill="none" stroke="#3f3d56" stroke-miterlimit="10" stroke-width="1"/><ellipse cx="13.297" cy="6.459" rx="13.297" ry="6.459" transform="translate(313.04 1.608)" fill="#57b894"/><ellipse cx="13.297" cy="6.459" rx="13.297" ry="6.459" transform="translate(311.378 0.5)" fill="none" stroke="#3f3d56" stroke-miterlimit="10" stroke-width="1"/><ellipse cx="13.297" cy="6.459" rx="13.297" ry="6.459" transform="translate(390.053 17.122)" fill="#57b894"/><ellipse cx="13.297" cy="6.459" rx="13.297" ry="6.459" transform="translate(388.391 16.014)" fill="none" stroke="#3f3d56" stroke-miterlimit="10" stroke-width="1"/><ellipse cx="13.297" cy="6.459" rx="13.297" ry="6.459" transform="translate(267.608 68.095)" fill="#57b894"/><ellipse cx="13.297" cy="6.459" rx="13.297" ry="6.459" transform="translate(265.946 66.986)" fill="none" stroke="#3f3d56" stroke-miterlimit="10" stroke-width="1"/><ellipse cx="13.297" cy="6.459" rx="13.297" ry="6.459" transform="translate(313.594 64.77)" fill="#57b894"/><ellipse cx="13.297" cy="6.459" rx="13.297" ry="6.459" transform="translate(311.932 63.662)" fill="none" stroke="#3f3d56" stroke-miterlimit="10" stroke-width="1"/><ellipse cx="13.297" cy="6.459" rx="13.297" ry="6.459" transform="translate(373.986 69.757)" fill="#57b894"/><ellipse cx="13.297" cy="6.459" rx="13.297" ry="6.459" transform="translate(372.324 68.648)" fill="none" stroke="#3f3d56" stroke-miterlimit="10" stroke-width="1"/><ellipse cx="13.297" cy="6.459" rx="13.297" ry="6.459" transform="translate(341.851 71.973)" fill="#57b894"/><ellipse cx="13.297" cy="6.459" rx="13.297" ry="6.459" transform="translate(340.189 70.865)" fill="none" stroke="#3f3d56" stroke-miterlimit="10" stroke-width="1"/><ellipse cx="13.297" cy="6.459" rx="13.297" ry="6.459" transform="translate(344.067 16.567)" fill="#57b894"/><ellipse cx="13.297" cy="6.459" rx="13.297" ry="6.459" transform="translate(342.405 15.459)" fill="none" stroke="#3f3d56" stroke-miterlimit="10" stroke-width="1"/><ellipse cx="13.297" cy="6.459" rx="13.297" ry="6.459" transform="translate(287 50.919)" fill="#57b894"/><ellipse cx="13.297" cy="6.459" rx="13.297" ry="6.459" transform="translate(285.337 49.811)" fill="none" stroke="#3f3d56" stroke-miterlimit="10" stroke-width="1"/><ellipse cx="13.297" cy="6.459" rx="13.297" ry="6.459" transform="translate(294.756 75.851)" fill="#57b894"/><ellipse cx="13.297" cy="6.459" rx="13.297" ry="6.459" transform="translate(293.094 74.743)" fill="none" stroke="#3f3d56" stroke-miterlimit="10" stroke-width="1"/><g transform="translate(298.822 117.384)" opacity="0.3"><ellipse cx="6.966" cy="3.017" rx="6.966" ry="3.017" transform="translate(0.877 12.162) rotate(-60.799)" fill="#57b894"/><ellipse cx="6.966" cy="3.017" rx="6.966" ry="3.017" transform="translate(0 12.67) rotate(-60.799)" fill="none" stroke="#3f3d56" stroke-miterlimit="10" stroke-width="1"/></g><g transform="translate(364.974 130.004)" opacity="0.3"><ellipse cx="3.017" cy="6.966" rx="3.017" ry="6.966" transform="matrix(0.667, -0.745, 0.745, 0.667, 0.304, 5.462)" fill="#57b894"/><ellipse cx="3.017" cy="6.966" rx="3.017" ry="6.966" transform="matrix(0.667, -0.745, 0.745, 0.667, 0, 4.496)" fill="none" stroke="#3f3d56" stroke-miterlimit="10" stroke-width="1"/></g><g transform="translate(302.921 95.099)" opacity="0.3"><ellipse cx="3.017" cy="6.966" rx="3.017" ry="6.966" transform="matrix(0.667, -0.745, 0.745, 0.667, 0.304, 5.462)" fill="#57b894"/><ellipse cx="3.017" cy="6.966" rx="3.017" ry="6.966" transform="matrix(0.667, -0.745, 0.745, 0.667, 0, 4.496)" fill="none" stroke="#3f3d56" stroke-miterlimit="10" stroke-width="1"/></g></g></svg>