<svg xmlns="http://www.w3.org/2000/svg" width="484.129" height="529.102" viewBox="0 0 484.129 529.102"><g transform="translate(-1040.555 -393.953)"><path d="M972.029,766.422a1.264,1.264,0,0,1-1.264-1.264V742.4a1.264,1.264,0,1,1,2.528,0v22.753a1.264,1.264,0,0,1-1.264,1.264Z" transform="translate(465.979 155.054)" fill="#e6e6e6"/><ellipse cx="6.32" cy="6.32" rx="6.32" ry="6.32" transform="translate(1431.688 878.498)" fill="#e6e6e6"/><path d="M970.765,755.323s7.9-14.221,18.961-9.48" transform="translate(465.979 156.04)" fill="#e6e6e6"/><path d="M702.029,766.422a1.264,1.264,0,0,1-1.264-1.264V742.4a1.264,1.264,0,1,1,2.528,0v22.753a1.264,1.264,0,0,1-1.264,1.264Z" transform="translate(394.687 155.054)" fill="#e6e6e6"/><ellipse cx="6.32" cy="6.32" rx="6.32" ry="6.32" transform="translate(1090.396 878.498)" fill="#e6e6e6"/><path d="M700.765,755.323s7.9-14.221,18.961-9.48" transform="translate(394.687 156.04)" fill="#e6e6e6"/><path d="M751.029,766.422a1.264,1.264,0,0,1-1.264-1.264V742.4a1.264,1.264,0,1,1,2.528,0v22.753a1.264,1.264,0,0,1-1.264,1.264Z" transform="translate(407.625 155.054)" fill="#e6e6e6"/><ellipse cx="6.32" cy="6.32" rx="6.32" ry="6.32" transform="translate(1152.334 878.498)" fill="#e6e6e6"/><path d="M749.765,755.323s7.9-14.221,18.961-9.48" transform="translate(407.625 156.04)" fill="#e6e6e6"/><path d="M782.266,702.331a5.185,5.185,0,0,1,.29-.43,8.791,8.791,0,0,1,.961-1.706l31.8-44.494,26.2-36.645h44.7l-3.16,4.411-5.625,7.875L860,655.713l-37.353,52.243L857.274,777.5c1.416,2.831-1,6.9-5.36,9.076l-16.7,8.317a12.274,12.274,0,0,1-5.347,1.34c-2.351,0-4.31-.872-5.132-2.528L781.7,707.248A5.009,5.009,0,0,1,782.266,702.331Z" transform="translate(397.951 126.817)" fill="#c7efdb"/><path d="M856.833,789.064V631.046a2.5,2.5,0,0,1,.028-.439,9.408,9.408,0,0,1,6.021-8.389,9.243,9.243,0,0,1,3.431-.652h18.658a9.491,9.491,0,0,1,9.48,9.48V789.064a9.491,9.491,0,0,1-9.48,9.48H866.314A9.491,9.491,0,0,1,856.833,789.064Z" transform="translate(435.896 123.48)" fill="#c7efdb"/><path d="M863.044,535.541,781.251,667.786a9.5,9.5,0,0,1-13.05,3.073l-15.87-9.811A9.5,9.5,0,0,1,749.261,648l81.795-132.248a8.985,8.985,0,0,1,1.469-1.81,9.444,9.444,0,0,1,11.581-1.259l15.87,9.811a9.452,9.452,0,0,1,4.242,5.892,9.817,9.817,0,0,1,.218,2.93A9.407,9.407,0,0,1,863.044,535.541Z" transform="translate(407.119 94.354)" fill="#c7efdb"/><path d="M858.994,533.6l-31.678,64.926a9.491,9.491,0,0,1-13,3.229L784.02,584.021a9.469,9.469,0,0,1-3.154-13.1L822.26,513.29a2.762,2.762,0,0,1,.5-.609c1.508-1.433,4.9-1.942,7.621-2.349l.424-.065c.731-.112,1.361-.209,1.806-.323l.17-.037c.181-.04.368-.081.538-.1a9.44,9.44,0,0,1,6.439,1.236l15.971,9.64a9.586,9.586,0,0,1,4.563,8.885A9.1,9.1,0,0,1,858.994,533.6Z" transform="translate(415.462 93.936)" fill="#2f2e41"/><ellipse cx="67.651" cy="67.651" rx="67.651" ry="67.651" transform="translate(1217.58 416.582)" fill="#c7efdb"/><path d="M857.67,453.059l.07-2.528c-4.7-.131-8.849-.426-11.965-2.7a7.772,7.772,0,0,1-3.01-5.724,4.442,4.442,0,0,1,1.457-3.659c2.068-1.747,5.4-1.181,7.822-.069l2.092.959-4.011-29.314-2.5.343,3.412,24.935c-3.3-.969-6.35-.552-8.442,1.215a6.916,6.916,0,0,0-2.352,5.678,10.28,10.28,0,0,0,4.045,7.677C848.287,452.8,853.49,452.942,857.67,453.059Z" transform="translate(431.51 67.624)" fill="#2f2e41"/><rect width="13.616" height="2.528" transform="translate(1253.128 480.139)" fill="#2f2e41"/><rect width="13.616" height="2.528" transform="translate(1296.105 480.139)" fill="#2f2e41"/><path d="M782.775,727.54c-4.468-.258-7.952-7.6-7.952-16.815L801.368,558.19a68.716,68.716,0,0,1,2.156-17.1h0c.521-2.008,1.14-4.005,1.837-5.931a68.089,68.089,0,0,1,21.52-30.185c1.11-.906,2.271-1.783,3.448-2.606a67.806,67.806,0,0,1,18.721-9.272,11.847,11.847,0,0,1-.281-2.536,12.022,12.022,0,0,1,12.009-12.008h17.7a12.022,12.022,0,0,1,12.008,12.008,11.84,11.84,0,0,1-.28,2.531,68.3,68.3,0,0,1,47.682,65.1l25.281,152.535c0,9.447-3.609,16.847-8.216,16.847H783.04A.939.939,0,0,1,782.775,727.54Z" transform="translate(414.242 85.719)" fill="#2f2e41"/><path d="M864.773,692.582a9.493,9.493,0,0,1-1.243-4.52L860.87,532.593a9.467,9.467,0,0,1,2.66-6.752l0,0a9.476,9.476,0,0,1,6.653-2.894l18.657-.313a9.474,9.474,0,0,1,9.58,8.369,7.5,7.5,0,0,1,.061.938l2.669,155.48a9.5,9.5,0,0,1-9.325,9.638l-18.651.321a9.517,9.517,0,0,1-8.4-4.8Z" transform="translate(436.961 97.357)" fill="#c7efdb"/><path d="M858.008,590.952a9.491,9.491,0,0,1-1.219-4.055l.8-72.029a9.492,9.492,0,0,1,8.711-10.193l18.6-1.457a9.54,9.54,0,0,1,6.349,1.805c.191.144.381.32.567.446a17.717,17.717,0,0,0,1.451,1.087l.4.286c2.673,1.893,5.7,4.038,5.851,6.128l11.189,70.275a9.333,9.333,0,0,1-1.385,5.721,8.616,8.616,0,0,1-.856,1.188,8.2,8.2,0,0,1-.912.916,9.388,9.388,0,0,1-5.572,2.382l-35,2.258a9.49,9.49,0,0,1-8.97-4.758Z" transform="translate(435.884 92.224)" fill="#2f2e41"/><path d="M895.18,407.98a22.655,22.655,0,0,0-36.464-9.867c-6.291,5.078-11.106,12.727-19.322,14.886-7.037,1.849-14.735-.458-20.378-4.838-13.705-10.637-11.423-30.849-1.237-43.111,11.824-14.235,31.936-18.353,49.584-17.182,18.424,1.222,36.172,8.421,51.036,19.227,15.016,10.916,26.833,25.775,35.355,42.183A151.375,151.375,0,0,1,964.293,435.4a126.464,126.464,0,0,1,5.7,29.149c.54,9.646-.79,19.567-5.948,27.9-4.259,6.884-10.93,12.492-19.026,14.022a21.766,21.766,0,0,1-20.034-7.435,15.887,15.887,0,0,1,.428-21.2,16.214,16.214,0,0,1,23.141-.42c2.879,2.981,4.6,7.418,3.3,11.5-1.1,3.438-4.538,6.606-8.335,6.244-3.584-.341-6.839-4.045-5.98-7.685.56-2.373-3.1-3.386-3.657-1.008a10.291,10.291,0,0,0,5.008,11.029,10.6,10.6,0,0,0,11.983-.954c7.992-6.143,5.866-17.677-1.422-23.409a20.107,20.107,0,0,0-26.234,1.51,19.709,19.709,0,0,0-3.131,24.028,25.673,25.673,0,0,0,20.748,11.888c8.9.293,17.325-4.679,22.93-11.317,14.183-16.8,10.827-40.468,5.549-60.09A147.4,147.4,0,0,0,942.316,384.8a112.054,112.054,0,0,0-48.258-35.009c-18.442-6.772-40.017-8.542-58.624-1.366-9.026,3.481-17.23,9.119-22.77,17.149a38.51,38.51,0,0,0-6.888,25.964,28.972,28.972,0,0,0,12.79,20.944c6.611,4.414,15.308,6.347,23,3.834,9.123-2.983,13.907-11.627,21.536-16.772a19.042,19.042,0,0,1,21.922.735,17.59,17.59,0,0,1,6.5,8.71c.758,2.308,4.421,1.32,3.657-1.008Z" transform="translate(422.367 50.141)" fill="#2f2e41"/><path d="M908.379,580.42c6.762.045,13.935.236,20.156,3.208,4.957,2.368,9.544,6.517,10.55,12.148.9,5.056-1.359,10.982-6.564,12.624-5.882,1.855-11.833-1.574-15.037-6.429-4.321-6.547-4.614-14.608-4.885-22.2-.087-2.433-3.879-2.445-3.792,0,.286,8.016.691,16.461,5.009,23.489,3.76,6.12,10.468,10.369,17.831,9.216,6.746-1.056,10.986-6.974,11.385-13.542.415-6.831-3.626-12.8-9.071-16.558-7.448-5.142-16.826-5.693-25.584-5.752a1.9,1.9,0,0,0,0,3.792Z" transform="translate(449.023 111.615)" fill="#2f2e41"/><path d="M910.709,588.571c6.458-4.062,13-8.567,17.076-15.187,3.705-6.018,5.142-13.773,1.769-20.256-2.984-5.733-9.4-9.579-15.893-8-6.9,1.682-11.293,8.169-12.136,14.927-1.157,9.279,3.464,17.769,7.907,25.542a1.9,1.9,0,0,0,3.274-1.914c-3.369-5.9-7.008-12.118-7.51-19.048-.434-5.989,1.675-12.313,7.371-15.106,4.974-2.438,10.4.065,13.164,4.544,3.212,5.2,2.092,11.651-.824,16.723-3.681,6.4-10,10.65-16.112,14.495-2.061,1.3-.16,4.579,1.914,3.274Z" transform="translate(447.649 103.204)" fill="#2f2e41"/><path d="M1140.2,762.669H658.6a1.264,1.264,0,1,1,0-2.528h481.6a1.264,1.264,0,0,1,0,2.528Z" transform="translate(383.22 160.07)" fill="#ccc"/></g></svg>