<svg xmlns="http://www.w3.org/2000/svg" width="782.696" height="712.524" viewBox="0 0 782.696 712.524"><g transform="translate(-0.002 -0.002)"><path d="M767.736,850.386a28.468,28.468,0,0,1-8.323-1.248L179.892,672.265a28.6,28.6,0,0,1-18.982-35.658L306.957,158.088a28.6,28.6,0,0,1,35.659-18.982L922.137,315.979a28.6,28.6,0,0,1,18.982,35.659L795.072,830.157A28.618,28.618,0,0,1,767.736,850.386Z" transform="translate(-159.664 -137.859)" fill="#c7efdb"/><path d="M386.5,615.182a1.731,1.731,0,0,1-1.731-1.731V275.872a1.731,1.731,0,1,1,3.462,0v337.58A1.731,1.731,0,0,1,386.5,615.182Z" transform="translate(4.922 -38.215)" fill="#fff"/><path d="M386.5,463.425a1.731,1.731,0,0,1-.755-3.289l183.5-88.822a1.731,1.731,0,1,1,1.509,3.116L387.25,463.251a1.713,1.713,0,0,1-.753.173Z" transform="translate(4.922 32.709)" fill="#fff"/><path d="M386.5,402.388a1.731,1.731,0,0,1-.818-3.258l122.914-65.785a1.732,1.732,0,0,1,1.634,3.053L387.313,402.183a1.73,1.73,0,0,1-.815.2Z" transform="translate(4.922 4.924)" fill="#fff"/><path d="M386.5,334.461a1.731,1.731,0,0,1-.834-3.249l72.709-39.858a1.731,1.731,0,1,1,1.664,3.036l-72.709,39.858a1.727,1.727,0,0,1-.831.213Z" transform="translate(4.922 -25.786)" fill="#fff"/><path d="M464,463.425a1.714,1.714,0,0,1-.753-.173l-183.5-88.822a1.731,1.731,0,1,1,1.508-3.116l183.5,88.822a1.731,1.731,0,0,1-.755,3.289Z" transform="translate(-72.583 32.709)" fill="#fff"/><path d="M438.408,402.388a1.73,1.73,0,0,1-.816-.2L314.679,336.4a1.731,1.731,0,1,1,1.634-3.053L439.227,399.13a1.731,1.731,0,0,1-.818,3.258Z" transform="translate(-46.992 4.924)" fill="#fff"/><path d="M417.2,334.461a1.725,1.725,0,0,1-.831-.213L343.664,294.39a1.731,1.731,0,1,1,1.664-3.036l72.709,39.858a1.731,1.731,0,0,1-.834,3.249Z" transform="translate(-25.787 -25.786)" fill="#fff"/></g></svg>