<svg xmlns="http://www.w3.org/2000/svg" width="711.819" height="611.198" viewBox="0 0 711.819 611.198"><g transform="translate(-36.277 -47.521)"><path d="M829.107,741.311H223.195a29.463,29.463,0,0,1-29.43-29.43V211.571a29.463,29.463,0,0,1,29.43-29.43H829.107a29.463,29.463,0,0,1,29.43,29.43v500.31A29.463,29.463,0,0,1,829.107,741.311ZM223.195,185.6a26,26,0,0,0-25.968,25.968v500.31a26,26,0,0,0,25.968,25.968H829.107a26,26,0,0,0,25.968-25.968V211.571A26,26,0,0,0,829.107,185.6Z" transform="translate(-134.732 -105.483)" fill="#3f3d56"/><circle cx="25.332" cy="25.332" r="25.332" transform="translate(36.277 154.473)" fill="#ff6584"/><circle cx="25.332" cy="25.332" r="25.332" transform="translate(382.962 52.347)" fill="#e6e6e6"/><circle cx="25.332" cy="25.332" r="25.332" transform="translate(576.854 608.055)" fill="#e6e6e6"/><path d="M432.377,530.232h-58.86a11.266,11.266,0,0,1-11.253-11.253V480.893a11.266,11.266,0,0,1,11.253-11.253h58.86a11.266,11.266,0,0,1,11.253,11.253v38.086A11.266,11.266,0,0,1,432.377,530.232Z" transform="translate(-11.529 104.729)" fill="#3f3d56"/><path d="M625.083,204.718c0,.971-.028,1.928-.113,2.871a39.4,39.4,0,1,1-74.138-21.265,36.2,36.2,0,0,1,2.9-4.658,39.39,39.39,0,0,1,71.211,19.843C625.041,202.565,625.083,203.634,625.083,204.718Z" transform="translate(123.012 -117.789)" fill="#3f3d56"/></g></svg>