<svg xmlns="http://www.w3.org/2000/svg" xmlns:xlink="http://www.w3.org/1999/xlink" width="491.034" height="578.524" viewBox="0 0 491.034 578.524"><defs><linearGradient id="a" x1="-5.352" y1="1" x2="-5.352" gradientUnits="objectBoundingBox"><stop offset="0" stop-color="gray" stop-opacity="0.251"/><stop offset="0.535" stop-color="gray" stop-opacity="0.122"/><stop offset="1" stop-color="gray" stop-opacity="0.102"/></linearGradient></defs><g transform="translate(-0.001 -10.967)"><path d="M656.738,120.616V568.932a20.14,20.14,0,0,1-20.14,20.137H454.584a20.141,20.141,0,0,1-20.144-20.14V120.616a20.143,20.143,0,0,1,20.146-20.144H481.82v3.5a16.592,16.592,0,0,0,16.587,16.587H590.97a16.587,16.587,0,0,0,16.587-16.587v-3.5h29.037a20.143,20.143,0,0,1,20.144,20.146Z" transform="translate(-197.113 -62.351)" fill="#f2f2f2"/><path d="M774.231,223.308h1.8a1.684,1.684,0,0,1,1.684,1.684v59.115a1.684,1.684,0,0,1-1.684,1.684h-1.8" transform="translate(-287.185 -94.913)" fill="none" stroke="#3f3d56" stroke-miterlimit="10" stroke-width="1"/><path d="M428.258,177.271h-1.3a1.1,1.1,0,0,1-1.1-1.1v-18.36a1.1,1.1,0,0,1,1.1-1.1h1.3" transform="translate(-194.836 -77.257)" fill="none" stroke="#3f3d56" stroke-miterlimit="10" stroke-width="1"/><path d="M428,243.749h-1.113a1.245,1.245,0,0,1-1.245-1.245V209.191a1.245,1.245,0,0,1,1.245-1.245H428.2" transform="translate(-194.78 -90.841)" fill="none" stroke="#3f3d56" stroke-miterlimit="10" stroke-width="1"/><path d="M428.025,309.823h-1.1a1.185,1.185,0,0,1-1.185-1.185V274.895a1.185,1.185,0,0,1,1.185-1.185h1.1" transform="translate(-194.808 -108.273)" fill="none" stroke="#3f3d56" stroke-miterlimit="10" stroke-width="1"/><rect width="253.624" height="515.453" rx="35.694" transform="translate(233.423 11.467)" fill="none" stroke="#3f3d56" stroke-miterlimit="10" stroke-width="1"/><rect width="35.417" height="7.192" rx="2.542" transform="translate(334.299 29.065)" fill="#f2f2f2"/><circle cx="4.079" cy="4.079" r="4.079" transform="translate(375.072 28.582)" fill="#f2f2f2"/><rect width="35.417" height="7.192" rx="2.542" transform="translate(335.769 26.86)" fill="none" stroke="#3f3d56" stroke-miterlimit="10" stroke-width="1"/><circle cx="4.079" cy="4.079" r="4.079" transform="translate(376.541 26.377)" fill="none" stroke="#3f3d56" stroke-miterlimit="10" stroke-width="1"/><path d="M672.738,102.616V550.932a20.14,20.14,0,0,1-20.14,20.137H470.584a20.142,20.142,0,0,1-20.144-20.14V102.616a20.143,20.143,0,0,1,20.146-20.144H497.82v3.5a16.592,16.592,0,0,0,16.587,16.587H606.97A16.587,16.587,0,0,0,623.557,85.97v-3.5h29.037a20.143,20.143,0,0,1,20.144,20.146Z" transform="translate(-201.354 -57.58)" fill="none" stroke="#3f3d56" stroke-miterlimit="10" stroke-width="1"/><rect width="22.783" height="2.94" transform="translate(255.443 67.738)" fill="none" stroke="#3f3d56" stroke-miterlimit="10" stroke-width="1"/><rect width="22.783" height="2.94" transform="translate(255.443 72.882)" fill="none" stroke="#3f3d56" stroke-miterlimit="10" stroke-width="1"/><rect width="22.783" height="2.94" transform="translate(255.443 78.027)" fill="none" stroke="#3f3d56" stroke-miterlimit="10" stroke-width="1"/><path d="M734.951,147.441h-.675l-.253-.212a5.6,5.6,0,0,0,1.308-3.6,5.463,5.463,0,1,0-5.442,5.5,5.654,5.654,0,0,0,3.586-1.311l.253.212v.677l4.219,4.231,1.266-1.269Zm-5.062,0a3.786,3.786,0,1,1,2.692-1.113,3.807,3.807,0,0,1-2.692,1.113Z" transform="translate(-273.977 -72.354)" fill="none" stroke="#3f3d56" stroke-miterlimit="10" stroke-width="1"/><rect width="174.911" height="97.009" rx="12.547" transform="translate(256.545 142.707)" fill="#c7efdb"/><rect width="174.911" height="97.009" rx="12.547" transform="translate(266.099 124.334)" fill="none" stroke="#3f3d56" stroke-miterlimit="10" stroke-width="1"/><path d="M554.669,304.8,570.1,320.7a3.506,3.506,0,0,0,2.579,1.036h.046A3.506,3.506,0,0,0,575.3,320.7l15.427-15.9a3.4,3.4,0,0,0,0-4.973,3.808,3.808,0,0,0-5.2,0l-9.141,9.555V284.742a3.688,3.688,0,0,0-7.368,0v24.637l-9.141-9.555a3.808,3.808,0,0,0-5.2,0,3.4,3.4,0,0,0,0,4.973Z" transform="translate(-228.697 -110.264)" fill="#fff"/><rect width="174.911" height="97.009" rx="12.547" transform="translate(450.564 405.808) rotate(180)" fill="#c7efdb"/><rect width="174.911" height="97.009" rx="12.547" transform="translate(441.01 387.435) rotate(180)" fill="none" stroke="#3f3d56" stroke-miterlimit="10" stroke-width="1"/><path d="M616.726,530.8a3.4,3.4,0,0,0,0-4.973,3.808,3.808,0,0,0-5.2,0l-9.141,9.555V510.742a3.688,3.688,0,0,0-7.368,0v24.637l-9.141-9.555a3.808,3.808,0,0,0-5.2,0,3.4,3.4,0,0,0,0,4.973L596.1,546.7a3.507,3.507,0,0,0,2.579,1.036h.046A3.506,3.506,0,0,0,601.3,546.7l15.427-15.9Z" transform="translate(-235.589 -170.172)" fill="#fff"/><path d="M328.194,813.88h0s-.231.128-.626.329Q327.886,814.045,328.194,813.88Z" transform="translate(-168.783 -251.462)" fill="url(#a)"/><path d="M208.11,668.453c-5.514,15.852.92,41.584,3.908,53.07a160.8,160.8,0,0,1,3.9,25.274,53.235,53.235,0,0,0,20.218-.462l-4.825-23.661c3.446-14.015,0-51.465,0-51.465s7.809-14.474,8.5-36.529c.679-21.711,6.031-28.727,6.2-28.944l0,0c11.028,5.745,25.043,67.317,25.043,67.317-1.148,14.932.231,37.907,4.825,50.314a62.291,62.291,0,0,1,3.446,24.581c1.606,1.358,3.839,1.589,6.251,1.2,6.561-1.061,14.426-6.713,14.426-6.713s-2.526-67.086-4.366-69.612,0-17,0-17l-2.984-23.434s.458-39.748-3.908-46.64c-3.767-5.951-4.635-16.411-4.8-19.157-.024-.434-.034-.675-.034-.675l-6.648-7.964s-64.329-4.825-69.154,0c-1.185,1.185-1.916,3.877-2.35,7.268-1.327,10.421.193,27.421.193,27.421s1.93,12.637,4.687,25.5a55.86,55.86,0,0,1,0,23.434,70.084,70.084,0,0,1-2.529,26.88Z" transform="translate(-136.35 -183.051)" fill="#575a89"/><path d="M214.166,835.918c2.871,3.791,19.757,2.181,22.631,1,1.754-.724,1.623-4.025,1.148-7.426-.3-2.164-.741-4.37-.92-5.979-.458-4.135,1.378-12.523,1.378-12.523s-3.791,4.022-4.707,0a4.389,4.389,0,0,0-3.279-3.117,8.583,8.583,0,0,0-5.964.374c-2.983,1.294-7.963,4.054-7.07,7.788,1.265,5.276-3.215,12.761-3.215,12.761a5.741,5.741,0,0,0-.837,1.444,5.519,5.519,0,0,0,.837,5.679Z" transform="translate(-138.385 -249.773)" fill="#cbceda"/><path d="M214.166,843.848c2.871,3.791,19.757,2.181,22.631,1,1.754-.724,1.623-4.025,1.148-7.426-1.813.849-4.9,1.553-10.038,1.078a28.877,28.877,0,0,0-3.611-.111,84.491,84.491,0,0,1-10.968-.219,5.519,5.519,0,0,0,.837,5.679Z" transform="translate(-138.385 -257.702)" opacity="0.1"/><path d="M285.777,689.464c-1.148,14.932.231,37.907,4.825,50.314a62.29,62.29,0,0,1,3.446,24.581c1.606,1.358,3.839,1.589,6.251,1.2-1.385-9.691-7.292-51.44-11.076-84.423-4.308-37.563-24.468-63.409-24.468-63.409l-4.022,4.421C271.762,627.892,285.777,689.464,285.777,689.464Z" transform="translate(-151.067 -199.465)" opacity="0.1"/><path d="M224,376.842l2.805,13.785,13.736,23.089,16.945-7.237s23.031-24.123,8.557-27.569a12.736,12.736,0,0,1-4.807-2.14,9.94,9.94,0,0,1-3.749-8.309,25.457,25.457,0,0,1,2.354-9.883l-29.637-9.3a47.329,47.329,0,0,1,2.126,12.006c.228,8.071-2.771,12.048-5.231,13.943a8.9,8.9,0,0,1-3.1,1.62Z" transform="translate(-141.33 -128.304)" fill="#fbbebe"/><path d="M232.445,349.273a47.329,47.329,0,0,1,2.126,12.006,22.773,22.773,0,0,0,1.723,1.833,23.452,23.452,0,0,0,23.434,5.348,25.457,25.457,0,0,1,2.354-9.884Z" transform="translate(-143.568 -128.304)" opacity="0.1"/><path d="M227.821,335.663a23.347,23.347,0,1,0,6.838-16.6A23.433,23.433,0,0,0,227.821,335.663Z" transform="translate(-276.511 52.113) rotate(-30)" fill="#fbbebe"/><path d="M224,386.2l2.805,13.785,13.736,23.089,16.945-7.237s23.031-24.123,8.557-27.569a12.736,12.736,0,0,1-4.807-2.14c2.616,7.182-8.174,22.128-8.174,22.128-1.254,1.847-4.135.689-4.135.689-6.947-1.051-19.743-21.039-21.828-24.364a8.9,8.9,0,0,1-3.1,1.62Z" transform="translate(-141.33 -137.664)" opacity="0.1"/><path d="M205.956,565.217c4.077.927,26.649,5.927,35.206,4.676,9.418-1.378,27.731-2.3,27.731-2.3s11.662.631,15.249-1.01c-.024-.434-.034-.675-.034-.675l-6.648-7.964s-64.329-4.825-69.153,0C207.121,559.135,206.39,561.826,205.956,565.217Z" transform="translate(-136.546 -183.051)" opacity="0.1"/><path d="M242.967,409.026s12.121-16.793,7.554-23.33l20.475,8.4s12.324-1.494,16.771,16.9a31.819,31.819,0,0,1,.761,9.335c-.162,2.773.215,7.655,3.374,13.973,5.054,10.109,3.906,33.313-6.433,35.61s-14.014,1.149-14.014,1.149,1.378,42.043,7.352,46.867-15.23,3.676-15.23,3.676-18.312.919-27.732,2.3-35.84-4.825-35.84-4.825,3.906-17.69,5.284-28.948,4.595-35.228,4.595-35.228L186.45,423.155s-4.135-19.183,10.338-27.684,19.921-10.59,19.921-10.59,14.541,23.686,22.122,24.834C238.831,409.715,241.711,410.872,242.967,409.026Z" transform="translate(-131.231 -137.743)" fill="#3f3d56"/><path d="M297.39,426.8s.23,7.581-1.149,10.568-6.433,19.528-6.433,19.528H301.3s-6.2-6.663-5.744-9.879S297.39,426.8,297.39,426.8Z" transform="translate(-158.774 -148.855)" opacity="0.1"/><path d="M252.753,493.024s25.368-6.2,27.732-11.487,8.881-17.109,8.881-17.109l-2.678-3.607-12.339,9.688s-14.7,11.717-21.6,12.866S252.753,493.024,252.753,493.024Z" transform="translate(-148.139 -157.873)" fill="#fbbebe"/><path d="M252.753,493.024s25.368-6.2,27.732-11.487,8.881-17.109,8.881-17.109l-2.678-3.607-12.339,9.688s-14.7,11.717-21.6,12.866S252.753,493.024,252.753,493.024Z" transform="translate(-148.139 -157.873)" opacity="0.05"/><path d="M224,463.967v13.764h2.212a64.389,64.389,0,0,1,31.242,8.086l4.143,2.3,1.117.62,7.12-16.042-6.661-5.972s-.121.014-.341.031c-1.63.159-8.677.748-11.665-.262-2.836-.961-6.362-4.018-14.718-1.882-4.115,1.051-7.63,5.665-11.624,4.225Z" transform="translate(-141.33 -158.681)" fill="#fbbebe"/><path d="M192.18,424.288l-4.595,5.169v12.521s3.906,39.516,16.312,43.881,34.553-2.527,34.553-2.527,5.72-15.163,3.044-16.082-23.649-6.459-23.649-6.459.3-23.178-4.3-30.07c0,0,2.987-21.6-7.352-22.055S192.18,424.288,192.18,424.288Z" transform="translate(-131.676 -144.045)" opacity="0.1"/><path d="M191.242,424.288l-4.595,5.169v12.521s3.906,39.516,16.312,43.881,34.553-2.527,34.553-2.527,5.72-15.163,3.044-16.082-23.649-6.459-23.649-6.459.3-23.178-4.3-30.07c0,0,2.987-21.6-7.352-22.055S191.242,424.288,191.242,424.288Z" transform="translate(-131.428 -144.045)" fill="#3f3d56"/><path d="M234.248,345.621a9.172,9.172,0,0,1,.524-4.473,3.454,3.454,0,0,1,3.643-2.106c1.968.458,2.815,3.019,4.742,3.632,1.623.517,3.4-.634,4.173-2.154a10.931,10.931,0,0,0,.8-5q.005-2.879.014-5.758c0-2.088.066-4.346,1.354-5.986,1.6-2.044,5.366-2.936,7.878-2.853a6.663,6.663,0,0,1,4.5,1.813,5.813,5.813,0,0,0,4.735,1.685,4.088,4.088,0,0,0,3.3-2.853.556.556,0,0,0,.017-.072,23.432,23.432,0,1,0-34.854,31.1A63.32,63.32,0,0,1,234.248,345.621Z" transform="translate(-142.342 -118.483)" opacity="0.1"/><path d="M262.226,318.581a4.094,4.094,0,0,0,3.3-2.854c.193-.742.142-1.533.361-2.268.536-1.8,2.463-2.746,3.755-4.116,2.589-2.746,2.421-7.265.588-10.564-1.479-2.663-4.348-4.911-7.349-4.391-1.858.322-3.466,1.647-5.348,1.766-1.812.115-3.471-.9-5.123-1.654a19.313,19.313,0,0,0-12.7-1.127,7.316,7.316,0,0,0-3.494,1.762,29.763,29.763,0,0,0-1.864,2.62c-2.143,2.729-5.976,3.262-9.391,3.882s-7.279,1.967-8.4,5.251c-.744,2.177-.022,4.542.405,6.8a2,2,0,0,1-.091,1.4c-.533.881-1.866.512-2.874.724-1.937.407-2.435,2.9-2.506,4.88q-.122,3.4-.184,6.794a8.784,8.784,0,0,0,.2,2.521,8.909,8.909,0,0,0,1.954,3.162l7.586,9.114c3.364,4.041,6.936,8.751,6.258,13.964,1.594.715,3.488-.661,4.01-2.328s.1-3.464-.254-5.175a63.626,63.626,0,0,1-1.2-8.972,9.141,9.141,0,0,1,.526-4.473,3.455,3.455,0,0,1,3.642-2.108c1.968.46,2.815,3.019,4.74,3.633,1.623.517,3.4-.635,4.174-2.153a10.96,10.96,0,0,0,.8-5l.014-5.759c0-2.087.067-4.345,1.354-5.987,1.6-2.043,5.367-2.935,7.88-2.853a6.673,6.673,0,0,1,4.5,1.813A5.816,5.816,0,0,0,262.226,318.581Z" transform="translate(-137.96 -113.329)" fill="#3f3d56"/><path d="M270.352,426.019l-7.195,29.555S257.487,455.541,270.352,426.019Z" transform="translate(-151.379 -148.648)" opacity="0.1"/><path d="M239.947,419.3s9.419,15.426,5.744,31.377l-1.755.128S247.069,443.421,239.947,419.3Z" transform="translate(-145.557 -146.866)" opacity="0.1"/><path d="M227.345,537.793s-11.566-3.826-12.406,5.054C214.939,542.848,217.121,536.759,227.345,537.793Z" transform="translate(-138.927 -178.06)" opacity="0.1"/><path d="M276.641,468.69s2.3,16.082-1.838,22.515a50.454,50.454,0,0,0,20.217,2.757L296.4,468.69Z" transform="translate(-154.796 -159.959)" opacity="0.1"/><path d="M275.163,489.147l1.117.62,7.12-16.042-6.661-5.972h-.345a.208.208,0,0,0,0,.031C276.5,468.525,278.357,482.337,275.163,489.147Z" transform="translate(-154.891 -159.711)" opacity="0.1"/><path d="M276.641,467.752s2.3,16.082-1.838,22.515a50.453,50.453,0,0,0,20.217,2.757l8.041-25.272Z" transform="translate(-154.796 -159.71)" fill="#3f3d56"/><path d="M302.331,832.077a5.2,5.2,0,0,0,4.461,4.551c6.239.932,21.267-1.835,25.062-.03,4.825,2.3,23.892.689,24.812-1.606a3.626,3.626,0,0,0-.331-2.764,7.335,7.335,0,0,0-3.081-3.312,7.632,7.632,0,0,0-1.382-.613c-3.591-1.2-10.376-3.743-12.206-6.406,0,0-8.455-7.4-10.868-11.4a5.519,5.519,0,0,0-4.417-2.751c-2.013-.09-4.254.922-5.171,5.331,0,0-11.021,6.289-14.005.775,0,0-.458,13.615-2.288,15.931,0,0-.007.01-.01.014a3.058,3.058,0,0,0-.576,2.278Z" transform="translate(-162.085 -249.835)" fill="#cbceda"/><path d="M302.331,839.715a5.2,5.2,0,0,0,4.461,4.551c6.239.932,21.267-1.835,25.062-.03,4.825,2.3,23.892.689,24.812-1.606a3.626,3.626,0,0,0-.331-2.764,7.335,7.335,0,0,0-3.081-3.312c-3.108,2.061-10.011,4.08-25.191,1.709-14.481-2.261-21.649.668-25.146-.842,0,0-.007.01-.01.014A3.058,3.058,0,0,0,302.331,839.715Z" transform="translate(-162.085 -257.473)" opacity="0.1"/><g transform="translate(73.332 190.337)" opacity="0.1"><path d="M218.772,319.75c-.006-.037-.013-.074-.02-.11a21.517,21.517,0,0,1-.709-5.217,33.521,33.521,0,0,0,.709,4.183A2.49,2.49,0,0,1,218.772,319.75Z" transform="translate(-213.078 -309.402)"/><path d="M237.07,339.444a6.713,6.713,0,0,0-.564,2.625,7.91,7.91,0,0,1,.564-3.659,3.455,3.455,0,0,1,3.642-2.108c1.968.46,2.815,3.02,4.74,3.633,1.623.517,3.4-.635,4.174-2.153a10.96,10.96,0,0,0,.8-5q.007-2.879.014-5.759c0-2.087.067-4.345,1.354-5.987,1.6-2.043,5.367-2.935,7.88-2.853a6.672,6.672,0,0,1,4.5,1.813,5.817,5.817,0,0,0,4.736,1.686,4.094,4.094,0,0,0,3.3-2.854c.193-.742.142-1.533.361-2.268.536-1.8,2.463-2.746,3.755-4.116a7.522,7.522,0,0,0,1.938-4.856,7.832,7.832,0,0,1-1.938,5.89c-1.292,1.37-3.219,2.311-3.755,4.116-.218.735-.168,1.526-.361,2.268a4.094,4.094,0,0,1-3.3,2.854,5.817,5.817,0,0,1-4.736-1.686,6.672,6.672,0,0,0-4.5-1.813c-2.513-.082-6.278.811-7.88,2.853-1.288,1.642-1.349,3.9-1.354,5.987q-.007,2.879-.014,5.759a10.96,10.96,0,0,1-.8,5c-.774,1.518-2.551,2.671-4.174,2.153-1.926-.614-2.772-3.173-4.74-3.633A3.455,3.455,0,0,0,237.07,339.444Z" transform="translate(-217.969 -307.591)"/><path d="M211.512,341.79a8.91,8.91,0,0,0,1.954,3.162l7.586,9.114c3.194,3.837,6.572,8.277,6.326,13.178-.23-4.493-3.358-8.579-6.326-12.144l-7.586-9.114a8.909,8.909,0,0,1-1.954-3.162,8.78,8.78,0,0,1-.2-2.52,6.252,6.252,0,0,0,.2,1.487Z" transform="translate(-211.293 -316.263)"/><path d="M237.1,374.419a5.4,5.4,0,0,0,.227-1.229,6.154,6.154,0,0,1-.227,2.263c-.523,1.667-2.416,3.044-4.01,2.328a10,10,0,0,0,.079-1.005C234.744,377.414,236.584,376.06,237.1,374.419Z" transform="translate(-217.071 -324.98)"/></g><path d="M336.414,814.321s-2.4,4.225-11.1.5" transform="translate(-168.185 -251.579)" opacity="0.1"/><path d="M236.2,814.706s-7.507,8.836-16.964,2.9" transform="translate(-140.067 -251.681)" opacity="0.1"/><path d="M212.6,672.509s5.3,3.313,5.475,5.208-2.737-1.378-2.737-1.378Z" transform="translate(-138.306 -213.987)" opacity="0.1"/><path d="M209.748,707.074a11.072,11.072,0,0,0,6.534,2.55c3.963.172,3.633,5.341,1.041,3.791S209.748,707.074,209.748,707.074Z" transform="translate(-137.551 -223.15)" opacity="0.1"/><path d="M208.375,711.585s2.546,12.5,4.613,10.09" transform="translate(-137.187 -224.346)" opacity="0.1"/><path d="M121.586,685.533a14.751,14.751,0,0,0,17.061-4.97,17.02,17.02,0,0,0,1.226-18.722,14.956,14.956,0,0,0-16.25-7.424l.383,8.351-3.725-7.156a15.853,15.853,0,0,0-7.852,9.138,16.745,16.745,0,0,0-.88,4.389A16.276,16.276,0,0,0,121.586,685.533Z" transform="translate(-111.511 -217.871)" fill="#57b894"/><path d="M149.258,778.441c-1.315-7.1,4.383-13.4,10.01-17.49s12.2-8.113,14.123-15.058c2.76-9.981-5.46-19.122-11.858-27a98.249,98.249,0,0,1-12.143-19.143,27.415,27.415,0,0,1-2.9-8.7c-.5-4.424.836-8.827,2.186-13.047q6.746-21.088,14.425-41.822" transform="translate(-120.753 -213.927)" fill="none" stroke="#3f3d56" stroke-miterlimit="10" stroke-width="1"/><path d="M122.443,682.775a14.751,14.751,0,0,0,17.061-4.97,17.02,17.02,0,0,0,1.226-18.722,14.956,14.956,0,0,0-16.25-7.424l.383,8.351-3.725-7.156a15.853,15.853,0,0,0-7.852,9.138,16.743,16.743,0,0,0-.88,4.389,16.276,16.276,0,0,0,10.036,16.394Z" transform="translate(-111.738 -217.263)" fill="none" stroke="#3f3d56" stroke-miterlimit="10" stroke-width="1"/><path d="M147.423,629.45a15.608,15.608,0,0,1,11.009-10.288l1.259,7.939,2.335-8.338a15.449,15.449,0,0,1,14.408,11.511,16.749,16.749,0,0,1-5.95,18.062,14.594,14.594,0,0,1-18.031-.512,16.827,16.827,0,0,1-5.03-18.374Z" transform="translate(-120.787 -210.089)" fill="#57b894"/><path d="M148.566,625.773a15.609,15.609,0,0,1,11.009-10.288l1.259,7.939,2.335-8.338A15.449,15.449,0,0,1,177.577,626.6a16.749,16.749,0,0,1-5.95,18.062,14.593,14.593,0,0,1-18.031-.512,16.827,16.827,0,0,1-5.03-18.374Z" transform="translate(-121.09 -209.278)" fill="none" stroke="#3f3d56" stroke-miterlimit="10" stroke-width="1"/><path d="M159.71,733.586c7.309,2.812,15.444-.64,18.908-8.024a16.8,16.8,0,0,0-5.371-20.836l-1.794,6.407-1.272-8.032a.247.247,0,0,0-.039-.016c-7.941-3.055-16.713,1.3-19.593,9.718s1.221,17.727,9.162,20.783Z" transform="translate(-121.615 -228.464)" fill="#57b894"/><path d="M160.7,729.862c7.309,2.812,15.444-.64,18.908-8.024A16.8,16.8,0,0,0,174.237,701l-1.794,6.407-1.272-8.032a.252.252,0,0,0-.039-.016c-7.941-3.055-16.713,1.3-19.593,9.718s1.221,17.727,9.162,20.783Z" transform="translate(-121.877 -227.643)" fill="none" stroke="#3f3d56" stroke-miterlimit="10" stroke-width="1"/><path d="M141.6,771.671c1.251,7.551,7.318,13.141,14.542,13.4s13.632-4.886,15.359-12.331a16.54,16.54,0,0,0-8.21-18.483,14.735,14.735,0,0,0-18.744,4.711l6.815,10.88-9.311-5.774A17.009,17.009,0,0,0,141.6,771.671Z" transform="translate(-119.423 -239.606)" fill="#57b894"/><path d="M142.453,768.913c1.251,7.552,7.318,13.141,14.542,13.4s13.632-4.886,15.359-12.331a16.54,16.54,0,0,0-8.21-18.483,14.735,14.735,0,0,0-18.744,4.711l6.815,10.88-9.311-5.775A17.009,17.009,0,0,0,142.453,768.913Z" transform="translate(-119.65 -238.999)" fill="none" stroke="#3f3d56" stroke-miterlimit="10" stroke-width="1"/><path d="M121.4,827.368s13.5-5.611,17.565-8.683,20.762-6.741,21.771-1.814,20.284,24.507,5.045,24.637-35.407,2.652-39.467.029S121.4,827.368,121.4,827.368Z" transform="translate(-114.133 -253.234)" fill="#656380"/><path d="M166.056,843.438c-15.238.13-35.407,2.652-39.467.029-3.092-2-4.324-9.166-4.736-12.473-.285.013-.451.019-.451.019s.855,11.546,4.915,14.169,24.228.1,39.467-.029c4.4-.038,5.918-1.7,5.835-4.156C171.007,842.482,169.33,843.41,166.056,843.438Z" transform="translate(-114.133 -256.879)" opacity="0.2"/><line x2="199.898" transform="translate(37.346 587.635)" fill="none" stroke="#3f3d56" stroke-miterlimit="10" stroke-width="1"/></g></svg>