<svg id="undraw_environment_iaus" xmlns="http://www.w3.org/2000/svg" width="417.202" height="308.363" viewBox="0 0 417.202 308.363">
  <g id="Plants">
    <path id="Path_93" data-name="Path 93" d="M788.835,236.779a12.733,12.733,0,0,0-10.976,7.674c-2.745,6.634.789,14.427,6.094,19.265s12.119,7.6,18.311,11.237c8.316,4.882,15.789,11.659,19.95,20.358s4.6,19.475-.287,27.786c-4.54,7.714-12.794,12.33-20.667,16.588" transform="translate(-485.003 -182.749)" fill="none" stroke="#3f3d56" stroke-miterlimit="10" stroke-width="1"/>
    <path id="Path_94" data-name="Path 94" d="M835.9,150.885a12.733,12.733,0,0,0-10.976,7.674c-2.745,6.634.789,14.427,6.094,19.265s12.119,7.6,18.311,11.237c8.316,4.882,15.789,11.659,19.95,20.358s4.6,19.475-.287,27.786c-4.54,7.714-12.794,12.33-20.667,16.588" transform="translate(-509.906 -137.301)" fill="none" stroke="#3f3d56" stroke-miterlimit="10" stroke-width="1"/>
    <path id="Path_95" data-name="Path 95" d="M944.3,168.122a12.733,12.733,0,0,0-13.377-.651c-6.231,3.566-8.208,11.891-6.975,18.964s4.929,13.431,7.6,20.095c3.587,8.951,5.347,18.884,3.312,28.31s-8.282,18.217-17.237,21.795c-8.312,3.32-17.665,1.917-26.5.465" transform="translate(-545.439 -145.235)" fill="none" stroke="#3f3d56" stroke-miterlimit="10" stroke-width="1"/>
    <ellipse id="Ellipse_29" data-name="Ellipse 29" cx="13.297" cy="6.459" rx="13.297" ry="6.459" transform="translate(321.351 93.581)" fill="#57b894"/>
    <ellipse id="Ellipse_30" data-name="Ellipse 30" cx="13.297" cy="6.459" rx="13.297" ry="6.459" transform="translate(319.689 92.473)" fill="none" stroke="#3f3d56" stroke-miterlimit="10" stroke-width="1"/>
    <ellipse id="Ellipse_31" data-name="Ellipse 31" cx="13.297" cy="6.459" rx="13.297" ry="6.459" transform="translate(350.162 88.041)" fill="#57b894"/>
    <ellipse id="Ellipse_32" data-name="Ellipse 32" cx="13.297" cy="6.459" rx="13.297" ry="6.459" transform="translate(348.499 86.932)" fill="none" stroke="#3f3d56" stroke-miterlimit="10" stroke-width="1"/>
    <ellipse id="Ellipse_33" data-name="Ellipse 33" cx="13.297" cy="6.459" rx="13.297" ry="6.459" transform="translate(354.594 112.419)" fill="#57b894"/>
    <ellipse id="Ellipse_34" data-name="Ellipse 34" cx="13.297" cy="6.459" rx="13.297" ry="6.459" transform="translate(352.932 111.311)" fill="none" stroke="#3f3d56" stroke-miterlimit="10" stroke-width="1"/>
    <ellipse id="Ellipse_35" data-name="Ellipse 35" cx="13.297" cy="6.459" rx="13.297" ry="6.459" transform="translate(351.824 51.473)" fill="#57b894"/>
    <ellipse id="Ellipse_36" data-name="Ellipse 36" cx="13.297" cy="6.459" rx="13.297" ry="6.459" transform="translate(350.162 50.365)" fill="none" stroke="#3f3d56" stroke-miterlimit="10" stroke-width="1"/>
    <ellipse id="Ellipse_37" data-name="Ellipse 37" cx="13.297" cy="6.459" rx="13.297" ry="6.459" transform="translate(318.581 47.595)" fill="#57b894"/>
    <ellipse id="Ellipse_38" data-name="Ellipse 38" cx="13.297" cy="6.459" rx="13.297" ry="6.459" transform="translate(316.918 46.486)" fill="none" stroke="#3f3d56" stroke-miterlimit="10" stroke-width="1"/>
    <ellipse id="Ellipse_39" data-name="Ellipse 39" cx="13.297" cy="6.459" rx="13.297" ry="6.459" transform="translate(333.54 33.743)" fill="#57b894"/>
    <ellipse id="Ellipse_40" data-name="Ellipse 40" cx="13.297" cy="6.459" rx="13.297" ry="6.459" transform="translate(331.878 32.635)" fill="none" stroke="#3f3d56" stroke-miterlimit="10" stroke-width="1"/>
    <ellipse id="Ellipse_41" data-name="Ellipse 41" cx="13.297" cy="6.459" rx="13.297" ry="6.459" transform="translate(366.229 36.514)" fill="#57b894"/>
    <ellipse id="Ellipse_42" data-name="Ellipse 42" cx="13.297" cy="6.459" rx="13.297" ry="6.459" transform="translate(364.567 35.405)" fill="none" stroke="#3f3d56" stroke-miterlimit="10" stroke-width="1"/>
    <ellipse id="Ellipse_43" data-name="Ellipse 43" cx="13.297" cy="6.459" rx="13.297" ry="6.459" transform="translate(390.607 54.797)" fill="#57b894"/>
    <ellipse id="Ellipse_44" data-name="Ellipse 44" cx="13.297" cy="6.459" rx="13.297" ry="6.459" transform="translate(388.945 53.689)" fill="none" stroke="#3f3d56" stroke-miterlimit="10" stroke-width="1"/>
    <ellipse id="Ellipse_45" data-name="Ellipse 45" cx="13.297" cy="6.459" rx="13.297" ry="6.459" transform="translate(304.729 22.662)" fill="#57b894"/>
    <ellipse id="Ellipse_46" data-name="Ellipse 46" cx="13.297" cy="6.459" rx="13.297" ry="6.459" transform="translate(303.067 21.554)" fill="none" stroke="#3f3d56" stroke-miterlimit="10" stroke-width="1"/>
    <ellipse id="Ellipse_47" data-name="Ellipse 47" cx="13.297" cy="6.459" rx="13.297" ry="6.459" transform="translate(313.04 1.608)" fill="#57b894"/>
    <ellipse id="Ellipse_48" data-name="Ellipse 48" cx="13.297" cy="6.459" rx="13.297" ry="6.459" transform="translate(311.378 0.5)" fill="none" stroke="#3f3d56" stroke-miterlimit="10" stroke-width="1"/>
    <ellipse id="Ellipse_49" data-name="Ellipse 49" cx="13.297" cy="6.459" rx="13.297" ry="6.459" transform="translate(390.053 17.122)" fill="#57b894"/>
    <ellipse id="Ellipse_50" data-name="Ellipse 50" cx="13.297" cy="6.459" rx="13.297" ry="6.459" transform="translate(388.391 16.014)" fill="none" stroke="#3f3d56" stroke-miterlimit="10" stroke-width="1"/>
    <ellipse id="Ellipse_51" data-name="Ellipse 51" cx="13.297" cy="6.459" rx="13.297" ry="6.459" transform="translate(267.608 68.095)" fill="#57b894"/>
    <ellipse id="Ellipse_52" data-name="Ellipse 52" cx="13.297" cy="6.459" rx="13.297" ry="6.459" transform="translate(265.946 66.986)" fill="none" stroke="#3f3d56" stroke-miterlimit="10" stroke-width="1"/>
    <ellipse id="Ellipse_53" data-name="Ellipse 53" cx="13.297" cy="6.459" rx="13.297" ry="6.459" transform="translate(313.594 64.77)" fill="#57b894"/>
    <ellipse id="Ellipse_54" data-name="Ellipse 54" cx="13.297" cy="6.459" rx="13.297" ry="6.459" transform="translate(311.932 63.662)" fill="none" stroke="#3f3d56" stroke-miterlimit="10" stroke-width="1"/>
    <ellipse id="Ellipse_55" data-name="Ellipse 55" cx="13.297" cy="6.459" rx="13.297" ry="6.459" transform="translate(373.986 69.757)" fill="#57b894"/>
    <ellipse id="Ellipse_56" data-name="Ellipse 56" cx="13.297" cy="6.459" rx="13.297" ry="6.459" transform="translate(372.324 68.648)" fill="none" stroke="#3f3d56" stroke-miterlimit="10" stroke-width="1"/>
    <ellipse id="Ellipse_57" data-name="Ellipse 57" cx="13.297" cy="6.459" rx="13.297" ry="6.459" transform="translate(341.851 71.973)" fill="#57b894"/>
    <ellipse id="Ellipse_58" data-name="Ellipse 58" cx="13.297" cy="6.459" rx="13.297" ry="6.459" transform="translate(340.189 70.865)" fill="none" stroke="#3f3d56" stroke-miterlimit="10" stroke-width="1"/>
    <ellipse id="Ellipse_59" data-name="Ellipse 59" cx="13.297" cy="6.459" rx="13.297" ry="6.459" transform="translate(344.067 16.567)" fill="#57b894"/>
    <ellipse id="Ellipse_60" data-name="Ellipse 60" cx="13.297" cy="6.459" rx="13.297" ry="6.459" transform="translate(342.405 15.459)" fill="none" stroke="#3f3d56" stroke-miterlimit="10" stroke-width="1"/>
    <ellipse id="Ellipse_61" data-name="Ellipse 61" cx="13.297" cy="6.459" rx="13.297" ry="6.459" transform="translate(287 50.919)" fill="#57b894"/>
    <ellipse id="Ellipse_62" data-name="Ellipse 62" cx="13.297" cy="6.459" rx="13.297" ry="6.459" transform="translate(285.337 49.811)" fill="none" stroke="#3f3d56" stroke-miterlimit="10" stroke-width="1"/>
    <ellipse id="Ellipse_63" data-name="Ellipse 63" cx="13.297" cy="6.459" rx="13.297" ry="6.459" transform="translate(294.756 75.851)" fill="#57b894"/>
    <ellipse id="Ellipse_64" data-name="Ellipse 64" cx="13.297" cy="6.459" rx="13.297" ry="6.459" transform="translate(293.094 74.743)" fill="none" stroke="#3f3d56" stroke-miterlimit="10" stroke-width="1"/>
  </g>
  <g id="Hand">
    <path id="Path_86" data-name="Path 86" d="M518.51,538.048s55.405-6.649,74.8-17.176,163.446-15.513,163.446,17.176-165.662,47.095-165.662,47.095L504.1,580.156Z" transform="translate(-340.659 -328.86)" fill="#fbbebe"/>
    <path id="Path_87" data-name="Path 87" d="M518.51,538.048s55.405-6.649,74.8-17.176,163.446-15.513,163.446,17.176-165.662,47.095-165.662,47.095L504.1,580.156Z" transform="translate(-340.659 -328.86)" opacity="0.1"/>
    <path id="Path_88" data-name="Path 88" d="M350.919,533.559l-11.635,33.8L157,569.573V519.708s69.811-16.068,125.216,18.284C282.216,537.992,347.594,530.235,350.919,533.559Z" transform="translate(-157 -330.466)" fill="#c7efdb"/>
    <path id="Path_89" data-name="Path 89" d="M350.919,533.444l-11.635,33.8L157,569.457V519.592s69.811-16.068,125.216,18.284C282.216,537.876,347.594,530.119,350.919,533.444Z" transform="translate(-157 -330.405)" opacity="0.1"/>
    <path id="Path_90" data-name="Path 90" d="M848.842,474.812c0,1.888-4.235,3.29-4.651,5.112s2.1,4.554,1.307,6.28a34.166,34.166,0,0,1-2.906,5.054c-1.043,1.493-4.265,1.275-5.586,2.676a44.417,44.417,0,0,1-4.1,3.568c-1.4,1.166-3.3,1.41-4.895,2.483-1.516,1.02-1.332,4.763-3.009,5.693-1.6.888-4.054.174-5.792.972-1.668.766-2.548,3.537-4.331,4.214-1.72.653-3.848.372-5.666.938-1.76.548-3.729.459-5.572.92-1.791.448-3.158,3.132-5.021,3.494-1.815.353-3.942-.588-5.818-.321-1.833.261-3.964-2.059-5.849-1.883-1.845.172-3.584,1.246-5.474,1.332-1.853.085-3.685.9-5.575.9s-3.84,1.773-5.693,1.688c-1.89-.087-3.6-2.774-5.445-2.946-1.885-.176-4.134,2.632-5.967,2.371-1.876-.267-3.363-3.015-5.177-3.367-1.863-.362-4.269,1.6-6.06,1.154-1.844-.461-2.939-3.658-4.7-4.206-1.818-.566-4.072.2-5.792-.453-1.784-.678-3.956-.569-5.624-1.335-1.738-.8-2.985-2.687-4.587-3.575-1.677-.929-2.45-3.234-3.965-4.254-1.594-1.073-4.023-.936-5.425-2.1-1.48-1.231-4.253-1.3-5.5-2.619-1.321-1.4-1.855-3.752-2.9-5.246-1.1-1.573,1.057-4.9.29-6.561-.8-1.725-4.123-2.426-4.536-4.233a26.576,26.576,0,0,1-.652-5.748c0-1.888,2.845-3.332,3.262-5.153s-1.681-4.4-.885-6.127c.767-1.663.669-4.219,1.768-5.792,1.043-1.493,3.646-2.079,4.967-3.479,1.249-1.324,3.484-1.694,4.964-2.924,1.4-1.166,1.223-4.681,2.817-5.754,1.516-1.02,3.632-1.486,5.308-2.415,1.6-.888,3.869-.738,5.607-1.536,1.668-.766,4.281.743,6.064.066,1.72-.653,3.115-2.082,4.933-2.648,1.76-.548,2.586-4.725,4.43-5.186,1.791-.448,3.994.3,5.856-.066,1.815-.353,4.257,2.943,6.133,2.676,1.833-.261,3.2-4.661,5.088-4.836,1.845-.172,3.926,2.107,5.815,2.02,1.853-.085,3.713,1.25,5.6,1.25s3.773-1.832,5.625-1.747c1.89.087,3.556,2.508,5.4,2.68,1.885.176,4.2-3.508,6.032-3.247,1.876.267,3.326,3.115,5.141,3.467,1.863.362,4.2-1.406,5.988-.958,1.844.461,2.954,3.488,4.714,4.036,1.818.566,2.938,2.7,4.658,3.354,1.784.678,5.1-2.493,6.765-1.727,1.738.8,3.239,2.179,4.841,3.067,1.677.929,4.342.462,5.857,1.482,1.594,1.073,1.986,3.954,3.388,5.12,1.48,1.231,3.921,1.6,5.17,2.926,1.321,1.4,1.5,3.91,2.547,5.4,1.1,1.573,1.064,3.752,1.831,5.415.8,1.725,2.92,3.03,3.333,4.836S848.842,472.924,848.842,474.812Z" transform="translate(-446.518 -285.847)" fill="#3f3d56"/>
    <path id="Path_91" data-name="Path 91" d="M582.042,570.864S644.65,538.729,685.1,550.918s96.959-8.865,103.608-1.662,16.068,84.77-63.716,89.2-147.932-13.3-147.932-13.3Z" transform="translate(-379.259 -347.27)" fill="#fbbebe"/>
    <path id="Path_92" data-name="Path 92" d="M345.039,568.751s24.717-1.564,23.609,7.3-2.216,77.567-8.865,79.23-59.284,1.662-80.892,1.662H157V550.725s86.432-5.146,129.648,16.462C286.648,567.187,338.606,566.437,345.039,568.751Z" transform="translate(-157 -348.58)" fill="#c7efdb"/>
    <g id="Group_2" data-name="Group 2" transform="translate(298.822 117.384)" opacity="0.3">
      <ellipse id="Ellipse_65" data-name="Ellipse 65" cx="6.966" cy="3.017" rx="6.966" ry="3.017" transform="translate(0.877 12.162) rotate(-60.799)" fill="#57b894"/>
      <ellipse id="Ellipse_66" data-name="Ellipse 66" cx="6.966" cy="3.017" rx="6.966" ry="3.017" transform="translate(0 12.67) rotate(-60.799)" fill="none" stroke="#3f3d56" stroke-miterlimit="10" stroke-width="1"/>
    </g>
    <g id="Group_3" data-name="Group 3" transform="translate(364.974 130.004)" opacity="0.3">
      <ellipse id="Ellipse_67" data-name="Ellipse 67" cx="3.017" cy="6.966" rx="3.017" ry="6.966" transform="matrix(0.667, -0.745, 0.745, 0.667, 0.304, 5.462)" fill="#57b894"/>
      <ellipse id="Ellipse_68" data-name="Ellipse 68" cx="3.017" cy="6.966" rx="3.017" ry="6.966" transform="matrix(0.667, -0.745, 0.745, 0.667, 0, 4.496)" fill="none" stroke="#3f3d56" stroke-miterlimit="10" stroke-width="1"/>
    </g>
    <g id="Group_4" data-name="Group 4" transform="translate(302.921 95.099)" opacity="0.3">
      <ellipse id="Ellipse_69" data-name="Ellipse 69" cx="3.017" cy="6.966" rx="3.017" ry="6.966" transform="matrix(0.667, -0.745, 0.745, 0.667, 0.304, 5.462)" fill="#57b894"/>
      <ellipse id="Ellipse_70" data-name="Ellipse 70" cx="3.017" cy="6.966" rx="3.017" ry="6.966" transform="matrix(0.667, -0.745, 0.745, 0.667, 0, 4.496)" fill="none" stroke="#3f3d56" stroke-miterlimit="10" stroke-width="1"/>
    </g>
  </g>
</svg>
