<svg xmlns="http://www.w3.org/2000/svg" width="416.479" height="443.174" viewBox="0 0 416.479 443.174">
  <g id="undraw_the_world_is_mine_nb0e" transform="translate(0 34.811)">
    <g id="Globe">
      <path id="Path_61" data-name="Path 61" d="M779.138,196.485v.618q-.021,2.328-.133,4.635a103.242,103.242,0,0,1-206.139,1.348q-.211-3.276-.211-6.6a102.729,102.729,0,0,1,18.984-59.677q1.485-2.107,3.09-4.137c.737-.941,1.5-1.861,2.261-2.774a103.261,103.261,0,0,1,143.878-13.653c1.243,1,2.465,2.044,3.659,3.1q1.433,1.275,2.816,2.606a102.962,102.962,0,0,1,31.436,65.85Q779.138,192.1,779.138,196.485Z" transform="translate(751.319 -418.114) rotate(116)" fill="#c7efdb"/>
      <path id="Path_62" data-name="Path 62" d="M594.728,160.063a.576.576,0,0,1,.14.084c.555.456-.14,1.334-.056,2.058.1.927,1.334,1.131,2.268,1.222s2.114.85,1.672,1.679c-2.346.808-4.72.014-7.115-.906a102.729,102.729,0,0,0-18.984,59.676q0,3.329.211,6.6a2.668,2.668,0,0,0,.639.344,13.638,13.638,0,0,1,2.163.6c.513.3.857.836,1.37,1.117,1.468.8,3.5-.737,4.874.218a12.6,12.6,0,0,1,1,1.025c1.264,1.1,3.343.358,4.8,1.18a5.7,5.7,0,0,1,1.931,2.535c1.257,2.388,3.294,4.734,5.984,4.923a16.116,16.116,0,0,1,2.542.084c.829.19,1.643.913,1.51,1.749-.232,1.44.477,3.013.288,4.453-.344,2.634-4.073,3.786-4.389,6.419a15.871,15.871,0,0,1-.1,1.735c-.169.688-.688,1.25-.871,1.938-.351,1.3.583,2.6,1.6,3.469s2.248,1.636,2.809,2.858c.59,1.3.3,2.809.492,4.221.421,3.083,3.083,5.366,5.822,6.841a6.08,6.08,0,0,1,2.276,1.657c.7,1.018.632,2.36.871,3.575.576,2.971,3.076,5.422,3.146,8.449.049,2.156-1.145,4.109-1.861,6.138a14.17,14.17,0,0,0-.639,6.63,103.746,103.746,0,0,0,12.733,9.236,3.712,3.712,0,0,0,.527-1.18,2.333,2.333,0,0,0-1.089-2.416,5.772,5.772,0,0,0,2.016-1.292,1.977,1.977,0,0,0,.365-2.233c1.236.154,2.7.232,3.519-.716a3.143,3.143,0,0,0,.351-2.858,11.788,11.788,0,0,1-.7-2.908,52.3,52.3,0,0,0,8.582-.288,5.571,5.571,0,0,0-2.613-3.273c1.292-.218,2.465-1.763,2.873-3.006a7.657,7.657,0,0,0,.056-3.884,2.066,2.066,0,0,1-.042-1.011,1.991,1.991,0,0,1,1.025-.99q3.2-1.844,6.405-3.68a3.86,3.86,0,0,0,1.025-.751,3.057,3.057,0,0,0,.225-2.957,14.891,14.891,0,0,1-1.025-2.922c-.393-3.069,2.894-5.274,4-8.168a12.267,12.267,0,0,0,.6-3.575c.091-1.306.1-2.816-.9-3.652-.962-.808-2.458-.625-3.462-1.377-.92-.688-1.236-2.016-2.24-2.57-.913-.506-2.051-.183-3.069-.421-1.784-.414-2.908-2.472-4.734-2.662-1.025-.112-2.191.393-3.034-.2-.745-.534-.773-1.594-.913-2.493A6.965,6.965,0,0,0,624,244.75a7.842,7.842,0,0,1-3.118-.688c-.913-.59-1.327-1.693-2.051-2.514-1.152-1.313-2.978-1.784-4.684-2.184q-3.477-.811-6.946-1.629c-1.229-.295-2.816-.449-3.483.632a4.754,4.754,0,0,0-.407,1.3,4.029,4.029,0,0,1-3.779,2.837,4.464,4.464,0,0,0-2.627-2.037,16.571,16.571,0,0,1-2.135-.506,2.991,2.991,0,0,1-1.292-4.151,3.727,3.727,0,0,0-.639-4.474,6.045,6.045,0,0,0-4.474-1.215c-.414-.906.281-1.924,1.025-2.585s1.657-1.3,1.819-2.283c.26-1.545-1.714-2.718-3.21-2.262a5.589,5.589,0,0,0-3.083,3.35,10.1,10.1,0,0,1-1.243,2.381,2.441,2.441,0,0,1-2.36.969c-1.236-.316-1.707-1.784-1.981-3.02a19.7,19.7,0,0,1-.66-5.064,6.61,6.61,0,0,1,1.91-4.607c2.044-1.882,5.19-1.7,7.95-1.4a2.025,2.025,0,0,1,.211-2.669,3.035,3.035,0,0,1,2.753-.674,3.777,3.777,0,0,1,2.128,1.271c.787.955,1.011,2.254,1.6,3.336s1.931,2.016,3.02,1.433c.948-.506,1.1-1.812.864-2.858a10.614,10.614,0,0,1-.653-3.125c.162-2.03,2.276-3.259,4.137-4.095s3.989-1.967,4.284-3.989a3.727,3.727,0,0,1,.225-1.152,2.252,2.252,0,0,1,.836-.787c5.429-3.589,10.956-7.227,17.165-9.186.323-.105.358.007.688-.07.464-.267.155-1-.288-1.3s-1.032-.527-1.145-1.046c-.077-.379.148-.759.2-1.145a1.429,1.429,0,0,0-1.875-1.447c-.5-.66.485-1.426,1.285-1.65a35.1,35.1,0,0,1,7.339-1.194,1.307,1.307,0,0,1,.836.14.993.993,0,0,1,.063,1.362,7.69,7.69,0,0,1-1.117,1.018,3.068,3.068,0,0,0-.8,3.083,7,7,0,0,0,4.144,1.11c1.433-.232,2.7-1.847,2.03-3.132-.625-1.2-2.514-1.475-2.837-2.788-.379-1.538,1.8-2.908,1.306-4.411-.211-.66-.871-1.053-1.377-1.524a4.155,4.155,0,0,1-.906-4.593,5.234,5.234,0,0,1-4.579-1.433c-1.1-1.1-1.966-2.851-3.526-2.8-1.426.042-2.655,1.707-3.989,1.2-.33-.126-.674-.379-.99-.232a.818.818,0,0,0-.372.611c-.337,1.622.246,3.47-.639,4.874-.962,1.524-3.189,1.735-4.354,3.111-.632.744-.878,1.749-1.461,2.535s-1.812,1.292-2.514.6a3.461,3.461,0,0,0-.941-4.214,9.05,9.05,0,0,0-2.079-1.011,12.336,12.336,0,0,1-2.325-1.292,2.3,2.3,0,0,1-.85-.913,2.1,2.1,0,0,1,.056-1.447,5.913,5.913,0,0,1,4.7-3.891c.927-.126,2.009-.084,2.627-.794.323-.372.492-.941.969-1.089a1.413,1.413,0,0,1,.892.105l3.47,1.222a2.376,2.376,0,0,0,1.236.2.832.832,0,0,0,.724-.878c-.112-.576-1-.85-.913-1.433a.91.91,0,0,1,.288-.492,12.41,12.41,0,0,1,9.84-3.884c.435.723-.253,1.573-.836,2.184s-1.039,1.714-.337,2.184a1.85,1.85,0,0,0,.92.211,8.026,8.026,0,0,1,2.458.744c1.2.52,2.381,1.1,3.533,1.714a4.454,4.454,0,0,1,.084-2.276,1.545,1.545,0,0,1,1.826-.99c.688.267,1.04,1.18,1.777,1.264.976.112,1.363-1.334.955-2.233s-1.222-1.643-1.285-2.634c-.049-.66.2-1.482-.323-1.882a1.4,1.4,0,0,0-.625-.225q-6.616-1.211-13.239-2.43c-.787-.147-1.917-.035-1.952.759-.021.449.379.892.2,1.3-.19.435-.808.4-1.257.555a1.707,1.707,0,0,0-.983,1.8,4.919,4.919,0,0,0,.829,2.03c-.864-.358-2.163-.421-3.027-.787a11.646,11.646,0,0,0-.759-2.915,1.029,1.029,0,0,0-1.341-.829c-1.138.176-2.276.344-3.413.52a1.321,1.321,0,0,0-.78.3c-.442.471-.007,1.222-.021,1.868a1.751,1.751,0,0,1-1.356,1.51,5.109,5.109,0,0,1-2.163-.028l-4.776-.737a7.823,7.823,0,0,0,3.61-2.416c.632-.744.969-2.135.056-2.486a2.18,2.18,0,0,0-.829-.063c-2.163.014-3.87-1.791-5.893-2.556a5.792,5.792,0,0,0-1.987-.365Z" transform="translate(-397.473 -120.637)" fill="#3f3d56"/>
      <path id="Path_63" data-name="Path 63" d="M833.047,218.441a2.536,2.536,0,0,1-2.149,1.018c-2.2-.19-3.125-3.357-5.3-3.715a.848.848,0,0,0-.576.056c-.323.176-.379.611-.4.976a12.109,12.109,0,0,0,.541,5.366c1.032,2.444,3.708,4.495,3.146,7.086-3.02-1.4-4.593-4.79-5.3-8.042s-.829-6.665-2.107-9.741c-.976,1.243-3.013.218-3.9-1.089-.843-1.236-1.362-2.669-2.177-3.926a4.831,4.831,0,0,0-3.554-2.444c-1.566-.07-2.929,1-4.123,2.023a9.541,9.541,0,0,0-2.563,2.851c-.836,1.686-.618,3.666-.66,5.541a8.459,8.459,0,0,1-1.854,5.654c-1.384,1.482-3.933,2-5.457.66a6.157,6.157,0,0,1-1.524-2.746,133.652,133.652,0,0,1-4.13-14.735c-.253,1.138-1.257,2.606-2.212,1.938a1.974,1.974,0,0,1-.506-.66c-1.784-3.013-5.078-4.825-8.414-5.914s-6.834-1.587-10.127-2.781a25.893,25.893,0,0,1-5.26-2.62,4.142,4.142,0,0,0-.253,4.228,3.387,3.387,0,0,0,3.807,1.594c.73-.239,1.348-.744,2.072-1a1.621,1.621,0,0,1,2.016.576c.309.667-.154,1.475.077,2.177.344,1.061,1.952,1.145,2.514,2.114a1.957,1.957,0,0,1-.527,2.262,9.464,9.464,0,0,1-2.121,1.306c-2.36,1.313-4.038,3.554-6.1,5.3s-4.979,3.02-7.438,1.9c.583-2.971-2.95-5.148-3.6-8.1-.218-.976-.105-2.009-.407-2.957-.442-1.377-1.664-2.318-2.662-3.357a13.2,13.2,0,0,1-3.617-9.587,13.3,13.3,0,0,0,0-3.659,2.743,2.743,0,0,0-2.486-2.29c-2.788.126-6.307.337-7.768-2.044-.527-.85-.752-2.093.007-2.746a2.652,2.652,0,0,1,2.016-.344c2.1.2,4.193.414,6.293.618a7,7,0,0,0,4.319-.506c1.264-.765,1.812-2.809.639-3.715-.85-.66-2.381-.625-2.634-1.672-.2-.878.766-1.868.239-2.606-.372-.52-1.215-.379-1.728.014a11.282,11.282,0,0,1-1.454,1.271c-1,.52-2.2.021-3.28-.316s-2.528-.365-3.048.639c-.59,1.117.513,2.592-.063,3.715-.773,1.482-3.371.639-4.453,1.917-1.236,1.461.843,3.652.428,5.52a3.441,3.441,0,0,1-3.392-.19,3.284,3.284,0,0,1-1.419-3.062c.1-.843.541-1.707.246-2.5a2.919,2.919,0,0,0-1.482-1.355q-3.055-1.7-6.11-3.378c-.569,1.054.147,2.353,1.047,3.146a10.871,10.871,0,0,1,2.606,2.423,3.185,3.185,0,0,1-1.194,4.2.741.741,0,0,1-.611.105.847.847,0,0,1-.393-.527c-1.075-2.76-2.7-5.478-5.282-6.918s-6.307-1.145-8.006,1.278c-.4.576-.674,1.236-1.025,1.847-1.861,3.238-5.864,4.769-9.6,4.67a1.851,1.851,0,0,1-1.047-.246c-.6-.414-.576-1.3-.485-2.03.133-1.032.26-2.058.393-3.09a2.475,2.475,0,0,1,.681-1.693c.7-.548,1.693-.2,2.577-.218a3.247,3.247,0,0,0,2.957-2.283,3.669,3.669,0,0,0-1.025-3.652c-.4-.379-.941-.857-.73-1.37a1.138,1.138,0,0,1,.794-.534c1.58-.456,3.259-.576,4.811-1.124a5,5,0,0,0,3.441-3.259c.112-.492.161-1.089.6-1.334a1.956,1.956,0,0,1,.7-.14,3.418,3.418,0,0,0,2.929-3.561,2.233,2.233,0,0,1,2.514.421,6.987,6.987,0,0,0,2.233,1.524c1.636.449,3.217-1,4.916-1.011a6.149,6.149,0,0,0,2.121.007c.681-.246,1.089-.92,1.608-1.419s1.44-.808,1.924-.267c-.14-1.018-.274-2.03-.414-3.041a5.978,5.978,0,0,0,4.867-.885l-5.3-1.791a1.145,1.145,0,0,1-.5-.267c-.386-.414,0-1.061.309-1.531.751-1.131.878-2.992-.358-3.554a3.017,3.017,0,0,0-2.613.527c-1.292.716-2.585,1.44-3.877,2.156-.12.737.78,1.159,1.334,1.65a2.238,2.238,0,0,1-1.461,3.912,2.8,2.8,0,0,1,.5,2.367l-2.606.19a1.119,1.119,0,0,1-.843-.169c-.281-.246-.239-.681-.309-1.046a2.261,2.261,0,0,0-1.91-1.665,6.6,6.6,0,0,0-2.662.246,1.622,1.622,0,0,1-1.152-.028,1.149,1.149,0,0,1-.449-.576,2.937,2.937,0,0,1,.59-2.823,16.168,16.168,0,0,1,2.219-2.044,12.939,12.939,0,0,0,3.856-5.97c1.433-.6,2.915-1.419,4.354-2.023a17.4,17.4,0,0,1,3.617-1.215,17.092,17.092,0,0,1,3.547-.169c1.615.028,3.238.056,4.853.091a11.68,11.68,0,0,1,4.249.611,3.964,3.964,0,0,1,2.591,3.167.973.973,0,0,1-.316.892,1.139,1.139,0,0,1-.611.14c-1.341.042-1.91.379-3.252.428a5.487,5.487,0,0,0,3.041,2.023c2.177.281,3.743-1.974,4.748-3.933a1.917,1.917,0,0,0,2,1.777,4.036,4.036,0,0,0,1.51-.59,29.7,29.7,0,0,1,14.082-3.638,1.516,1.516,0,0,1,1.159-1.672c1-.2,1.9.667,2.388,1.566a8.423,8.423,0,0,0,1.552,2.613c.766.674,2.247.639,2.549-.33.295-.934-.681-1.735-1.489-2.29s-1.664-1.566-1.117-2.381a72.216,72.216,0,0,1,12.529-2.016,5.332,5.332,0,0,0,2.107-.365,1.638,1.638,0,0,0,.983-1.735,4.789,4.789,0,0,1-4.987-1.882c4.347-.358,8.9-.674,13.077.3l3.659,3.1c-.7.723-1.622,1.4-1.117,2.128a1.557,1.557,0,0,0,1.285.442c.885.014,1.77.035,2.648.035a102.963,102.963,0,0,1,31.436,65.85c-1.475-.056-2.83,1.812-2.641,3.441.225,1.889,1.587,3.406,2.563,5.036a7.691,7.691,0,0,1,.436.822Z" transform="translate(-451.516 -109.948)" fill="#3f3d56"/>
    </g>
    <g id="Lady">
      <path id="Path_59" data-name="Path 59" d="M378.8,615.92s1.342-28.87,28.86-25.514" transform="translate(-314.568 -305.75)" fill="#e6e6e6"/>
      <path id="Path_60" data-name="Path 60" d="M377.951,764.207c-.034-.3-3.282-30.386,9.869-46.306a26.766,26.766,0,0,1,19.33-9.78l.088,1.134a25.67,25.67,0,0,0-18.539,9.368c-12.843,15.546-9.651,45.158-9.618,45.455Z" transform="translate(-314.043 -356.208)" fill="#e6e6e6"/>
      <rect id="Rectangle_5" data-name="Rectangle 5" width="1.145" height="126.486" transform="translate(62.796 280.652)" fill="#e6e6e6"/>
      <circle id="Ellipse_10" data-name="Ellipse 10" cx="9.396" cy="9.396" r="9.396" transform="translate(54.835 262.508)" fill="#c7efdb"/>
      <circle id="Ellipse_11" data-name="Ellipse 11" cx="9.337" cy="9.337" r="9.337" transform="translate(83.814 343.142)" fill="#e6e6e6"/>
      <circle id="Ellipse_12" data-name="Ellipse 12" cx="17.742" cy="17.742" r="17.742" transform="translate(227.289 169.375)" fill="#2f2e41"/>
      <path id="Path_64" data-name="Path 64" d="M674.255,435.847s-5.779,12.8-7.43,13.209,13.622,7.843,13.622,7.843,2.889-15.686,4.128-16.511S674.255,435.847,674.255,435.847Z" transform="translate(-437.693 -239.767)" fill="#ffb9b9"/>
      <path id="Path_65" data-name="Path 65" d="M345.447,522.4l-10.732,30.133,11.558,4.541,19.814-39.214Z" transform="translate(-143.146 -221.472)" fill="#ffb9b9"/>
      <path id="Path_66" data-name="Path 66" d="M685.67,617.555s21.464,30.133,22.7,30.546,9.907-7.017,9.907-7.017-10.732-26.005-14.035-27.243S685.67,617.555,685.67,617.555Z" transform="translate(-445.806 -315.803)" fill="#ffb9b9"/>
      <path id="Path_67" data-name="Path 67" d="M578.662,662.31l-16.924,44.167s1.238,2.477,0,2.89-4.128,7.017-4.128,7.43-2.889.826-2.889,2.064-2.477,11.145-2.477,11.145,4.541,9.907,7.43,7.017,4.128-8.668,4.128-8.668l4.128-10.732s-.413-5.779,2.477-6.6,4.541-11.145,4.541-11.145,4.541-4.541,5.366-5.779,15.273-23.116,14.034-23.528S578.662,662.31,578.662,662.31Z" transform="translate(-388.744 -336.617)" fill="#2f2e41"/>
      <path id="Path_68" data-name="Path 68" d="M721.009,666.238l12.383-8.255s21.464,39.214,21.464,40.04-.825,3.3,0,4.128,7.843,14.035,12.383,15.273,5.366,6.192,1.651,7.017-8.668,2.89-9.907,0a45.442,45.442,0,0,0-2.477-4.953s-4.128,1.238-4.541.413a37.966,37.966,0,0,1-1.238-3.715s-3.3-5.779-3.3-7.843a2.583,2.583,0,0,0-2.064-2.477s-4.541-10.732-7.43-12.383-5.366-9.907-5.366-9.907Z" transform="translate(-460.919 -334.766)" fill="#2f2e41"/>
      <circle id="Ellipse_13" data-name="Ellipse 13" cx="11.971" cy="11.971" r="11.971" transform="translate(233.26 181.633)" fill="#ffb9b9"/>
      <path id="Path_69" data-name="Path 69" d="M621.455,558.454s-17.717,47.065-15.24,47.065,70.994,1.491,73.058-1.811-17.779-36.173-18.6-36.586S621.455,558.454,621.455,558.454Z" transform="translate(-411.724 -292.201)" fill="#2f2e41"/>
      <path id="Path_70" data-name="Path 70" d="M587.9,360.163l-12.383-18.988s3.062-19.918-1.065-16.2-5.434,18.717-5.434,18.717l14.342,21.84Z" transform="translate(-395.917 -192.151)" fill="#ffb9b9"/>
      <path id="Path_71" data-name="Path 71" d="M797.563,439l11.145-.826s13.209-14.035,14.035-9.494-10.732,14.447-10.732,14.447l-15.273,1.651Z" transform="translate(-493.306 -236.314)" fill="#ffb9b9"/>
      <path id="Path_72" data-name="Path 72" d="M627.361,424.363v-4.128s-10.732-7.017-10.319-8.256a1.928,1.928,0,0,0-.826-2.064,9.023,9.023,0,0,1-1.238-2.064c0-.413-1.651-.826-1.651-.826l-10.319-11.971s-5.779-11.558-7.017-11.145-7.843,2.889-7.017,4.541,23.941,37.15,23.941,37.15,1.238,7.843,3.3,7.843S627.361,424.363,627.361,424.363Z" transform="translate(-404.421 -217.551)" fill="#3f3d56"/>
      <path id="Path_73" data-name="Path 73" d="M703.188,455.986s9.081-.413,9.494,0,6.192,0,6.192,0,15.686-3.715,16.924-4.953,21.877-6.6,22.7-4.128,2.889,7.43.826,8.256-57.789,14.86-57.789,14.86Z" transform="translate(-452.591 -244.219)" fill="#3f3d56"/>
      <circle id="Ellipse_14" data-name="Ellipse 14" cx="7.342" cy="7.342" r="7.342" transform="translate(231.483 161.102)" fill="#2f2e41"/>
      <path id="Path_74" data-name="Path 74" d="M665.608,375.125a7.342,7.342,0,0,1,6.576-7.3,7.435,7.435,0,0,0-.764-.04,7.342,7.342,0,1,0,.765,14.643A7.342,7.342,0,0,1,665.608,375.125Z" transform="translate(-436.572 -210.658)" fill="#2f2e41"/>
      <ellipse id="Ellipse_15" data-name="Ellipse 15" cx="12.236" cy="7.342" rx="12.236" ry="7.342" transform="translate(234.859 176.014)" fill="#2f2e41"/>
      <path id="Path_75" data-name="Path 75" d="M652.3,446.717s-3.715,2.889-4.541,3.3-5.779-3.715-6.6-3.715S629.6,458.688,629.6,458.688s1.995,2.3,0,14.034c-.748,4.4-2.232,23.221-2.232,25.7s-8.087,8.563-.657,13.929,42.929,11.145,43.342,7.843-4.128-11.971-2.064-16.1,2.064-19.4,2.064-19.4l2.477-16.1,2.064-12.8s-9.7-2.683-10.526-2.683S659.523,458.894,652.3,446.717Z" transform="translate(-419.247 -244.239)" fill="#3f3d56"/>
      <rect id="Rectangle_6" data-name="Rectangle 6" width="380.03" height="1.282" transform="translate(0 407.081)" fill="#3f3d56"/>
    </g>
  </g>
</svg>
