<svg xmlns="http://www.w3.org/2000/svg" width="380.03" height="276.005" viewBox="0 0 380.03 276.005"><g transform="translate(0 -132.358)"><path d="M378.8,615.92s1.342-28.87,28.86-25.514" transform="translate(-314.568 -305.75)" fill="#e6e6e6"/><path d="M377.951,764.207c-.034-.3-3.282-30.386,9.869-46.306a26.766,26.766,0,0,1,19.33-9.78l.088,1.134a25.67,25.67,0,0,0-18.539,9.368c-12.843,15.546-9.651,45.158-9.618,45.455Z" transform="translate(-314.043 -356.208)" fill="#e6e6e6"/><rect width="1.145" height="126.486" transform="translate(62.796 280.652)" fill="#e6e6e6"/><circle cx="9.396" cy="9.396" r="9.396" transform="translate(54.835 262.508)" fill="#c7efdb"/><circle cx="9.337" cy="9.337" r="9.337" transform="translate(83.814 343.142)" fill="#e6e6e6"/><circle cx="17.742" cy="17.742" r="17.742" transform="translate(227.289 169.375)" fill="#2f2e41"/><path d="M674.255,435.847s-5.779,12.8-7.43,13.209,13.622,7.843,13.622,7.843,2.889-15.686,4.128-16.511S674.255,435.847,674.255,435.847Z" transform="translate(-437.693 -239.766)" fill="#ffb9b9"/><path d="M345.447,522.4l-10.732,30.133,11.558,4.541,19.814-39.214Z" transform="translate(-143.146 -221.472)" fill="#ffb9b9"/><path d="M685.67,617.555s21.464,30.133,22.7,30.546,9.907-7.017,9.907-7.017-10.732-26.005-14.035-27.243S685.67,617.555,685.67,617.555Z" transform="translate(-445.806 -315.803)" fill="#ffb9b9"/><path d="M578.662,662.31l-16.924,44.167s1.238,2.477,0,2.89-4.128,7.017-4.128,7.43-2.889.826-2.889,2.064-2.477,11.145-2.477,11.145,4.541,9.907,7.43,7.017,4.128-8.668,4.128-8.668l4.128-10.732s-.413-5.779,2.477-6.6,4.541-11.145,4.541-11.145,4.541-4.541,5.366-5.779,15.273-23.116,14.034-23.528S578.662,662.31,578.662,662.31Z" transform="translate(-388.744 -336.617)" fill="#2f2e41"/><path d="M721.009,666.238l12.383-8.255s21.464,39.214,21.464,40.04-.825,3.3,0,4.128,7.843,14.035,12.383,15.273,5.366,6.192,1.651,7.017-8.668,2.89-9.907,0a45.442,45.442,0,0,0-2.477-4.953s-4.128,1.238-4.541.413a37.966,37.966,0,0,1-1.238-3.715s-3.3-5.779-3.3-7.843a2.583,2.583,0,0,0-2.064-2.477s-4.541-10.732-7.43-12.383-5.366-9.907-5.366-9.907Z" transform="translate(-460.919 -334.766)" fill="#2f2e41"/><circle cx="11.971" cy="11.971" r="11.971" transform="translate(233.26 181.633)" fill="#ffb9b9"/><path d="M621.455,558.454s-17.717,47.065-15.24,47.065,70.994,1.491,73.058-1.811-17.779-36.173-18.6-36.586S621.455,558.454,621.455,558.454Z" transform="translate(-411.724 -292.201)" fill="#2f2e41"/><path d="M587.9,360.163l-12.383-18.988s3.062-19.918-1.065-16.2-5.434,18.717-5.434,18.717l14.342,21.84Z" transform="translate(-395.917 -192.151)" fill="#ffb9b9"/><path d="M797.563,439l11.145-.826s13.209-14.035,14.035-9.494-10.732,14.447-10.732,14.447l-15.273,1.651Z" transform="translate(-493.306 -236.315)" fill="#ffb9b9"/><path d="M627.361,424.363v-4.128s-10.732-7.017-10.319-8.256a1.928,1.928,0,0,0-.826-2.064,9.023,9.023,0,0,1-1.238-2.064c0-.413-1.651-.826-1.651-.826l-10.319-11.971s-5.779-11.558-7.017-11.145-7.843,2.889-7.017,4.541,23.941,37.15,23.941,37.15,1.238,7.843,3.3,7.843S627.361,424.363,627.361,424.363Z" transform="translate(-404.421 -217.551)" fill="#3f3d56"/><path d="M703.188,455.986s9.081-.413,9.494,0,6.192,0,6.192,0,15.686-3.715,16.924-4.953,21.877-6.6,22.7-4.128,2.889,7.43.826,8.256-57.789,14.86-57.789,14.86Z" transform="translate(-452.591 -244.219)" fill="#3f3d56"/><circle cx="7.342" cy="7.342" r="7.342" transform="translate(231.483 161.102)" fill="#2f2e41"/><path d="M665.608,375.125a7.342,7.342,0,0,1,6.576-7.3,7.435,7.435,0,0,0-.764-.04,7.342,7.342,0,1,0,.765,14.643A7.342,7.342,0,0,1,665.608,375.125Z" transform="translate(-436.572 -210.658)" fill="#2f2e41"/><ellipse cx="12.236" cy="7.342" rx="12.236" ry="7.342" transform="translate(234.859 176.014)" fill="#2f2e41"/><path d="M652.3,446.717s-3.715,2.889-4.541,3.3-5.779-3.715-6.6-3.715S629.6,458.688,629.6,458.688s1.995,2.3,0,14.034c-.748,4.4-2.232,23.221-2.232,25.7s-8.087,8.563-.657,13.929,42.929,11.145,43.342,7.843-4.128-11.971-2.064-16.1,2.064-19.4,2.064-19.4l2.477-16.1,2.064-12.8s-9.7-2.683-10.526-2.683S659.523,458.894,652.3,446.717Z" transform="translate(-419.247 -244.239)" fill="#3f3d56"/><rect width="380.03" height="1.282" transform="translate(0 407.081)" fill="#3f3d56"/></g></svg>