<svg xmlns="http://www.w3.org/2000/svg" width="647" height="532.22" viewBox="0 0 647 532.22"><path d="M905.695,577.764a314.542,314.542,0,0,1-50.484,72.3c-.465.5-.934.993-1.407,1.491l-49.56-23.462c.3-.5.636-1.069.993-1.687,21.289-36.425,149.8-258.623,145.741-308.947C951.45,321.609,966.682,458.872,905.695,577.764Z" transform="translate(-334.256 -146.409)" fill="#e6e6e6"/><path d="M873.142,728.315c-.694.394-1.405.78-2.121,1.153l-37.179-17.6c.52-.369,1.125-.8,1.821-1.3,11.39-8.178,45.26-32.715,78.4-59.085,35.616-28.338,70.4-58.786,75.562-73.32C988.577,581.5,955.979,682.807,873.142,728.315Z" transform="translate(-342.626 -220.133)" fill="#e6e6e6"/><ellipse cx="191.497" cy="18.96" rx="191.497" ry="18.96" transform="translate(0 494.3)" fill="#e6e6e6"/><circle cx="57.377" cy="57.377" r="57.377" transform="translate(29.264 407.416)" fill="#c7efdb"/><path d="M280.654,693.448H234.687a7.67,7.67,0,0,0-7.661,7.661v32.833a7.67,7.67,0,0,0,7.661,7.661h45.967a7.67,7.67,0,0,0,7.661-7.661V701.109a7.67,7.67,0,0,0-7.661-7.661Zm0,4.378a3.27,3.27,0,0,1,.813.106L257.676,716.91l-23.652-19.017a3.281,3.281,0,0,1,.663-.067Zm0,39.4H234.687a3.287,3.287,0,0,1-3.283-3.283V701.4l24.9,20.017a2.189,2.189,0,0,0,2.737.005l24.9-19.865v32.381a3.287,3.287,0,0,1-3.283,3.283Z" transform="translate(-171.03 -252.733)" fill="#fff"/><path d="M316.964,425.111l-46.883,3.014-12.575-44.511,41.207-9.657Z" transform="translate(-72.818 -110.749)" fill="#2f2e41"/><path d="M549.911,597.727l12.838.106a8.932,8.932,0,0,0,8.892-10.349h0a8.932,8.932,0,0,0-12.771-6.592l-12.107,5.974-41.41,9.235-17.741-18.138-10.19,16.784,23.939,18.5Z" transform="translate(-241.837 -225.075)" fill="#ffb8b8"/><path d="M539.355,744.95l-15.126,2.909C513.9,715.291,502.7,684.449,502.7,660.6c-14.621,16.273-32.753,25.583-54.1,28.506l2.327-36.069,17.453-9.308L495.091,631.4a20.284,20.284,0,0,1,7.434-1.839h0a20.283,20.283,0,0,1,21.095,17.051Z" transform="translate(-233.687 -234.657)" fill="#ffb8b8"/><path d="M561.843,770.175s1.45-.614,7.243,6.965c0,0,18.5,3.444,15.438,11.785s-26.843,8.079-29.1,6.8-20.249-1.248-19.006-6.915,8.409-12,8.409-12,3.295,6.676,8.416,6.7c6.857.038,9.184-5.78,8.021-11.6C561.25,771.866,561.887,770.21,561.843,770.175Z" transform="translate(-258.502 -274.426)" fill="#2f2e41"/><path d="M398.018,730.726s2.266,6.195-7.937,9.927c0,0-10.008,18.948-18.042,12.8s.3-31.924,2.454-33.95,8.213-21.6,13.954-18.326,10.2,13.207,10.2,13.207-18.486,5.936-9.741,19.677C388.909,734.058,392.721,734.316,398.018,730.726Z" transform="translate(-211.068 -254.814)" fill="#2f2e41"/><circle cx="19.05" cy="19.05" r="19.05" transform="translate(189.042 268.509)" fill="#ffb8b8"/><path d="M446.157,539.6H413l-6.981-20.362c12.1-3.694,9.276-14.185,6.981-24.434h33.16c-6.429,12.822-14.415,30.968,1.164,34.324Z" transform="translate(-221.645 -201.558)" fill="#ffb8b8"/><path d="M443.44,688.959l-6.029,4.582a18.67,18.67,0,0,1-18.405,2.4h0c-17.267-12.943-31.35-9.064-42.468,10.472-13.336-15.051-14.811-36.85-2.909-59.339l66.03,1.454,13.38-4.072Z" transform="translate(-210.201 -238.878)" fill="#2f2e41"/><path d="M426.1,771.317h0a16.86,16.86,0,0,1-19.953-8.407c-5.934-5.227-10.941-12.71-15.283-21.81a168.788,168.788,0,0,1-8.009-20.572,17.466,17.466,0,0,1,11.371-22.2q.417-.124.844-.234a24.989,24.989,0,0,1,29.572,16.158l12.409,35.365a16.86,16.86,0,0,1-10.951,21.7Z" transform="translate(-214.848 -253.832)" fill="#ffb8b8"/><path d="M391.415,752.741s14.544,16.289,17.453,25.6" transform="translate(-217.516 -269.5)" opacity="0.2"/><path d="M310.585,619.457l-4.868,11.88a8.932,8.932,0,0,0,6.305,12.1h0a8.932,8.932,0,0,0,10.865-9.408l-1.049-13.46,6.81-41.877,23.43-9.732-11.8-15.7-26.065,15.355Z" transform="translate(-193.094 -218.091)" fill="#ffb8b8"/><path d="M437.8,613.01c-16.715,28.077-43.6,23.149-72.138,1.164,12.037-9,4.654-34.906-5.818-36.651-10.828-1.8-12.13-23.949-16.289-34.906L394.171,524l13.671,10.763,13.671-3.2,5.6,1.989a18.949,18.949,0,0,1,12.61,17.6C428.243,567.744,419.741,585.445,437.8,613.01Z" transform="translate(-203.983 -209.816)" fill="#c7efdb"/><path d="M475.971,594.68s-2.576-13.283-11.033-9.114S455.9,578.1,455.9,578.1l6.69-38.687L489.933,568.5Z" transform="translate(-235.751 -214.174)" fill="#c7efdb"/><path d="M442.115,450.339s9.654,3.62,9.789,16.473a23.2,23.2,0,0,1-.914,6.391c-.649,2.356-1.2,7.476,2.965,14.344a132.454,132.454,0,0,1,7.35,13.822h0l-10.915.956-1.643-18.095a89.74,89.74,0,0,0-6.185-25.547l-.069-.17s-5.08,8.652-14.587,8.3l3.521-3.27s-11.95,4.38-18.434,5.223a4.1,4.1,0,0,0-2.53,6.8l.115.126c3.924,4.225,11.72,14.034,6.69,21.328s-1.031,9.482-1.031,9.482l-7.319-4.351-3.32-2.163-.1,2.716-17.58-2.691s-4.728-.855,5.885-12.022c0,0,2.856-4.383,1.822-8.293a19.517,19.517,0,0,1-.4-9.148C397.973,457.9,407.863,432.924,442.115,450.339Z" transform="translate(-216.23 -187.297)" fill="#2f2e41"/><path d="M845.61,203.008h-2.869V124.44A45.472,45.472,0,0,0,797.27,78.969H630.813a45.472,45.472,0,0,0-45.472,45.472V555.469a45.472,45.472,0,0,0,45.472,45.472H797.269a45.472,45.472,0,0,0,45.472-45.472V258.934h2.869Z" transform="translate(-272.355 -78.969)" fill="#3f3d56"/><path d="M804.049,95.462H782.321a16.134,16.134,0,0,1-14.938,22.229H672.023a16.134,16.134,0,0,1-14.937-22.227h-20.3a33.959,33.959,0,0,0-33.959,33.959V559.817a33.959,33.959,0,0,0,33.959,33.959H804.043A33.959,33.959,0,0,0,838,559.817h0V129.42a33.959,33.959,0,0,0-33.959-33.959h.006Z" transform="translate(-277.3 -83.633)" fill="#fff"/><circle cx="18.648" cy="18.648" r="18.648" transform="translate(424.758 448.796)" fill="#e6e6e6"/><path d="M660.445,490.267a3.681,3.681,0,0,0,0,7.3H811.163a3.681,3.681,0,0,0,0-7.3Z" transform="translate(-292.689 -240.631)" fill="#e6e6e6"/><path d="M660.445,610.267a3.681,3.681,0,0,0,0,7.3H811.163a3.681,3.681,0,0,0,0-7.3Z" transform="translate(-292.689 -274.565)" fill="#e6e6e6"/><path d="M660.445,520.794a3.681,3.681,0,0,0,0,7.3H725.3a3.681,3.681,0,0,0,0-7.3Z" transform="translate(-292.689 -249.264)" fill="#e6e6e6"/><path d="M660.445,549.893a3.681,3.681,0,0,0,0,7.3H811.163a3.681,3.681,0,0,0,0-7.3Z" transform="translate(-292.689 -257.492)" fill="#e6e6e6"/><path d="M660.445,580.42a3.681,3.681,0,0,0,0,7.3H725.3a3.681,3.681,0,0,0,0-7.3Z" transform="translate(-292.689 -266.125)" fill="#e6e6e6"/><path d="M782.043,375.546a2.654,2.654,0,0,0,0-5.308H728.2a2.654,2.654,0,1,0,0,5.308Z" transform="translate(-312.003 -161.335)" fill="#fff"/><path d="M86.365,1.536a2.46,2.46,0,0,0-4.475-.19,27.116,27.116,0,0,1-23.7,13.836H45.536A30.368,30.368,0,0,0,15.175,45.543a31.266,31.266,0,0,0,.237,3.242c10.089-7.226,24.652-13.362,45.3-13.362a2.53,2.53,0,0,1,0,5.06C20.963,40.483,4.107,64.85.375,74.006a5.067,5.067,0,0,0,9.377,3.843c.237-.569,3.3-7.574,11.369-14.326A30.293,30.293,0,0,0,48.778,75.729c24.826-1.8,42.3-24.067,42.3-51.328A57.5,57.5,0,0,0,86.365,1.536Z" transform="translate(397.914 114.037)" fill="#c7efdb"/></svg>