<svg xmlns="http://www.w3.org/2000/svg" width="538.316" height="248.701" viewBox="0 0 538.316 248.701">
  <g id="undraw_true_love_cy8x" transform="translate(0 0.081)">
    <g id="Heart">
      <path id="Path_76" data-name="Path 76" d="M345.868,241.23a40.01,40.01,0,0,0-56.583,0l-.011.011A40,40,0,1,0,232.711,297.8l-.008.008,56.583,56.583,56.583-56.583a40.01,40.01,0,0,0,0-56.583Z" transform="translate(-181.594 -219.148)" fill="#ff6584"/>
    </g>
    <g id="Mountain">
      <rect id="Rectangle_8" data-name="Rectangle 8" width="1.56" height="8.423" transform="matrix(0.894, 0.448, -0.448, 0.894, 151.429, 4.194)" fill="#fff"/>
      <path id="Path_77" data-name="Path 77" d="M515.879,460.548H219.03a6.053,6.053,0,0,1-1.109-.088l140.4-243.186a9.83,9.83,0,0,1,17.112,0l94.223,163.2,4.514,7.809Z" transform="translate(-180.384 -212.365)" fill="#c7efdb"/>
      <path id="Path_78" data-name="Path 78" d="M487.593,357.435H386.241l49.754-72.268,3.58-5.206,1.79-2.6,4.514,7.809Z" transform="translate(-152.097 -109.252)" opacity="0.2"/>
      <path id="Path_79" data-name="Path 79" d="M815.3,506.652H558.547L608.3,434.384l3.58-5.206L676.714,335c4.25-6.172,14.476-6.557,19.473-1.164A11.719,11.719,0,0,1,697.12,335Z" transform="translate(-314.519 -258.744)" fill="#3f3d56"/>
      <rect id="Rectangle_9" data-name="Rectangle 9" width="538.316" height="1.358" transform="translate(0 247.262)" fill="#3f3d56"/>
      <circle id="Ellipse_28" data-name="Ellipse 28" cx="4.467" cy="4.467" r="4.467" transform="translate(317.487 217.6)" fill="#3f3d56"/>
      <path id="Path_84" data-name="Path 84" d="M1000.286,489.826c0,25.34-15.064,34.188-33.647,34.188s-33.647-8.848-33.647-34.188,33.647-57.577,33.647-57.577S1000.286,464.485,1000.286,489.826Z" transform="translate(-461.97 -298.984)" fill="#e6e6e6"/>
      <path id="Path_85" data-name="Path 85" d="M821.689,307.773l.344-21.208,14.341-26.237-14.287,22.91.155-9.536,9.884-18.982-9.843,16.459h0l.279-17.15,10.584-15.112-10.54,12.415.174-31.448-1.094,41.632.09-1.717-10.761-16.471L821.6,263.095l-1,19.154-.03-.509-12.4-17.333,12.367,19.13-.125,2.4-.022.036.01.2-2.544,48.6h3.4l.407-25.1L834,290.577Z" transform="translate(-318.247 -86.62)" fill="#3f3d56"/>
    </g>
  </g>
</svg>
