<svg xmlns="http://www.w3.org/2000/svg" xmlns:xlink="http://www.w3.org/1999/xlink" width="1357.272" height="711.419" viewBox="0 0 1357.272 711.419"><defs><linearGradient id="a" x1="0.5" y1="1" x2="0.5" gradientUnits="objectBoundingBox"><stop offset="0" stop-color="gray" stop-opacity="0.251"/><stop offset="0.54" stop-color="gray" stop-opacity="0.122"/><stop offset="1" stop-color="gray" stop-opacity="0.102"/></linearGradient><linearGradient id="b" x1="0.5" x2="0.5" y2="0" xlink:href="#a"/><linearGradient id="c" x1="0.5" x2="0.5" y2="0" xlink:href="#a"/><linearGradient id="d" x1="1.096" x2="1.096" y2="0" xlink:href="#a"/></defs><g transform="translate(141.596 -0.004)"><path d="M1460.021,8052.563c-172.389-62.554-229.041-179.053-361.119-153.81s-254.175,36.722-357.422,55.662S355.379,8119.5,572.1,8139.252s245.7,31.767,286.9,80.921,135.083,115.449,207.844,86.732,208.3-19.4,346.091-9.955,221.108,74.885,254.643,9.955,251.529-84.183,159.711-149.456S1632.41,8115.117,1460.021,8052.563Z" transform="translate(-634.013 -7623.875)" fill="#c7efdb"/><path d="M43.44,426.65c8.837,34.439,27.546,64.209,57.115,78.637,61.475,29.991,200.03,14.522,303.455-3.23,53.512-9.185,100.513-34.513,134.677-70.2Z" transform="translate(-37.418 -227.079)" fill="#c7efdb" opacity="0.1"/><path d="M600.621,57.61H543.874a4.492,4.492,0,1,1,0-8.945h9.819a4.72,4.72,0,0,1-4.909-4.472,4.713,4.713,0,0,1,4.909-4.467h-7.006a4.72,4.72,0,0,1-4.909-4.472,4.717,4.717,0,0,1,4.909-4.472H576.3a83.912,83.912,0,0,0-23.1-5.8c-80.763-9.46-109.6-3.206-119.787,3.23A118.859,118.859,0,0,1,391.906,44.8c-49.83,9.372-143.018,20.649-227.483-3.613-41.98-12.052-73.178,8.346-91.883,42.372H610.474c-.7-9.9-2.8-19.038-6.662-27.036A5.145,5.145,0,0,1,600.621,57.61Z" transform="translate(-52.232 -20.14)" fill="#c7efdb" opacity="0.1"/><path d="M32.366,280.23a208.126,208.126,0,0,0,2.2,60.085l498.237,16.613a212.649,212.649,0,0,0,34.616-48.111Zm197.045,42.863h-9.819a4.49,4.49,0,1,1,0,8.94H162.87a4.49,4.49,0,1,1,0-8.94h9.819a4.492,4.492,0,1,1,0-8.945h-7.015a4.49,4.49,0,1,1,0-8.94h56.747a4.49,4.49,0,1,1,0,8.94h6.991a4.492,4.492,0,1,1,0,8.945Z" transform="translate(-31.16 -152.542)" fill="#c7efdb" opacity="0.1"/><path d="M590.767,149.94,46.814,162A182.7,182.7,0,0,0,33.78,213.216H581.233a195.881,195.881,0,0,0,7.9-32.642A141.4,141.4,0,0,0,590.767,149.94ZM144.225,189.465h-9.819a4.492,4.492,0,1,1,0,8.945H77.664a4.492,4.492,0,1,1,0-8.945h9.819a4.49,4.49,0,1,1,0-8.94H80.468a4.492,4.492,0,1,1,0-8.945h56.747a4.492,4.492,0,1,1,0,8.945h7.011a4.49,4.49,0,1,1,0,8.94Z" transform="translate(-32.5 -86.215)" fill="#c7efdb" opacity="0.1"/><ellipse cx="36.933" cy="8.292" rx="36.933" ry="8.292" transform="translate(289.206 359.88)" fill="#c7efdb" opacity="0.1"/><ellipse cx="66.629" cy="5.469" rx="66.629" ry="5.469" transform="translate(345.33 389.036)" fill="#c7efdb" opacity="0.1"/><ellipse cx="66.629" cy="8.292" rx="66.629" ry="8.292" transform="translate(77.806 377.921)" fill="#c7efdb" opacity="0.1"/><ellipse cx="50.134" cy="8.292" rx="50.134" ry="8.292" transform="translate(195.89 336.413)" fill="#c7efdb" opacity="0.1"/><path d="M508.3,228.25c-1.06-7.138-7.546-23.8-7.546-23.8h0q-.169-.736-.383-1.473C495.771,187.173,489.4,185.8,489.4,185.8L466.6,180.889a1.768,1.768,0,0,1,.491.457,3.166,3.166,0,0,0-.358.054,8.935,8.935,0,0,1-2-4.32c-.044-.236-.083-.491-.113-.731a16.044,16.044,0,0,0-1.306-24.12c-.241-.187-.491-.368-.731-.54a3.636,3.636,0,0,0,.3-4.325c-1.8-3.731-5.7-6.092-9.72-7.246a16.479,16.479,0,0,0-9.436-.2,34.086,34.086,0,0,0-4.939,2.293c-3.029,1.512-6.382,2.71-8.645,5.2a2.537,2.537,0,0,0-.864,2.086,5.632,5.632,0,0,0,.859,1.517,4.578,4.578,0,0,1,.044,3.8,36.821,36.821,0,0,0-1.409,3.653,3.818,3.818,0,0,0,.761,3.667,16.154,16.154,0,0,0,1.424.982,7.469,7.469,0,0,1,1.36,1.527q1.355,1.816,2.7,3.648a37.577,37.577,0,0,1,3.383,5.14,25.053,25.053,0,0,0,2.091,3.927,5.824,5.824,0,0,0,.9.943l-.265-.1a4.09,4.09,0,0,0,3,1.222h.137a.825.825,0,0,0,.55-.226v.491c.054,1.753.044,3.618-.079,5.371l-.211-.108a1.841,1.841,0,0,0-1.964.206l-21,16.849s-4.566,6.245-3.927,17.026l-3.682,16.166s-4.6,13.717-1.06,23.511,5.592,15.4,5.592,15.4,1.414,11.129,3.54,12.038,3.044,1.4,3.044,1.4l.422,2.661h0s.142.26.393.7c1.546,2.69,7.276,12.185,10.6,11.169a42.561,42.561,0,0,1,.54,7.8l3.294,22.116s2.3,6.014,2.155,9.166,2.68,7.644,2.68,7.644a14.605,14.605,0,0,0-1.414,10.285c1.345,5.891,3.044,33.03,3.044,33.03l2.455,6.578-.069,7.713a7.364,7.364,0,0,1-1.522,3.437c-1.591,1.728-1.473,3.726-5.307,6.088s-6.264,3.255-6.264,6.382a8.2,8.2,0,0,1-.118,1.3c-.353,2.3-1.041,3.545,6.009,4.212a18.587,18.587,0,0,0,13.8-4.615s1.218-2.209,6.952-3.1c0,0,1.964-.1,2.067-1.836.039-.6.029-1.743,0-3-.093-2.4-.324-5.2-.628-5.341-.383-.172-1.051-2.587-1.281-3.461h1.6s1.473-11.129,0-18.336a29.747,29.747,0,0,1-.142-12.317l-.285-19.033s-1.964-2.1-.422-5.813,0-22.043,0-22.043.569-6.578,2.194-8.12.079-9.637,0-10.059l2.9,9.716s1.272,19.313,3.967,22.809l.776,8.748s5.518,8.051,4.458,12.386,1.134,20.015,1.134,20.015v16.029s-2.479,6.436.982,8.748l1.473-.059c-.491.457-.869,1.144-1.443,1.738-.663.682-1.041,3.279-1.252,5.513-.177,1.89-.236,3.515-.236,3.515a5.788,5.788,0,0,0,4.247,2.518c2.774.162,11.915,7.114,11.915,7.114s9.028,0,11.365-.491l.137-.034a3.068,3.068,0,0,0,1.762-1.438,3.682,3.682,0,0,0,.422-2.646c-.29-1.38-1.384-2.892-3.81-4.178-6.034-3.181-6.932-6.161-6.932-6.161l-3.962-5.945h.565a25.431,25.431,0,0,1,3.962-13.368l-.28-31.14s1.767-10.707-1.272-16.52c0,0-.25-6.156,1.782-8.046s-2.705-20.992-2.705-20.992-.982-10.256-2.136-19.613h0c4.777,4.531,9.73-11.782,10.565-14.684h.123l-.054-.211c.034-.137.054-.206.054-.206h0s-1.06-3.77-.285-3,2.69-2.1,2.69-2.1-.285-15.607,3.044-23.471S508.3,228.25,508.3,228.25Zm-14.237,9.932.025-.044c.491,9.529-.093,29.863-.093,29.863s-.658,2.607-1.36,5.675l-.491-19.318h0l-.491-18.2Zm-60.93-6.569s2.406,30.089,0,34.429a22.733,22.733,0,0,0-1.733,5.945c-.8-2.086-2.479-6.986-1.875-9.583.781-3.358-1.556-12.18-1.556-12.386a20.929,20.929,0,0,1,1.473-8.5c1.684-3.594.579-5.15.579-5.15S431.435,230.474,433.133,231.612Z" transform="translate(-224.813 -80.806)" fill="url(#a)"/><path d="M454.265,449.854c-2.1,9.215-10.432-4.718-12.332-8.061-.245-.437-.383-.692-.383-.692l.9-4.237,4.777-1.964a13.344,13.344,0,0,1,2.14,1.394A12.9,12.9,0,0,1,454.265,449.854Z" transform="translate(-240.083 -231.279)" fill="#d38884"/><path d="M584.935,432.2a.644.644,0,0,1-.054.206,1.046,1.046,0,0,1-.064.221c-.82,2.877-5.68,19.073-10.373,14.576-5.135-4.909-2.641-16.26-2.641-16.26h.034l10.8-1.1,2.14,2.2h0Z" transform="translate(-306.082 -228.703)" fill="#d38884"/><path d="M517.945,513.2l.275,30.929a25.366,25.366,0,0,0-3.888,13.255l-13.962.55c-3.407-2.293-.982-8.68-.982-8.68V533.325s-2.155-15.558-1.114-19.868-4.374-12.273-4.374-12.273l-.766-8.685c-2.641-3.471-3.893-22.642-3.893-22.642l-2.833-9.681c.079.417,1.551,8.5,0,9.986s-2.155,8.056-2.155,8.056,1.527,18.2,0,21.881.412,5.768.412,5.768l.28,18.9a29.549,29.549,0,0,0,.137,12.224c1.458,7.153,0,18.2,0,18.2H470.1l.069-7.713-2.425-6.529s-1.669-26.952-2.99-32.789a14.649,14.649,0,0,1,1.384-10.211s-2.774-4.443-2.636-7.57-2.141-9.092-2.141-9.092l-3.23-21.95a42.642,42.642,0,0,0-1.6-12.5c-1.875-6.254-4.654-14.453-4.654-14.453l3.137.28,15.828,1.409s38.484-2.587,40.207-.437a7.222,7.222,0,0,1,.727,2.244c1.728,7.762,4.011,32.078,4.011,32.078s4.654,18.965,2.656,20.84-1.753,7.983-1.753,7.983C519.688,502.544,517.945,513.2,517.945,513.2Z" transform="translate(-245.342 -229.996)" fill="#444053"/><path d="M490.636,691.174c-.108,1.723-2.028,1.826-2.028,1.826-5.626.884-6.824,3.073-6.824,3.073a18.07,18.07,0,0,1-13.545,4.585c-6.922-.668-6.25-1.9-5.891-4.183a8.649,8.649,0,0,0,.113-1.286c0-3.127,2.4-4.016,6.146-6.382s3.648-4.325,5.209-6.043,1.723-5.052,1.723-5.052c1.767-3.078,6.25.491,6.25.491.211,1.09,6.873.938,6.873.938s.884,3.544,1.34,3.751c.3.138.525,2.916.614,5.3C490.665,689.446,490.675,690.58,490.636,691.174Z" transform="translate(-250.567 -354.25)" fill="#b07473"/><path d="M490.636,703.35c-.108,1.723-2.028,1.826-2.028,1.826-5.626.884-6.824,3.073-6.824,3.073a18.07,18.07,0,0,1-13.545,4.585c-6.922-.668-6.25-1.9-5.891-4.183,3.093.766,9,1.836,12.455-.039,4.8-2.6,8.238-4.418,8.238-4.418l7.58-3.815C490.665,701.622,490.675,702.756,490.636,703.35Z" transform="translate(-250.567 -366.426)" opacity="0.1"/><path d="M576.632,702.509a3,3,0,0,1-1.728,1.429l-.133.034c-2.293.491-11.154.491-11.154.491s-8.959-6.927-11.669-7.084a5.7,5.7,0,0,1-4.168-2.5s.054-1.61.226-3.486c.211-2.219.579-4.8,1.232-5.474,1.2-1.252,1.473-2.946,4.168-1.875,0,0,3.849-6.785,8.385-1.542l4.693,7.119s.884,2.946,6.829,6.142c2.376,1.276,3.437,2.779,3.736,4.148A3.658,3.658,0,0,1,576.632,702.509Z" transform="translate(-294.161 -356.311)" fill="#b07473"/><path d="M576.632,713.79c-.53.447-1.114.928-1.728,1.429l-.133.034c-2.293.491-11.154.491-11.154.491s-8.959-6.927-11.669-7.084a5.7,5.7,0,0,1-4.168-2.5s.054-1.61.226-3.486c2.759.825,6.937,2.283,8.056,3.854,1.718,2.391,6.937,5.729,6.937,5.729s9.73-.938,14.05-1.065A3.658,3.658,0,0,1,576.632,713.79Z" transform="translate(-294.161 -367.592)" opacity="0.1"/><path d="M502.512,214.634,489.7,228.179s-15.528-1.144-12.818-5.729c1.38-2.337,1.6-7.227,1.473-11.478-.113-4.1-.535-7.59-.535-7.59s21.778-10.84,20.128-.732a16.638,16.638,0,0,0-.059,5.768C498.816,213.524,502.512,214.634,502.512,214.634Z" transform="translate(-257.907 -110.854)" fill="#d38884"/><path d="M499.229,202.65a16.638,16.638,0,0,0-.059,5.768,15.985,15.985,0,0,1-11.4,4.757c-2.946,0-6.132-2.42-8.513-3.819-.113-4.1-.137-5.975-.137-5.975S500.9,192.542,499.229,202.65Z" transform="translate(-259.209 -110.854)" opacity="0.1"/><path d="M496.136,177.534A16.049,16.049,0,1,1,490.1,165,16.049,16.049,0,0,1,496.136,177.534Z" transform="translate(-251.531 -92.096)" fill="#d38884"/><path d="M514.3,436.155c-4,9.509-29.7,9.706-29.7,9.706V435.493l-1.556-.1c.673,2.97-.943,10.211-.943,10.211-20.315,2.867-25.268-8.709-25.268-8.709l.707-3.962,15.828,1.409s38.484-2.587,40.207-.437a7.224,7.224,0,0,1,.727,2.253Z" transform="translate(-247.862 -230.276)" opacity="0.1"/><path d="M484.6,340.072V329.7l-1.556-.1c.673,2.946-.943,10.211-.943,10.211-15.288,2.155-21.876-3.864-24.2-6.976a9.5,9.5,0,0,1-1.07-1.728l6.205-34.905,1.473-51.371,2.224-9.014.515-4.325v-.049h.054l1.581.677,9.46,4.089,10.747-8.115.157-.113.535-.407.889.712,2.209,1.772,7.084,45.75s12.273,35.224,14.571,49.442c.093.569.167,1.1.226,1.6C516.277,339.832,484.6,340.072,484.6,340.072Z" transform="translate(-247.862 -125.739)" fill="#c7efdb"/><circle cx="0.913" cy="0.913" r="0.913" transform="translate(230.717 110.575)" fill="#67647e"/><circle cx="0.913" cy="0.913" r="0.913" transform="translate(231.139 118.911)" fill="#67647e"/><circle cx="0.913" cy="0.913" r="0.913" transform="translate(232.052 132.406)" fill="#67647e"/><circle cx="0.913" cy="0.913" r="0.913" transform="translate(233.559 146.943)" fill="#67647e"/><circle cx="0.913" cy="0.913" r="0.913" transform="translate(234.472 160.591)" fill="#67647e"/><circle cx="0.913" cy="0.913" r="0.913" transform="translate(235.386 175.127)" fill="#67647e"/><circle cx="0.913" cy="0.913" r="0.913" transform="translate(235.022 189.507)" fill="#67647e"/><path d="M467.851,305.146s-1.021,13.368-2.9,17.256-2.71,14.8-2.71,14.8l-4.355-.491a9.5,9.5,0,0,1-1.07-1.728l6.205-34.905L464.5,248.7l2.229-9.018.515-4.325.059-.025a1.758,1.758,0,0,1,1.551.025l.206.108q-.093.265-.177.545c-1.7,5.317-2.332,15.116-2.332,15.116s2.455,17.924,2.71,26.26S467.851,305.146,467.851,305.146Z" transform="translate(-247.856 -129.601)" opacity="0.1"/><path d="M449.371,436.309a2.511,2.511,0,0,1-.167.324c-1.689,2.852-5.97,4.664-7.271,5.16-.245-.437-.383-.692-.383-.692l.9-4.237,4.777-1.964a13.344,13.344,0,0,1,2.14,1.409Z" transform="translate(-240.083 -231.279)" opacity="0.1"/><path d="M423.616,298.81l-3.962,2.361-3.608,16.049s-4.517,13.614-1.046,23.339,5.489,15.293,5.489,15.293,1.389,11.046,3.476,11.949,2.985,1.389,2.985,1.389l.417,2.641s5.656-1.92,7.654-5.3-1.473-11.782-1.473-11.782-2.985-7.158-2.219-10.491-1.532-12.087-1.532-12.273a20.8,20.8,0,0,1,1.473-8.444c1.679-3.579.56-5.106.56-5.106l-1.046-10.211Z" transform="translate(-225.9 -162)" fill="#67647e"/><path d="M547.814,328.975s-10.491,3.957-13.825.491S531,309.736,531,309.736s-3.191-30.011-5.209-34.94-.982-40.5-.982-40.5-1.355-4.6-2.538-5.8a1.285,1.285,0,0,0-.25-.2l.407.088,1.424.3,2.209,1.772,7.084,45.75s12.273,35.224,14.571,49.442Z" transform="translate(-281.048 -126.101)" opacity="0.1"/><path d="M585.552,432.609h-.118c-1.321.172-12.975,1.581-13.024-.844a7.1,7.1,0,0,1,.044-.839l10.8-1.1,2.141,2.2h0c.039.142.069.265.1.363Z" transform="translate(-306.699 -228.693)" opacity="0.1"/><path d="M574.368,266.07l7.659,4s6.382,16.525,7.4,23.609c0,0,4.728,18.979,1.473,26.785s-2.985,23.3-2.985,23.3-1.875,2.847-2.641,2.086.28,2.985.28,2.985-13.093,1.738-13.147-.835,3-14.865,3-14.865.835-29.245-.349-33.83S574.368,266.07,574.368,266.07Z" transform="translate(-306.699 -145.333)" fill="#67647e"/><path d="M523.367,329.52s-4.31,10.555-5.7,11.252.28,3.471.28,3.471S525.8,333.271,523.367,329.52Z" transform="translate(-278.551 -177.633)" opacity="0.1"/><path d="M517.638,254.094c.049-.2-5.14,5.091-6.529,5.891S516.18,259.936,517.638,254.094Z" transform="translate(-275.394 -139.234)" opacity="0.1"/><path d="M487.954,327.82s-7.919,5.12-6.873,7.148S487.954,327.82,487.954,327.82Z" transform="translate(-260.159 -176.768)" opacity="0.1"/><path d="M524.47,480.07a42.389,42.389,0,0,0,17.227,5.4Z" transform="translate(-282.295 -254.274)" opacity="0.1"/><path d="M491.5,501.3s6.25,7.855,9.1,8.056S491.5,501.3,491.5,501.3Z" transform="translate(-265.511 -265.081)" opacity="0.1"/><path d="M501.511,564c-.28.137-3.545,7.084-6.873,7.3S501.511,564,501.511,564Z" transform="translate(-266.768 -297)" opacity="0.1"/><path d="M568.33,594.787s6.2-1.389,7.575,3.054C575.905,597.826,575.488,596.436,568.33,594.787Z" transform="translate(-304.623 -312.568)" opacity="0.1"/><path d="M559.84,646.2s7.506-1.532,9.1.555S559.84,646.2,559.84,646.2Z" transform="translate(-300.301 -338.568)" opacity="0.1"/><path d="M508.946,654c0,.069-7.639,1.532-7.364,2.5s8.149.835,8.429-.7A1.473,1.473,0,0,0,508.947,654Z" transform="translate(-270.64 -342.816)" opacity="0.1"/><path d="M554.75,666.962s12.553-1.532,11.782,1.11S554.75,666.962,554.75,666.962Z" transform="translate(-297.709 -349.189)" opacity="0.1"/><path d="M420.89,352.44c.069.206,8.267,1.321,9.377,3.962,0,0-8.056-3.756-9.328-3.756" transform="translate(-229.566 -189.301)" opacity="0.1"/><path d="M437.8,396.16s-6.809,2.155-6.323,5.4S430.782,400.058,437.8,396.16Z" transform="translate(-234.941 -211.558)" opacity="0.1"/><path d="M437.92,426.88s2.479-3.4,4.841-2.779S437.92,426.88,437.92,426.88Z" transform="translate(-238.235 -225.743)" opacity="0.1"/><path d="M490.122,164.993a3.863,3.863,0,0,1-.8.594c-1.964,1.144-2.5,2.906-3.437,4.939-.869,1.861-1.826,3.829-3.579,4.885-2.263,1.365-5.243.864-7.595,2.052a5.891,5.891,0,0,0-3.142,5.808,16.754,16.754,0,0,0,.668,2.661,18.973,18.973,0,0,1,.717,5.778.985.985,0,0,1,0,.172,16.044,16.044,0,1,1,17.183-26.888Z" transform="translate(-251.555 -92.092)" opacity="0.1"/><path d="M481.4,150.508c-1.762-3.7-5.6-6.048-9.539-7.192a16.021,16.021,0,0,0-9.264-.2,33.98,33.98,0,0,0-4.846,2.273c-2.975,1.5-6.245,2.69-8.483,5.16a2.585,2.585,0,0,0-.849,2.072,5.784,5.784,0,0,0,.84,1.5,4.559,4.559,0,0,1,.044,3.775,34.63,34.63,0,0,0-1.384,3.628,3.817,3.817,0,0,0,.746,3.638,13.606,13.606,0,0,0,1.4.982,7.39,7.39,0,0,1,1.33,1.512l2.651,3.623a36.744,36.744,0,0,1,3.319,5.1,24.307,24.307,0,0,0,2.052,3.893,4.442,4.442,0,0,0,3.721,1.988.722.722,0,0,0,.589-.28.775.775,0,0,0,.074-.368,18.841,18.841,0,0,0-.7-5.759,16.621,16.621,0,0,1-.668-2.661,5.916,5.916,0,0,1,3.142-5.808c2.356-1.188,5.336-.687,7.595-2.047,1.758-1.06,2.715-3.029,3.579-4.909.947-2.032,1.473-3.795,3.437-4.939S482.373,152.457,481.4,150.508Z" transform="translate(-243.247 -82.438)" fill="#585268"/><path d="M501.63,693.06s2.455,3.127,1.816,4.909S501.63,693.06,501.63,693.06Z" transform="translate(-270.668 -362.7)" opacity="0.1"/><path d="M569.28,704.554s.545-4.193,2.73-4.232,2.293-.226,3.962.417,3.235,1.64,2.734,1.787-2.872-2.4-5.307-1.095A17.536,17.536,0,0,0,569.28,704.554Z" transform="translate(-305.106 -366.369)" opacity="0.1"/><path d="M480.072,245.508l6.873-4.816s-10.054-5.94-11.252-5.106-2.023,8.346-2.023,8.346Z" transform="translate(-256.434 -129.774)" opacity="0.1"/><path d="M480.012,244.782l6.873-4.909s-10.054-5.94-11.252-5.106-2.023,8.758-2.023,8.758Z" transform="translate(-256.404 -129.357)" fill="#e1e7ef"/><path d="M480.012,244.782l6.873-4.909s-10.054-5.94-11.252-5.106-2.023,8.758-2.023,8.758Z" transform="translate(-256.404 -129.357)" fill="#c7efdb"/><path d="M452.392,234.621l-.206-.1a1.782,1.782,0,0,0-1.929.2l-20.619,16.726s-4.482,6.2-3.859,16.9l12.16,17.227s1.389-5.832,3.054-4.723c0,0,2.361,29.873,0,34.179s-3.4,20.423-3.4,20.423l7.987.9s.835-10.909,2.71-14.8,2.9-17.256,2.9-17.256,1.689-19.421,1.409-27.757-2.71-26.26-2.71-26.26S450.565,239.776,452.392,234.621Z" transform="translate(-232.024 -129.172)" fill="#67647e"/><path d="M513.007,238.8l-8.567-3.171s10.909-11.949,12.273-5.322Z" transform="translate(-272.098 -126.106)" opacity="0.1"/><path d="M513.007,237.947l-8.567-3.171s10.909-11.949,12.273-5.322Z" transform="translate(-272.098 -125.674)" fill="#e1e7ef"/><path d="M513.007,237.947l-8.567-3.171s10.909-11.949,12.273-5.322Z" transform="translate(-272.098 -125.674)" fill="#c7efdb"/><path d="M521.32,228.114a.491.491,0,0,1,.353.079Z" transform="translate(-280.691 -126.008)" opacity="0.1"/><path d="M523,226.421l22.73,4.909s6.254,1.389,10.771,17.089-6.186,34.935-6.186,34.935l-2.361-2.008,1.183,45.848s-10.491,3.957-13.825.491-2.985-19.745-2.985-19.745-3.2-30.006-5.214-34.94-.982-40.5-.982-40.5S524.276,226.146,523,226.421Z" transform="translate(-281.547 -125.145)" fill="#67647e"/><path d="M565.051,285.727c-.319.295-.692,14.168.7,24.728a134.756,134.756,0,0,0,3.927,19.033l-2.062-42.3S566.023,284.823,565.051,285.727Z" transform="translate(-302.802 -155.235)" opacity="0.1"/><path d="M559.7,261.6c.555.349,2.99,6.112,1.875,8.473S559.7,261.6,559.7,261.6Z" transform="translate(-300.229 -143.058)" opacity="0.1"/><path d="M494,153.363a12.548,12.548,0,0,0-5-5.233,11.886,11.886,0,0,1,3.746,4.418c.982,1.964.692,3.927-1.217,5s-2.5,2.906-3.437,4.939c-.869,1.861-1.826,3.829-3.584,4.909-2.258,1.365-5.238.859-7.595,2.047a5.931,5.931,0,0,0-3.142,5.813,16.691,16.691,0,0,0,.673,2.656,18.989,18.989,0,0,1,.717,5.778.775.775,0,0,1-.078.368.7.7,0,0,1-.584.28,3.382,3.382,0,0,1-1.713-.319,3.986,3.986,0,0,0,2.946,1.154.579.579,0,0,0,.658-.648,18.837,18.837,0,0,0-.712-5.778,16.127,16.127,0,0,1-.673-2.661,5.916,5.916,0,0,1,3.142-5.808c2.356-1.188,5.336-.687,7.595-2.047,1.758-1.06,2.715-3.029,3.579-4.909.948-2.032,1.473-3.795,3.437-4.939S494.985,155.312,494,153.363Z" transform="translate(-255.986 -85.294)" opacity="0.1"/><path d="M701.637,226.718c-6.765-.133-12.735-4.909-16.117-10.747a10.8,10.8,0,0,1-1.63-4.6,5.307,5.307,0,0,1,.187-1.1,11.415,11.415,0,0,0,.491-1.684,2.945,2.945,0,0,0,0-.687s0,0,0-.039a4.061,4.061,0,0,0-1.473-3.3c-.9-.849-2.037-1.473-2.98-2.317-2.906-2.553-3.79-6.647-3.844-10.545v-.206c.034-1.669.167-3.343.152-5.012a21.084,21.084,0,0,0-.123-2.838,9.377,9.377,0,0,0-3.034-6.274c-4.841-3.927-12.98.162-17.993-3.549-1.217-.908-2.2-2.248-3.682-2.6a6.2,6.2,0,0,0-3.363.457c-3.692,1.218-7.811,2.818-9.254,6.382-.825,2.047-.594,4.384-1.35,6.456a32.243,32.243,0,0,1-2.111,3.9,6.1,6.1,0,0,0-.786,3.255,3.673,3.673,0,0,0,.241,1.733,4.418,4.418,0,0,0,1.2,1.723,5.721,5.721,0,0,1-.717,1.149c-.943,1.154-2.391,1.964-3.373,3.113-1.816,2.106-1.748,4.968-.854,7.443s2.509,4.728,3.623,7.138a3.831,3.831,0,0,1,.368,3.255,9.335,9.335,0,0,1-1.63,1.895,5.955,5.955,0,0,0-1.473,3.289c-11.051,2.523-11.061,11.4-11.061,11.4h0l-5.97,15.013s-.957,2.528-2.082,5.867l-7.065-1.267,4.909,8.218c-.928,3.348-1.586,6.451-1.37,8.012,0,0-2.194,10.31,1.708,12.111l8.611,3.873a5.1,5.1,0,0,0,1.193.535l.349.157a.923.923,0,0,0,.805,0h.118a1.159,1.159,0,0,0,.491-.074.982.982,0,0,0,.432-.466.146.146,0,0,1,0-.049l2.577-.746,2.185,2.587c.982.692,1.964,1.291,2.892,1.831l-3.383,33.59s-.545,44.675-2.194,54.857a28.512,28.512,0,0,0-.383,8.091l-.064.108c.408,2.872,1.473,3.437,1.473,3.437v-.039a.321.321,0,0,0,.064.039,28.921,28.921,0,0,1,1.767-3.79v.736c-.034,3.79-.152,9.1-.545,12.548-.668,5.891,1.708,25.308,1.708,25.308l.82,17.674a16.338,16.338,0,0,1-2.013,8.611c-1.964,3.53-4.472,8.5-4.654,10.7a2.21,2.21,0,0,0,0,.358h0l-4.212,5.066s-1.645,2.543,2.072,3.569c2,.555,5.444,0,8.213-.653a5.489,5.489,0,0,0,4.256-5.341,18.9,18.9,0,0,1,3.476-6.672l.692,4.07,4.634,1.149.594-11.154a4.909,4.909,0,0,0,.319-1.964h0c.913-7.933-2.15-7.222-2.15-7.222a.427.427,0,0,1,.147.275l-.147-.27h0c-1.88-3.711-.982-9.819-.982-9.819s2.455-17.674,3.294-22.342c.6-3.3.354-14.1.152-20.128a7.188,7.188,0,0,0-.025-.731c7.187-.093,15.995-.334,22.175-.933v.727l-1.139,41.754a22.92,22.92,0,0,1-1.6,7.767.423.423,0,0,1-.054.142,33.873,33.873,0,0,0-2.263,10.943l-.53,13.255v.368h0c-.923.354-2.381,1.38-2.42,4.355-.064,4.359,7.619,2.906,7.619,2.906,7.678,0,7.742-7.992,7.742-7.992s.241-7.33.609-12.234-1.159-3.824-1.159-3.824l-.118,13.952V448.531l.118-1.772v-.049h0v-.378l.967-14.389s7.074-23.977,8.169-28.577c.781-3.27.457-13.118.2-18.562a4.325,4.325,0,0,0-.039-.722c2.194-.2,4.134-.216,4.909-.216h.358s-.363-38.509-1.281-53.021-2.376-27.792-6.034-31.788c-2.209-2.415-5.287-9.873-7.364-15.4a77.02,77.02,0,0,0,13.535,4.418c11.581,2.425,10-7.629,10-7.629L695,261.436h.078a96.954,96.954,0,0,0-1.276-14.865,43.738,43.738,0,0,0-2.985-10.8c1.257-.491,2.5-1.016,3.716-1.556,3.147-1.389,6.691-3.358,7.143-6.75h-.152a4.376,4.376,0,0,0,.118-.746ZM629.848,254.21h0c.025,1.964-.049,5.371-.167,9.136L626,258.437l3.687-5.98ZM679.118,264.181Zm1.532,7.428-6.127-1.964a27.493,27.493,0,0,1,3.785-4.683l.53-.491-.191.039.295-.27.177-.039-.28.27.334-.069a10.451,10.451,0,0,0,2.086,4.2c2.2,2.4-.6,3.009-.6,3.009Z" transform="translate(-323.769 -96.997)" fill="url(#b)"/><path d="M644.67,715.66l-.717,13.589-4.571-1.144-.962-5.651Z" transform="translate(-325.006 -364.318)" fill="#a27772"/><path d="M644.67,715.66l-.717,13.589-4.571-1.144-.962-5.651Z" transform="translate(-325.006 -364.318)" opacity="0.1"/><path d="M716.48,677.249l6.971,1.443,5.17-4.566V661.259l.118-1.758v-.054h0v-.373l.962-14.3s6.976-23.805,8.061-28.376c.766-3.24.447-13.02.192-18.425-.1-2.214-.192-3.7-.192-3.7l-15.391-3.726-.324,11.831-1.124,41.454a22.973,22.973,0,0,1-1.576,7.713l-.054.142a33.737,33.737,0,0,0-2.234,10.859l-.52,13.182v.363Z" transform="translate(-380.041 -310.515)" fill="#cc818c"/><path d="M741.45,730.14v.363h0v-.373Z" transform="translate(-392.752 -381.571)" opacity="0.1"/><path d="M716.48,762.777l6.971,1.443,5.17-4.566V758.56a1.473,1.473,0,0,1-.741,1.178l-.074.044a13.893,13.893,0,0,1-7.825,1.546l-2.72-.231a2.547,2.547,0,0,0-.722.177v.363Z" transform="translate(-380.041 -396.044)" opacity="0.1"/><path d="M725.372,745.95l.074-.039a1.473,1.473,0,0,0,.751-1.276l.113-13.849s1.5-1.075,1.139,3.795-.6,12.146-.6,12.146-.059,7.933-7.634,7.933c0,0-7.575,1.443-7.516-2.887s3.127-4.507,3.127-4.507l2.72.236A13.859,13.859,0,0,0,725.372,745.95Z" transform="translate(-377.607 -381.853)" fill="#b07473"/><path d="M642.52,679.007c.177,3.127,9.377,1.321,9.377,1.321l6.191-12.018s5.169-3.972,2.582-7.457a5.566,5.566,0,0,1-.378-.594l-.025-.029h0c-.054-.088-.1-.182-.152-.28h0c-1.856-3.682-.943-9.72-.943-9.72s2.4-17.556,3.245-22.185c.594-3.27.349-14,.152-20-.078-2.494-.152-4.168-.152-4.168l-15.273-4.089v4.556c-.034,3.765-.152,9.033-.54,12.46-.658,5.827,1.684,25.126,1.684,25.126l.81,17.561a16.264,16.264,0,0,1-1.964,8.547c-1.915,3.505-4.418,8.444-4.59,10.629A2.147,2.147,0,0,0,642.52,679.007Z" transform="translate(-342.39 -315.219)" fill="#cc818c"/><path d="M642.516,741.709c.177,3.127,9.377,1.321,9.377,1.321l6.191-12.018s5.17-3.972,2.582-7.457a5.558,5.558,0,0,1-.378-.594c-.083,1.821-2.082,6.382-2.082,6.382s-5.111,10.226-6.736,12.568-8.685-.437-8.95-.535a2.147,2.147,0,0,0,0,.334Z" transform="translate(-342.386 -377.921)" opacity="0.1"/><path d="M655.38,722.283s3.024-.7,2.121,7.172h0a5.071,5.071,0,0,1-2.391,4.5,17.191,17.191,0,0,0-7.192,9.976h0a5.44,5.44,0,0,1-4.2,5.3c-2.73.638-6.132,1.2-8.1.648-3.667-1.021-2.042-3.545-2.042-3.545l4.207-4.993s7.334,2.887,8.955.54,6.736-12.563,6.736-12.563S656.279,722.946,655.38,722.283Z" transform="translate(-337.656 -377.569)" fill="#b07473"/><path d="M728.144,593.52l-.324,11.831c4.1-.4,7.035-.952,7.536-1.733,1.085-1.679,5.022-2.386,8.37-2.676-.1-2.214-.191-3.7-.191-3.7Z" transform="translate(-385.814 -312.027)" opacity="0.1"/><path d="M651.94,607.276a5.616,5.616,0,0,1,1.684-2.033c1.62-.9,1.443,5.773,1.443,5.773s5.4.049,12.3-.039c-.079-2.494-.152-4.173-.152-4.173L651.94,602.72S651.969,604.615,651.94,607.276Z" transform="translate(-347.186 -316.711)" opacity="0.1"/><path d="M646.74,499.636s1.807-4.909,3.437-5.783,1.443,5.768,1.443,5.768,39.677.363,41.66-2.705,13.525-2.887,13.525-2.887-.358-38.234-1.262-52.657-2.342-27.6-5.95-31.562c-2.332-2.568-5.651-10.874-7.7-16.412-1.114-3.024-1.856-5.228-1.856-5.228l-37.87,2.16-.309,3.068-4.021,40.217s-.54,44.366-2.165,54.464S646.74,499.636,646.74,499.636Z" transform="translate(-343.729 -207.49)" fill="#444053"/><g transform="translate(301.465 180.68)" opacity="0.1"><path d="M699.208,496.916c1.964-3.063,13.525-2.887,13.525-2.887s-.358-38.234-1.262-52.657-2.342-27.6-5.95-31.562c-2.342-2.577-5.651-10.874-7.7-16.412-.938-2.543-1.61-4.5-1.8-5.062l2.946-.167s.741,2.2,1.861,5.228c2.052,5.538,5.366,13.844,7.7,16.412,3.608,3.967,5.052,17.134,5.95,31.562s1.267,52.657,1.267,52.657-11.542-.177-13.53,2.887c-1.694,2.617-30.889,2.739-39.363,2.715C673.724,499.607,697.677,499.283,699.208,496.916Z" transform="translate(-654.205 -388.17)"/><path d="M647.14,603.353c.731-.407,1.095.722,1.276,2.091a28.321,28.321,0,0,0-1.7,3.692s-1.046-.565-1.473-3.437A6.683,6.683,0,0,1,647.14,603.353Z" transform="translate(-645.24 -497.67)"/></g><path d="M664.4,194.115c-2.622,3.574.029,8.655-2.784,12.131-.928,1.149-2.357,1.964-3.324,3.093-1.792,2.091-1.723,4.934-.844,7.389s2.455,4.693,3.574,7.089a3.793,3.793,0,0,1,.363,3.23,9.149,9.149,0,0,1-1.61,1.88,6.781,6.781,0,0,0-.884,7.2,23.292,23.292,0,0,0,4.659,6.431,3.18,3.18,0,0,0,4.62,1.056,18.165,18.165,0,0,0,8.267-23.707c-1.522-3.648-4.06-7.143-4.085-11,0-3.059,1.571-5.98,1.851-9.023.339-3.7-1.851-9.578-6.318-11.193C668.179,191.066,665.729,192.279,664.4,194.115Z" transform="translate(-349.683 -105.941)" fill="#585268"/><path d="M664.4,194.115c-2.622,3.574.029,8.655-2.784,12.131-.928,1.149-2.357,1.964-3.324,3.093-1.792,2.091-1.723,4.934-.844,7.389s2.455,4.693,3.574,7.089a3.793,3.793,0,0,1,.363,3.23,9.149,9.149,0,0,1-1.61,1.88,6.781,6.781,0,0,0-.884,7.2,23.292,23.292,0,0,0,4.659,6.431,3.18,3.18,0,0,0,4.62,1.056,18.165,18.165,0,0,0,8.267-23.707c-1.522-3.648-4.06-7.143-4.085-11,0-3.059,1.571-5.98,1.851-9.023.339-3.7-1.851-9.578-6.318-11.193C668.179,191.066,665.729,192.279,664.4,194.115Z" transform="translate(-349.683 -105.941)" opacity="0.1"/><path d="M701.619,464.55c-5.248.275-10.187,2.533-14.782,5.086s-9.043,5.444-13.987,7.256" transform="translate(-357.83 -246.373)" opacity="0.1"/><path d="M699.265,489.74a21.635,21.635,0,0,0-13.623,6.628c-1.276,1.35-2.376,2.862-3.707,4.158a16.466,16.466,0,0,1-7.305,4.139" transform="translate(-358.737 -259.196)" opacity="0.1"/><path d="M696.2,508.91a23.82,23.82,0,0,0-10.958,6.608c-.805.869-1.537,1.8-2.342,2.666-4.345,4.664-10.481,7.138-16.407,9.48" transform="translate(-354.593 -268.955)" opacity="0.1"/><path d="M704.49,242.8a107.725,107.725,0,0,0,1.08,12.529c.491,2.946,1.178,5.6,2.165,6.77,2.887,3.437-14.065,8.027-14.065,8.027l-10.01-7.757s7.933-7.305,4.237-14.428S704.49,242.8,704.49,242.8Z" transform="translate(-363.333 -133.356)" fill="#cc818c"/><path d="M658.79,393.4h40.035c-1.114-3.024-1.856-5.228-1.856-5.228l-37.87,2.16Z" transform="translate(-350.673 -207.49)" opacity="0.1"/><path d="M645.436,333.661h42.8a14.852,14.852,0,0,1,1.713-11.35,25.084,25.084,0,0,1,4.482-5.813l.295-.27,14.944-3.309.805-.177s.123-27.173-9.5-30.9a56.255,56.255,0,0,1-15.391-8.773l-13.221,4.085-9.74-4.909c-3.127,3.363-11.424,2.042-11.424,2.042-13.584,1.561-13.584,11.782-13.584,11.782s7.933,18.513,8.537,18.513S645.436,333.661,645.436,333.661Z" transform="translate(-339.896 -148.474)" fill="#c7efdb"/><path d="M671.509,356.647s-8.729-1.934-11.7-5.317" transform="translate(-351.192 -188.736)" opacity="0.1"/><path d="M762.793,341.51l-10.123,8.3A17.255,17.255,0,0,0,753,351.77l.294-.27,14.944-3.309Z" transform="translate(-398.464 -183.737)" opacity="0.1"/><path d="M717.46,379.252s2.214,1.247,5.606,2.887h5.818a14.852,14.852,0,0,1,1.713-11.35l-10.256-3.319C723.832,370.715,717.46,379.252,717.46,379.252Z" transform="translate(-380.54 -196.953)" opacity="0.1"/><path d="M631.156,293.76l-6.009,3.245-5.891,14.91s-6.132,16.348-5.533,20.678c0,0-2.16,10.221,1.684,12.023l10.015,4.536a.933.933,0,0,0,1.2-1.286c-1.429-2.705-3-6.937-.491-9.264l-2.887-6.009,10.432-17.075,3.486-5.891Z" transform="translate(-327.423 -159.429)" fill="#c7efdb"/><path d="M677.009,350.915c.52,2.121,2.278,5.4,8.1,6.623l6.382,5.228,6.79,3.078,2.769,1.252,1.173-8.478-2.666-1.473-3.108-1.7s-7.01-12.7-18.11-7.364a2.455,2.455,0,0,0-1.325,2.833Z" transform="translate(-359.908 -186.416)" opacity="0.1"/><path d="M677.759,349.475c.52,2.126,2.273,5.4,8.091,6.623l6.382,5.228,6.794,3.078,2.764,1.252,1.173-8.478L700.3,355.7l-3.083-1.684s-7.015-12.7-18.115-7.339a2.455,2.455,0,0,0-1.34,2.793Z" transform="translate(-360.295 -185.698)" fill="#cc818c"/><circle cx="15.509" cy="15.509" r="15.509" transform="translate(314.465 89.42)" opacity="0.1"/><circle cx="15.509" cy="15.509" r="15.509" transform="translate(314.465 89.062)" fill="#cc818c"/><path d="M718.044,284.21l-4.664-9.063s6.824-2.759,7.32-5.955,6.539,3.746,5.233,6.048S718.044,284.21,718.044,284.21Z" transform="translate(-378.463 -146.502)" opacity="0.1"/><path d="M718.044,282.741l-4.664-9.063s6.824-2.759,7.32-5.955,6.539,3.751,5.233,6.048S718.044,282.741,718.044,282.741Z" transform="translate(-378.463 -145.754)" fill="#c7efdb"/><path d="M625.847,343.368l25.769,34.645s-9.5,5.169-22.583-4.085l-5.651-6.736L607.25,340Z" transform="translate(-324.436 -182.969)" fill="#f6f8fb"/><path d="M634.174,375.975l2.347-.064s14.335-13.913,17.855-6.873-8.93,13.618-8.93,13.618l-3.785,2.042-4.934,1.473-3.157-4.237Z" transform="translate(-337.834 -196.738)" fill="#cc818c"/><path d="M634.269,391.216a3.5,3.5,0,0,1,.059,2.425.982.982,0,0,1-.427.466,1.094,1.094,0,0,1-.491.069,4.934,4.934,0,0,1-3.235-1.6,14.775,14.775,0,0,1-2.1-3.034A5.6,5.6,0,0,1,627,385.929c.255-1.38,1.473-2.337,2.666-3.113,2.376-1.571,2.455.26,2.975,2.283S633.724,389.174,634.269,391.216Z" transform="translate(-334.468 -204.464)" opacity="0.1"/><path d="M633.537,391.216a3.531,3.531,0,0,1,.059,2.425.982.982,0,0,1-.427.466,1.1,1.1,0,0,1-.491.069,4.909,4.909,0,0,1-3.235-1.6,14.609,14.609,0,0,1-2.1-3.034,5.563,5.563,0,0,1-1.07-3.613c.25-1.38,1.473-2.337,2.661-3.113,2.381-1.571,2.455.26,2.98,2.283S632.987,389.174,633.537,391.216Z" transform="translate(-334.095 -204.464)" fill="#c7efdb"/><path d="M623.85,315.838l1.2-2.028L624,317.575Z" transform="translate(-317.589 -159.749)" opacity="0.1"/><path d="M721.19,375.129l2.764,1.252,1.173-8.478-2.666-1.473C724.3,368.541,722.692,372.444,721.19,375.129Z" transform="translate(-382.439 -196.423)" opacity="0.1"/><path d="M730.605,362.14s-8.925.545-12.715-1.89" transform="translate(-380.759 -193.277)" opacity="0.1"/><g transform="translate(310.739 124.473)" opacity="0.1"><path d="M737.407,324.635a25.125,25.125,0,0,1,4.482-5.818,11.967,11.967,0,0,1,1.321-.717l13.913-2.857.805-.177s.123-27.173-9.495-30.9a57.793,57.793,0,0,1-15-8.449l1.056-.324a56.107,56.107,0,0,0,15.391,8.773c9.622,3.726,9.495,30.9,9.495,30.9h-1.443l-14.237,2.725s-.614.594-.8.766a27.592,27.592,0,0,0-4.551,6.019,15.092,15.092,0,0,0-1.193,11.409h-1.473A15.007,15.007,0,0,1,737.407,324.635Z" transform="translate(-699.408 -274.551)"/><path d="M664.13,277.9c.231-.034.452-.069.692-.093a24.882,24.882,0,0,0,2.946.241A26.771,26.771,0,0,1,664.13,277.9Z" transform="translate(-664.13 -275.782)"/><path d="M696.567,278.6l-8.807-4.458a4.646,4.646,0,0,0,.491-.466l9.19,4.649Z" transform="translate(-676.159 -273.68)"/></g><path d="M745.589,340l5.891,7.217,1.2,19.6s1.561,9.976-9.858,7.57-24.635-9.838-24.635-9.838,6.382-8.537,2.887-11.782l16.353,5.292s2.764-.6.6-3-2.548-6.736-2.548-6.736Z" transform="translate(-380.912 -182.969)" fill="#c7efdb"/><path d="M779.42,382.17l3.245,3.726a4.679,4.679,0,0,1-3.245-3.726Z" transform="translate(-412.082 -204.436)" opacity="0.1"/><path d="M736.99,360.8l5.052,6.49-2.523.6Z" transform="translate(-375.185 -183.67)" opacity="0.1"/><path d="M665.315,196.441a5.18,5.18,0,0,1,.54-4.227,33.377,33.377,0,0,0,2.086-3.873c.741-2.052.515-4.374,1.326-6.382,1.429-3.559,5.489-5.15,9.126-6.382a6.136,6.136,0,0,1,3.319-.452c1.473.349,2.43,1.684,3.633,2.582,4.939,3.682,12.97-.373,17.747,3.525a9.289,9.289,0,0,1,2.99,6.225,54.966,54.966,0,0,1-.029,7.079c-.079,4.134.7,8.655,3.79,11.395.933.825,2.032,1.443,2.946,2.3a4.022,4.022,0,0,1,1.473,3.284,11.387,11.387,0,0,1-.491,1.669c-.614,2.155.3,4.418,1.424,6.382,3.338,5.778,9.225,10.54,15.9,10.673-.447,3.368-3.927,5.322-7.045,6.7-3.927,1.762-8.11,3.491-12.435,3.27s-8.837-2.99-9.593-7.251c-.26-1.473-.226-3.245-1.473-4.011-.766-.466-1.758-.349-2.582-.7-1.193-.491-1.782-1.831-2.175-3.063a27.574,27.574,0,0,1-1.281-7.855c-.054-3.162.363-6.613-1.429-9.215-1.659-2.41-4.6-3.633-6.52-5.847-1.767-2.052-3.687-4.526-6.583-4.909C675.969,196.795,667.682,202.239,665.315,196.441Z" transform="translate(-353.865 -98.989)" opacity="0.1"/><path d="M665.315,194.971a5.18,5.18,0,0,1,.54-4.227,33.378,33.378,0,0,0,2.086-3.873c.741-2.052.515-4.374,1.326-6.382,1.429-3.564,5.489-5.155,9.126-6.382a6.136,6.136,0,0,1,3.319-.452c1.473.349,2.43,1.684,3.633,2.582,4.939,3.682,12.97-.373,17.747,3.525a9.29,9.29,0,0,1,2.99,6.23,54.887,54.887,0,0,1-.029,7.074c-.079,4.134.7,8.655,3.79,11.395.933.825,2.032,1.443,2.946,2.3a4.022,4.022,0,0,1,1.473,3.284,11.385,11.385,0,0,1-.491,1.669c-.614,2.155.3,4.418,1.424,6.382,3.348,5.759,9.21,10.535,15.882,10.668-.447,3.368-3.927,5.322-7.045,6.706-3.927,1.758-8.11,3.486-12.435,3.265s-8.837-2.99-9.593-7.251c-.26-1.473-.226-3.245-1.473-4.011-.766-.466-1.758-.349-2.582-.7-1.193-.491-1.782-1.831-2.175-3.063a27.541,27.541,0,0,1-1.281-7.855c-.054-3.162.363-6.613-1.429-9.215-1.659-2.41-4.6-3.633-6.52-5.847-1.767-2.052-3.687-4.526-6.583-4.909C675.969,195.325,667.682,200.779,665.315,194.971Z" transform="translate(-353.865 -98.241)" fill="#585268"/><path d="M684.827,283.553l8.891-7.217s-6.088-3.3-6.814-6.112-5.6,1.335-5.1,3.859S684.827,283.553,684.827,283.553Z" transform="translate(-362.37 -146.969)" opacity="0.1"/><path d="M685.568,281.348l8.891-7.212s-6.088-3.3-6.785-6.112-5.6,1.335-5.1,3.859S685.568,281.348,685.568,281.348Z" transform="translate(-362.762 -145.849)" fill="#c7efdb"/><circle cx="0.707" cy="0.707" r="0.707" transform="translate(331.338 133.619)" opacity="0.1"/><circle cx="0.707" cy="0.707" r="0.707" transform="translate(331.338 137.546)" opacity="0.1"/><circle cx="0.707" cy="0.707" r="0.707" transform="translate(331.338 141.469)" opacity="0.1"/><g transform="translate(311.307 80.667)" opacity="0.1"><path d="M671.933,190.488c.7-1.929.55-4.094,1.208-6.038a6.6,6.6,0,0,0-.751,1.384c-.815,2.028-.584,4.35-1.33,6.382l-.049.118A11.217,11.217,0,0,0,671.933,190.488Z" transform="translate(-668.201 -184.45)"/><path d="M725.109,250.29c-3.927,1.758-8.11,3.486-12.435,3.265s-8.837-2.99-9.593-7.246c-.26-1.473-.226-3.25-1.473-4.016-.766-.466-1.758-.349-2.582-.7-1.193-.491-1.782-1.831-2.175-3.063a27.545,27.545,0,0,1-1.281-7.855c-.054-3.157.368-6.608-1.424-9.215-1.664-2.41-4.61-3.628-6.525-5.847-1.767-2.047-3.687-4.526-6.583-4.909-3.972-.54-12.273,4.909-14.62-.894a4.566,4.566,0,0,1,.152-3.353c-.172.29-.339.579-.491.874a5.2,5.2,0,0,0-.535,4.232c2.361,5.793,10.648.349,14.62.894,2.9.393,4.816,2.872,6.583,4.909,1.915,2.219,4.86,3.437,6.52,5.852,1.8,2.6,1.375,6.053,1.429,9.21a27.541,27.541,0,0,0,1.281,7.855c.393,1.237.982,2.563,2.175,3.063.825.349,1.816.236,2.582.7,1.267.766,1.232,2.558,1.473,4.016.766,4.256,5.273,7.025,9.593,7.246s8.483-1.5,12.435-3.265c2.847-1.267,6.019-3.019,6.873-5.891C729.743,248.017,727.328,249.3,725.109,250.29Z" transform="translate(-665.288 -195.655)"/></g><path d="M866.3,294.99c-10.393-5.98-14.32-7.452-14.34-7.452l-.216-.152a8.645,8.645,0,0,1-2.617-3.309,6.906,6.906,0,0,1,0-.712.3.3,0,0,0,0,.069c.162-3.167,2.415-6.048,4.551-8.562l5.464-6.426a6.333,6.333,0,0,0,1.409-2.229,5.142,5.142,0,0,0,.147-1.37v-.56c-.029-1.6-.074-3.2-.133-4.792-.049-1.394-.407-3.152-1.8-3.437-.727-.147-1.689.113-2.072-.491a1.193,1.193,0,0,1-.093-.83.281.281,0,0,0,0,.069v-.079a18.494,18.494,0,0,0,.516-3.284,4.476,4.476,0,0,0-.226-1.664c-.805-2.312-3.589-3.265-6.048-3.7s-5.219-.81-6.76-2.734a20,20,0,0,0-1.345-1.851,5.307,5.307,0,0,0-2.514-1.242,14.237,14.237,0,0,0-9.146.8,8.21,8.21,0,0,1-3.687,1.168c-1.306-.079-2.514-1.021-3.849-1.247-2.16-.368-4.227,1.218-5.292,3.1a7.575,7.575,0,0,0-.982,3.653v.216h0a5.342,5.342,0,0,0,1.4,3.731c.933.982,2.317,1.63,2.7,2.9.157.515.118,1.075.26,1.6a1.419,1.419,0,0,0,.059.191l-.069.093a16.2,16.2,0,0,0-3.437,9.986,16.574,16.574,0,0,0,11.645,15.71v.491a7.063,7.063,0,0,1-2.258,5.5l-14.723,5.881s-8.876-1.056-12.077,11.915a22.117,22.117,0,0,0-.55,6.578,19.071,19.071,0,0,1-2.455,9.853c-3.638,7.128-2.808,23.491,4.634,25.111,7.025,1.532,9.774.894,10.064.82v.285c-.118,3.073-1.232,29.554-5.282,32.755-1.119.889-.913,1.473,0,1.89,0,0,0,.172-.025.491-.123,1.964-.746,9.328-3.437,13.51-3.147,4.86-2.818,32.892-2.818,32.892l-2.145,16.525s1.321,10.206,0,11.989c-1.183,1.586-2.754,39.343-3.083,47.532h-.137a3.986,3.986,0,0,0-3.181,1.964c-1.738,2.823-7.826,8.041-7.826,8.041-1.321,1.875-6.205,3.672-8.788,4.517a5.457,5.457,0,0,0-.982.432,5.238,5.238,0,0,0-2.219,2.337,2.509,2.509,0,0,0-.236,1.964c.658,1.615,14.389,2.754,17.865,1.129,2.73-1.271,13.55-2.946,18.042-3.6a3.7,3.7,0,0,0,3.211-3.211,2.116,2.116,0,0,0-.412-1.605h0c-.859-1.065-1.3-3.977-1.473-5.891a3.982,3.982,0,0,0,1.011-.6,43.13,43.13,0,0,1,2.455-17.335c3.309-8.748,4.3-24.949,3.476-35.48,0,0,10.089-43.418,18.032-47.468h0c.123.157,3.977,5.1,4.467,20.413.491,15.553,6.117,25.759,6.117,25.759s-2.484,26.407,0,36.29L841.86,509.4c-.241-.2-.393-.358-.393-.358s.1.432.231,1.124l-.069.334.142.029a30.679,30.679,0,0,1,.687,7.364c-.128,1.134-.447,2.69-.663,4.217-.344,2.4-.437,4.728.825,5.238,2.072.835,14.237,1.964,16.3-.707a3.824,3.824,0,0,0,.6-4,4.049,4.049,0,0,0-.6-1.021s-3.23-5.277-2.317-9a2.739,2.739,0,0,0-.388-2.136A109.76,109.76,0,0,1,859,493.032c2.072-7.8,6.436-24.89,3.225-36.128h0q-.182-.663-.412-1.3a48.523,48.523,0,0,1-1.821-18.955,38.631,38.631,0,0,1,0-16.525c1.988-9.072,3.378-17.983,3.378-17.983s1.095-11.989.137-19.338a4.815,4.815,0,0,0-.064-.491l.52-.118s-2.813-12.475-3.8-20.413c-.236-1.875-.54-4.247-.874-6.78a17.308,17.308,0,0,0,2.7-.673c8.93-3.078,11.743-30.929,11.743-30.929v-8.837S876.726,300.985,866.3,294.99ZM799.753,510.136c-.275-.137-.437-.231-.437-.231h0Z" transform="translate(-408.413 -131.979)" fill="url(#c)"/><path d="M885.9,597.612c3.874,11.139-.648,29.22-2.749,37.311a112.789,112.789,0,0,0-2.744,17.762,37.406,37.406,0,0,1-14.208-.324l3.392-16.628c-2.425-9.848,0-36.167,0-36.167s-5.489-10.172-5.975-25.671c-.491-15.253-4.237-20.187-4.355-20.339h0c-7.747,4.035-17.595,47.306-17.595,47.306.805,10.491-.167,26.638-3.392,35.347a43.691,43.691,0,0,0-2.42,17.271,5.252,5.252,0,0,1-4.418.844c-4.61-.746-10.138-4.718-10.138-4.718s1.772-47.129,3.068-48.917,0-11.949,0-11.949l2.1-16.466s-.324-27.934,2.744-32.775c2.651-4.183,3.26-11.537,3.378-13.466v-.491l4.674-5.6s45.205-3.392,48.6,0c.83.83,1.345,2.725,1.65,5.106.933,7.325-.138,19.269-.138,19.269s-1.355,8.881-3.294,17.919a39.331,39.331,0,0,0,0,16.471A49.3,49.3,0,0,0,885.9,597.612Z" transform="translate(-433.402 -273.806)" fill="#65617d"/><path d="M929.455,803.208c-2.018,2.666-13.884,1.537-15.906.707-1.232-.491-1.139-2.833-.805-5.224.211-1.517.52-3.068.648-4.2.319-2.906-.982-8.8-.982-8.8s2.661,2.828,3.3,0a3.079,3.079,0,0,1,2.307-2.19,6.028,6.028,0,0,1,4.193.26c2.1.913,5.592,2.852,4.968,5.474-.889,3.706,2.258,8.969,2.258,8.969a4.086,4.086,0,0,1,.589,1.011,3.874,3.874,0,0,1-.574,3.991Z" transform="translate(-479.783 -408.61)" fill="#a27772"/><path d="M929.576,819.227c-2.018,2.666-13.884,1.537-15.906.707-1.232-.491-1.139-2.833-.805-5.224,1.276.6,3.437,1.095,7.055.761a19.906,19.906,0,0,1,2.538-.079,59.023,59.023,0,0,0,7.708-.157A3.874,3.874,0,0,1,929.576,819.227Z" transform="translate(-479.904 -424.628)" opacity="0.1"/><path d="M852.171,634c.805,10.491-.167,26.638-3.392,35.347a43.694,43.694,0,0,0-2.42,17.271,5.252,5.252,0,0,1-4.418.844c.982-6.809,5.125-36.147,7.781-59.329A97.082,97.082,0,0,1,866.9,583.58l2.823,3.108C862.019,590.733,852.171,634,852.171,634Z" transform="translate(-443.909 -306.967)" opacity="0.1"/><path d="M903.142,320.562l-1.964,9.686-9.657,16.225-11.905-5.086s-16.2-16.952-6.014-19.372a9.014,9.014,0,0,0,3.378-1.5,6.985,6.985,0,0,0,2.636-5.842,17.912,17.912,0,0,0-1.64-6.942L898.8,301.19a33.429,33.429,0,0,0-1.473,8.434c-.162,5.675,1.964,8.469,3.677,9.819A6.255,6.255,0,0,0,903.142,320.562Z" transform="translate(-458.315 -163.212)" fill="#fbbebe"/><path d="M906.806,301.19a33.424,33.424,0,0,0-1.473,8.434,15.843,15.843,0,0,1-1.213,1.291,16.476,16.476,0,0,1-16.466,3.756A17.908,17.908,0,0,0,886,307.729Z" transform="translate(-466.338 -163.212)" opacity="0.1"/><path d="M899.092,278.686a16.392,16.392,0,1,1-4.8-11.666A16.471,16.471,0,0,1,899.092,278.686Z" transform="translate(-456.233 -143.373)" fill="#fbbebe"/><path d="M903.142,339.474l-1.964,9.686-9.657,16.225L879.616,360.3s-16.2-16.952-6.014-19.372a9.014,9.014,0,0,0,3.378-1.5c-1.836,5.047,5.744,15.548,5.744,15.548.884,1.3,2.906.491,2.906.491,4.885-.741,13.874-14.787,15.342-17.124A6.255,6.255,0,0,0,903.142,339.474Z" transform="translate(-458.315 -182.123)" opacity="0.1"/><path d="M899.275,525.052c-2.867.653-18.729,4.163-24.743,3.284-6.618-.982-19.485-1.61-19.485-1.61s-8.194.442-10.717-.712v-.491l4.674-5.6s45.205-3.392,48.6,0C898.455,520.776,898.971,522.671,899.275,525.052Z" transform="translate(-445.125 -273.796)" opacity="0.1"/><path d="M857.884,355.617s-8.518-11.782-5.307-16.4l-14.389,5.891s-8.66-1.051-11.782,11.876a22.489,22.489,0,0,0-.535,6.559,19.4,19.4,0,0,1-2.371,9.819c-3.549,7.1-2.744,23.413,4.521,25.038s9.843.805,9.843.805-.982,29.544-5.165,32.937,10.7,2.582,10.7,2.582,12.867.648,19.49,1.615,25.185-3.392,25.185-3.392-2.744-12.43-3.716-20.339-3.235-24.758-3.235-24.758l16.466-22.308s2.906-13.481-7.266-19.456-14-7.438-14-7.438-10.221,16.643-15.548,17.448C860.791,356.1,858.768,356.913,857.884,355.617Z" transform="translate(-433.48 -182.281)" fill="#c7efdb"/><path d="M854.334,382.74s-.157,5.332.81,7.428,4.521,13.746,4.521,13.746H851.59s4.359-4.683,4.04-6.947S854.334,382.74,854.334,382.74Z" transform="translate(-448.821 -204.726)" opacity="0.1"/><path d="M879.18,441.167s-17.831-4.359-19.49-8.071-6.24-12.023-6.24-12.023l1.88-2.533,8.67,6.8s10.31,8.233,15.18,9.043S879.18,441.167,879.18,441.167Z" transform="translate(-449.768 -222.951)" fill="#fbbebe"/><path d="M879.18,441.167s-17.831-4.359-19.49-8.071-6.24-12.023-6.24-12.023l1.88-2.533,8.67,6.8s10.31,8.233,15.18,9.043S879.18,441.167,879.18,441.167Z" transform="translate(-449.768 -222.951)" opacity="0.05"/><path d="M903.86,421.769v9.671h-1.551a45.209,45.209,0,0,0-21.962,5.689l-2.908,1.611-.781.437-5.008-11.291,4.683-4.2h.241c1.144.113,6.1.525,8.2-.182,1.993-.677,4.467-2.823,10.339-1.326,2.892.741,5.366,3.981,8.169,2.97Z" transform="translate(-459.033 -224.54)" fill="#fbbebe"/><path d="M932.546,374.62l3.225,3.633v8.8s-2.744,27.767-11.458,30.835-24.281-1.777-24.281-1.777-4.021-10.653-2.141-11.291,16.618-4.536,16.618-4.536S914.3,384,917.528,379.152c0,0-2.1-15.175,5.169-15.5S932.546,374.62,932.546,374.62Z" transform="translate(-472.137 -195.006)" opacity="0.1"/><path d="M933.548,374.62l3.23,3.633v8.8s-2.744,27.767-11.463,30.835-24.281-1.777-24.281-1.777-4.021-10.653-2.135-11.291,16.618-4.536,16.618-4.536-.211-16.289,3.019-21.135c0,0-2.1-15.175,5.165-15.5S933.548,374.62,933.548,374.62Z" transform="translate(-472.648 -195.006)" fill="#c7efdb"/><path d="M898.067,285.616a6.489,6.489,0,0,0-.368-3.147A2.4,2.4,0,0,0,895.136,281c-1.38.324-1.964,2.121-3.329,2.553a2.66,2.66,0,0,1-2.946-1.512,7.532,7.532,0,0,1-.56-3.515v-4.045a6.7,6.7,0,0,0-.952-4.207c-1.124-1.434-3.77-2.062-5.538-2a4.7,4.7,0,0,0-3.162,1.272,4.069,4.069,0,0,1-3.324,1.183,2.862,2.862,0,0,1-2.317-2v-.049a16.466,16.466,0,1,1,24.478,21.856,44.405,44.405,0,0,0,.579-4.909Z" transform="translate(-459.725 -143.312)" opacity="0.1"/><path d="M870.9,259.885a2.887,2.887,0,0,1-2.322-2.008c-.133-.52-.1-1.075-.25-1.591-.378-1.271-1.733-1.929-2.641-2.9-1.817-1.929-1.7-5.1-.412-7.423,1.041-1.87,3.054-3.437,5.165-3.083,1.306.226,2.455,1.154,3.76,1.242a7.588,7.588,0,0,0,3.6-1.164,13.559,13.559,0,0,1,8.945-.8,5.155,5.155,0,0,1,2.455,1.242,21.482,21.482,0,0,1,1.311,1.841c1.5,1.915,4.2,2.293,6.6,2.725s5.116,1.384,5.891,3.692c.525,1.532,0,3.191-.285,4.782a1.443,1.443,0,0,0,.064.982c.378.619,1.316.358,2.023.491,1.36.29,1.708,2.042,1.762,3.437q.083,2.386.128,4.777a6.082,6.082,0,0,1-.142,1.767,6.24,6.24,0,0,1-1.37,2.224l-5.331,6.407c-2.366,2.838-4.875,6.146-4.418,9.819-1.119.491-2.455-.466-2.818-1.64a7.333,7.333,0,0,1,.177-3.638,44.6,44.6,0,0,0,.854-6.308,6.471,6.471,0,0,0-.368-3.142,2.4,2.4,0,0,0-2.563-1.473c-1.384.324-1.964,2.121-3.329,2.553a2.66,2.66,0,0,1-2.946-1.512,7.511,7.511,0,0,1-.56-3.51v-4.05a6.7,6.7,0,0,0-.952-4.207c-1.124-1.434-3.77-2.062-5.538-2a4.7,4.7,0,0,0-3.157,1.272A4.076,4.076,0,0,1,870.9,259.885Z" transform="translate(-455.299 -132.952)" fill="#7c5c5c"/><path d="M885.3,381.92l5.057,20.771S894.343,402.667,885.3,381.92Z" transform="translate(-465.982 -204.309)" opacity="0.1"/><path d="M915.685,374.85s-6.618,10.84-4.035,22.053l1.232.088S910.683,391.8,915.685,374.85Z" transform="translate(-479.091 -200.71)" opacity="0.1"/><path d="M929,499.222s8.13-2.69,8.719,3.549C937.739,502.771,936.207,498.5,929,499.222Z" transform="translate(-488.228 -263.73)" opacity="0.1"/><path d="M866.778,426.81s-1.615,11.291,1.291,15.823a35.409,35.409,0,0,1-14.208,1.939l-.982-17.762Z" transform="translate(-449.478 -227.161)" opacity="0.1"/><path d="M877.438,440.842l-.781.437-5.008-11.291,4.683-4.2h.241C876.5,426.35,875.195,436.055,877.438,440.842Z" transform="translate(-459.033 -226.641)" opacity="0.1"/><path d="M861.937,425.83s-1.615,11.291,1.291,15.818a35.305,35.305,0,0,1-14.208,1.939L843.37,425.83Z" transform="translate(-444.637 -226.662)" fill="#c7efdb"/><path d="M813.052,795.907a3.657,3.657,0,0,1-3.137,3.2c-4.384.653-14.944,2.322-17.61,3.594-3.392,1.615-16.79.491-17.438-1.129a2.563,2.563,0,0,1,.231-1.964,5.174,5.174,0,0,1,2.165-2.327,5.744,5.744,0,0,1,.982-.432c2.523-.839,7.29-2.626,8.577-4.5,0,0,5.945-5.2,7.639-8.007a3.879,3.879,0,0,1,3.1-1.934c1.414-.064,2.99.648,3.638,3.746,0,0,7.742,4.418,9.819.545,0,0,.324,5.95,1.61,7.58h0A2.16,2.16,0,0,1,813.052,795.907Z" transform="translate(-409.714 -408.181)" fill="#a27772"/><path d="M813.052,808.22a3.657,3.657,0,0,1-3.137,3.2c-4.384.653-14.944,2.322-17.61,3.594-3.392,1.615-16.79.491-17.438-1.129a2.563,2.563,0,0,1,.231-1.964,5.174,5.174,0,0,1,2.165-2.327c2.185,1.473,7.035,2.867,17.7,1.2,10.177-1.591,15.219-3.147,17.674-4.207h0a2.16,2.16,0,0,1,.412,1.63Z" transform="translate(-409.714 -420.495)" opacity="0.1"/><g transform="translate(409.001 116.431)" opacity="0.1"><path d="M942.433,268.266v-.079a14.46,14.46,0,0,0,.491-3.667,24.211,24.211,0,0,1-.491,2.946A1.787,1.787,0,0,0,942.433,268.266Z" transform="translate(-904.045 -260.975)"/><path d="M893.252,279.7a4.67,4.67,0,0,1,.4,1.846,5.567,5.567,0,0,0-.4-2.573,2.386,2.386,0,0,0-2.558-1.473c-1.384.324-1.964,2.121-3.333,2.553a2.666,2.666,0,0,1-2.946-1.512,7.47,7.47,0,0,1-.56-3.515v-4.045a6.7,6.7,0,0,0-.952-4.207c-1.129-1.438-3.77-2.062-5.538-2.008a4.7,4.7,0,0,0-3.162,1.276,4.079,4.079,0,0,1-3.329,1.183,2.877,2.877,0,0,1-2.317-2c-.132-.52-.1-1.08-.25-1.6-.378-1.267-1.733-1.929-2.641-2.892a5.287,5.287,0,0,1-1.36-3.437,5.5,5.5,0,0,0,1.36,4.139c.908.982,2.263,1.625,2.641,2.892.152.491.118,1.075.25,1.6a2.877,2.877,0,0,0,2.317,2,4.079,4.079,0,0,0,3.329-1.183,4.7,4.7,0,0,1,3.162-1.276c1.767-.054,4.418.57,5.538,2.008a6.735,6.735,0,0,1,.952,4.207v4.045a7.431,7.431,0,0,0,.56,3.51,2.673,2.673,0,0,0,2.946,1.517c1.355-.432,1.964-2.229,3.333-2.553A2.48,2.48,0,0,1,893.252,279.7Z" transform="translate(-864.285 -257.3)"/><path d="M938.773,292.8a6.2,6.2,0,0,1-1.375,2.219l-5.332,6.407c-2.244,2.7-4.615,5.818-4.418,9.259.162-3.157,2.361-6.029,4.418-8.532l5.331-6.407a6.2,6.2,0,0,0,1.375-2.219,6.126,6.126,0,0,0,.142-1.772A4.666,4.666,0,0,1,938.773,292.8Z" transform="translate(-896.535 -274.837)"/><path d="M921.816,327.214a3.777,3.777,0,0,1-.162-.864,4.353,4.353,0,0,0,.162,1.591c.363,1.168,1.694,2.136,2.818,1.635a6.9,6.9,0,0,1-.059-.707A2.282,2.282,0,0,1,921.816,327.214Z" transform="translate(-893.482 -292.451)"/></g><path d="M812.69,789.36s1.689,2.946,7.806.353" transform="translate(-429.018 -411.723)" opacity="0.1"/><path d="M918,790.82s5.273,6.21,11.92,2.037" transform="translate(-482.628 -412.467)" opacity="0.1"/><path d="M945.269,641.23s-3.726,2.327-3.844,3.657,1.924-.982,1.924-.982Z" transform="translate(-494.551 -336.315)" opacity="0.1"/><path d="M945.323,677.59a7.791,7.791,0,0,1-4.59,1.792c-2.788.123-2.553,3.756-.731,2.666A45.7,45.7,0,0,0,945.323,677.59Z" transform="translate(-493.132 -354.825)" opacity="0.1"/><path d="M950.34,682.34s-1.787,8.783-3.24,7.089" transform="translate(-497.442 -357.243)" opacity="0.1"/><path d="M244.9,517.839s11.218,3.078,16.618-1.016,7.742-2.779,7.742-2.779,12.877-.712,13.938-3.756-4.939-14.1-4.939-14.1c-.427-.982-1.051-2.229-1.33-2.229l.059-4.664h0l1.866-19.515c4.305-11.041.079-25.308.079-25.308l-.771-3.54a8.955,8.955,0,0,1,.732-5.891l7.821-15.71a23.515,23.515,0,0,1,1.473-3.014c.491-.9,1.144-2.008,1.964-3.338.241-.383.491-.781.766-1.2.948-1.473,2.1-3.142,3.486-5.066,3.461-4.8,5.282-10.8,6.225-15.219l.417,1.384h.093l.113.025h.187l.2.034h.074l2.406,30.615c.147,11.939,4.531,18.547,4.531,18.547l-.6,26.358c.825,6.348-.982,14.811-1.812,18.189l-1.895,4.276a5.14,5.14,0,0,0-2.793,3.888c-.373,3.157-3.7,9.961-3.7,9.961-1.286,1.63-4.08,6.034-4.08,6.034s-1.316,4.251-.5,5.842,7.629,1.429,7.629,1.429c7.781,1.723,13.746-2.455,13.368-5.331s1.213-3.608,1.213-3.608c3.093-.982,2.793-3.078,2.793-3.078a19.265,19.265,0,0,0-2.342-12.538l-.491,1.134a17.266,17.266,0,0,1,.933-6.691l-.285.2-.088.054h-.029c.491-4.305,5.012-12.273,5.012-12.273,8.307-14.571,5.287-34.316,5.287-34.316l-1.286-6.156-.074-2.322a77.5,77.5,0,0,1,1.252-16.544c.447-2.415.908-5.331,1.262-8.547a75.545,75.545,0,0,1,4.261-16.775l.329-.059h.039c.452-.079.908-.157,1.37-.245h.088s.265-1.434.491-3.873c.133-1.556.241-3.53.241-5.8a65.232,65.232,0,0,0-3.1-20.182l.25-.358s.594-.805,1.679-2.2h0c1.993-2.533,5.1-6.382,8.92-10.722,6.849-7.811,4.836-15.71,4.836-15.71s-4.958-18.169-7.168-29.078a33.068,33.068,0,0,0-5.44-12.936,25.746,25.746,0,0,0,.687-5.243c.147-3.23.034-6.6-1.419-9.5s-4.546-5.194-7.776-4.806a2.975,2.975,0,0,1-1.394,0,2.12,2.12,0,0,1-.918-.8c-1.89-2.607-2.013-6.112-1.424-9.274s1.8-6.186,2.337-9.357.295-6.691-1.723-9.2c-2.371-2.946-6.5-3.775-9.588-5.989-2.165-1.556-3.79-3.79-6.073-5.17s-4.418-.854-6.9-.334c-4.168.879-8.13,1.281-12.072,3.073a32.151,32.151,0,0,0-10.521,7.654,9.986,9.986,0,0,0-2.347,3.7c-.982,3.245.938,6.7.535,10.059-.285,2.381-1.689,4.453-2.8,6.578s-1.964,4.649-1.09,6.873c1.375,3.476,5.857,4.212,9.117,6.063a2.783,2.783,0,0,1,1.08.938c.805,1.4-.84,2.862-1.875,4.109a6.191,6.191,0,0,0-1.227,2.494,8.9,8.9,0,0,0-5.336,6.441c-1.1,4.944.594,11.183,2.091,15.307-1.635,9.185.491,12.808,2.057,14.2a7.879,7.879,0,0,1,2.73,5.371v.172c.1,1.669.28,3.333.516,4.993h0c-.054-.388-.108-.8-.137-.982-1.281,2.371-3.721,8.429-5.1,18.621a55.957,55.957,0,0,1-1.242,6.485,35.465,35.465,0,0,0-1.041,11.6l.245,3.3a1.041,1.041,0,0,1-.668-.221l1.723,3.157v5.327a19.638,19.638,0,0,1-1.306,7.025c-.123.324-.255.648-.4.982a5.714,5.714,0,0,0-.579,2.892c-3.707,5.68-12.2,37.512-12.2,37.512-4.61,10.437.378,17.183.378,17.183s2.415,29.058,2.867,30.561,1.453,19.215,1.453,19.215h0v1.409a3.3,3.3,0,0,0-.84-.241c-4.04-.226-5.135,6.156-5.135,6.156l-8.267,7.894s-3.775-.638-9.328,3.53S244.9,517.839,244.9,517.839ZM327.453,349.9l-.025-.088-.226.133h0l-.093.054-.044.029h0l-3.81-13.447a22.327,22.327,0,0,1-.28-11.061l2.946-12.9h0v-3.1l9.362,24.949C335.883,337.824,330.32,345.969,327.453,349.9Z" transform="translate(-137.238 -126.918)" fill="url(#d)"/><path d="M395.769,557a77.317,77.317,0,0,0-4.742,18.017c-.349,3.181-.8,6.058-1.242,8.444a77.161,77.161,0,0,0-1.208,16.333l.074,2.293,1.227,6.073s2.946,19.5-5.189,33.874c0,0-4.821,8.606-4.968,12.681l-3.265,1.262-6.6-1.851s3.186-11.424,2.15-19.431l.594-26.019s-4.286-6.51-4.433-18.292l-2.518-32.333Z" transform="translate(-201.445 -293.436)" fill="#fdc2cc"/><path d="M321.515,547.62s-.81,12.607-7.045,21.3-7.56,12.46-7.56,12.46L299.231,596.9a8.891,8.891,0,0,0-.722,5.808l.756,3.5s4.153,14.09-.074,24.993l-2,21.061H285.475s-.982-17.5-1.409-18.984-2.818-30.182-2.818-30.182-4.909-6.677-.373-16.981c0,0,10.236-38.563,12.975-37.9S321.515,547.62,321.515,547.62Z" transform="translate(-157.309 -288.661)" fill="#fdc2cc"/><g transform="translate(138.692 258.959)" opacity="0.1"><path d="M315.757,606.227l-.751-3.5a8.837,8.837,0,0,1,.717-5.832l7.678-15.538s1.33-3.78,7.56-12.46c5.984-8.346,6.971-20.3,7.04-21.223l1.193-.059s-.81,12.607-7.045,21.3-7.56,12.46-7.56,12.46L316.91,596.9a8.891,8.891,0,0,0-.722,5.808l.756,3.5s4.153,14.09-.074,24.993l-2,21.061H313.68l2-21.061C319.91,620.293,315.757,606.227,315.757,606.227Z" transform="translate(-313.68 -547.62)"/></g><path d="M389.044,654.73c.147-4.075,4.968-12.681,4.968-12.681,8.159-14.384,5.189-33.874,5.189-33.874l-1.257-6.078-.074-2.293a77.166,77.166,0,0,1,1.208-16.333c.437-2.386.889-5.263,1.237-8.444a77.306,77.306,0,0,1,4.728-17.978l1.217-.049a77.318,77.318,0,0,0-4.742,18.017c-.349,3.181-.8,6.058-1.242,8.444a77.165,77.165,0,0,0-1.208,16.333l.074,2.293,1.227,6.073s2.946,19.5-5.189,33.874c0,0-4.821,8.606-4.968,12.681l-3.265,1.262-.687-.191Z" transform="translate(-211.937 -293.436)" opacity="0.1"/><path d="M376.451,753.79a5.675,5.675,0,0,0,5.4-.668,17.428,17.428,0,0,0-.442,9.789c1.335,5.341-12.46-4.3-12.46-4.3l2.946-6.731S373.039,754.011,376.451,753.79Z" transform="translate(-203.125 -392.643)" fill="#d39999"/><path d="M377.488,754.074a5.513,5.513,0,0,0,4.384-.982,17.428,17.428,0,0,0-.442,9.789c1.335,5.341-12.46-4.3-12.46-4.3l2.946-6.731a4.209,4.209,0,0,0,3.363,1.9C376.039,753.833,376.766,753.936,377.488,754.074Z" transform="translate(-203.135 -392.628)" opacity="0.1"/><path d="M289.32,446.787h5.764v-32.7l-4.325-.776Z" transform="translate(-147.29 -210.401)" fill="#fdc2cc"/><path d="M289.32,446.787h5.764v-32.7l-4.325-.776Z" transform="translate(-147.29 -210.401)" opacity="0.05"/><path d="M362.758,760.3a5.746,5.746,0,0,1,5.263,3.039l2,1.556.982-2.3a19.147,19.147,0,0,1,2.268,12.386s.295,2.072-2.744,3.039c0,0-1.556.741-1.188,3.559s-5.484,6.971-13.123,5.263c0,0-6.677.152-7.492-1.409s.52-5.71.52-5.71,2.744-4.35,4-5.955c0,0,3.265-6.726,3.638-9.819S360.828,758.593,362.758,760.3Z" transform="translate(-192.695 -396.632)" fill="#7e5659"/><path d="M303.523,761.46l.059-4.61s-6.632,1.91-12-.25c0,0,.452,4.634-.295,5.268s2.484,6.6,2.484,6.6l3.608,3.78,6.205-2.258,1.684-5.3S303.965,761.46,303.523,761.46Z" transform="translate(-163.53 -395.046)" fill="#d39999"/><path d="M303.523,761.46l.059-4.61s-6.632,1.91-12-.25c0,0,.452,4.634-.295,5.268s2.484,6.6,2.484,6.6l3.608,3.78,6.205-2.258,1.684-5.3S303.965,761.46,303.523,761.46Z" transform="translate(-163.53 -395.046)" opacity="0.1"/><path d="M265.6,763.094s3.525.408,3.078,4.909.187,0,.187,0,3.746,1.517,5.081,3.633,3.746-1.89,3.927-3.039,1.684-1.625,1.684-1.625,5.891,10.923,4.85,13.928-13.687,3.7-13.687,3.7-2.3-1.3-7.6,2.744-16.314.982-16.314.982-8.974-3.746-3.52-7.855,9.156-3.486,9.156-3.486l8.12-7.825S261.637,762.868,265.6,763.094Z" transform="translate(-138.258 -398.349)" fill="#7e5659"/><path d="M340.125,236.175c2.244,1.36,3.839,3.569,5.965,5.106,3.024,2.185,7.084,3,9.411,5.916,1.964,2.484,2.219,5.955,1.689,9.087s-1.718,6.122-2.293,9.244-.457,6.583,1.4,9.156a2.077,2.077,0,0,0,.9.79,2.946,2.946,0,0,0,1.37,0c3.171-.383,6.215,1.885,7.639,4.747s1.537,6.191,1.389,9.382a19.39,19.39,0,0,1-1.566,7.644c-1.964,4.006-6.048,6.48-10.079,8.375a78.059,78.059,0,0,1-8.046,3.25,12.109,12.109,0,0,1-5.832.879c-3.353-.579-5.729-3.628-8.91-4.821-2.607-.982-5.5-.628-8.272-.383-2.366.206-5.071.2-6.7-1.527-2.091-2.219-1.149-5.8-.079-8.655a6.161,6.161,0,0,1-4.359-10.074c1.011-1.232,2.626-2.671,1.836-4.06a2.691,2.691,0,0,0-1.06-.923c-3.2-1.826-7.6-2.558-8.945-5.984-.864-2.2-.029-4.7,1.065-6.794s2.455-4.148,2.754-6.5c.393-3.319-1.473-6.731-.525-9.932a9.956,9.956,0,0,1,2.3-3.662,31.6,31.6,0,0,1,10.31-7.555c3.873-1.772,7.757-2.17,11.851-3.034C335.79,235.331,337.823,234.781,340.125,236.175Z" transform="translate(-170.682 -129.665)" fill="#865a61"/><path d="M320.269,337.754s-9.392-.491-11.169,7.516,3.854,19.475,3.854,19.475Z" transform="translate(-172.481 -181.822)" fill="#fdc2cc"/><path d="M320.269,337.754s-9.392-.491-11.169,7.516,3.854,19.475,3.854,19.475Z" transform="translate(-172.481 -181.822)" opacity="0.05"/><path d="M320,341.454l3.559,2.818,16.608.741,10.368-7.119,10.545-18.1a13.037,13.037,0,0,1-10.025-10.26,22.464,22.464,0,0,1-.206-8.572s-16.908-8.753-14.831,4.909a18.556,18.556,0,0,1,.157,5.076c-.982,8-8.748,6.5-8.748,6.5l-2.98,4.6-3.412,11.291Z" transform="translate(-178.206 -161.692)" fill="#fdc2cc"/><path d="M352.477,305.853a18.56,18.56,0,0,1,.157,5.076,14.988,14.988,0,0,0,14.88-1.394,22.464,22.464,0,0,1-.206-8.572S350.4,292.21,352.477,305.853Z" transform="translate(-194.649 -161.689)" opacity="0.1"/><circle cx="14.978" cy="14.978" r="14.978" transform="translate(149.237 120.045)" fill="#fdc2cc"/><path d="M328.012,358.264c.363,0,.722.054,1.08.088,1.964.2,10.167.638,14.841-4.944,5.228-6.245,12.19-13.957,12.475-14.271l7.084,2.14s-5.606-1.993-9.328,8.434a10.8,10.8,0,0,0,3.648,12.425,11.223,11.223,0,0,0,4.634,1.964.024.024,0,0,1,0,.025V368.7h0l-2.9,12.764a22.126,22.126,0,0,0,.275,10.923l4.418,15.617c-.668.461-28.081,19.107-46.393,6.23h0c.069-.56,2.332-18.886.761-27.855a61.943,61.943,0,0,1-.82-6.932v-.172a7.815,7.815,0,0,0-2.685-5.3c-1.65-1.473-3.883-5.4-1.674-15.779a38.128,38.128,0,0,1,2.455-7.477l6.142-13.879h0l5.66.113v.039c-.491.609-7.055,8.807-7.767,14.09C319.224,356.1,318.365,357.646,328.012,358.264Z" transform="translate(-174.391 -181.36)" fill="#c7efdb"/><path d="M397.572,348.083s5.538,4.747,7.713,15.523,7.02,28.675,7.02,28.675,1.964,7.811-4.747,15.523-11.174,13.746-11.174,13.746l-4.418,6.51a5.542,5.542,0,0,1-3.181,2.248,10.746,10.746,0,0,1-7.786-.555,4.536,4.536,0,0,1-1.964-5.729l.982-2.273s-9.1,5.734-9.887,2.568,10.58-6.328,10.58-6.328,9.392-1.581,11.291-6.029c0,0,10.084-12.956,9.293-17.4l-9.74-26.1s-12.18-1.61-8.027-15.293S397.572,348.083,397.572,348.083Z" transform="translate(-203.705 -185.725)" fill="#fdc2cc"/><path d="M307.353,513.311s22.249,4.448,27.492,3.854l.565,1.88s8.444,1.89,27.536-1.139q1.87-.294,3.883-.663l.447-.078s.26-1.414.466-3.824a66.322,66.322,0,0,0-3.235-26.923L361.3,476.53s-19.843,11.9-32.981,10.8c-1.173-.1-2.337-.191-3.51-.231-2.7-.1-6.873,0-9.588-2.175l-5.695.982v16.2a19.412,19.412,0,0,1-1.286,6.932c-.123.324-.25.643-.393.982A5.155,5.155,0,0,0,307.353,513.311Z" transform="translate(-171.725 -252.472)" fill="#65617d"/><path d="M364.58,552.173v5.042s9.72,2.175,31.866-1.88c0,0,.26-1.414.466-3.824C390.118,552.6,371.379,555.221,364.58,552.173Z" transform="translate(-200.9 -290.641)" opacity="0.1"/><path d="M307.356,547.042s22.249,4.448,27.492,3.854l.565,1.88v-5.042c-2.533,1.051-20.619-3.309-27.173-4.944-.123.324-.25.643-.393.982a5.155,5.155,0,0,0-.491,3.27Z" transform="translate(-171.728 -286.202)" opacity="0.1"/><path d="M417.31,536.722l1.65,10.231q1.87-.294,3.883-.663c-.515-2.99-1.64-9.819-1.33-10.953l-2.077-1.777Z" transform="translate(-227.743 -281.504)" fill="#65617d"/><path d="M417.78,536.272l1.65,10.236q1.87-.3,3.883-.663c-.515-2.99-1.64-9.819-1.33-10.953l-2.077-1.782Z" transform="translate(-227.982 -281.275)" opacity="0.1"/><g transform="translate(142.536 224.044)" opacity="0.05"><path d="M334.372,496.026c-1.168-.1-2.337-.191-3.51-.231-2.622-.1-6.623,0-9.352-2.008l.952-.167c2.73,2.165,6.873,2.072,9.588,2.175,1.173.039,2.337.133,3.51.231.383.034.776.054,1.173.064A22.028,22.028,0,0,1,334.372,496.026Z" transform="translate(-321.51 -485.215)"/><path d="M398.717,517.891q1.87-.295,3.883-.658l.452-.083s.26-1.414.461-3.824a66.148,66.148,0,0,0-3.235-26.923l-3.024-9.328c.643-.363.982-.574.982-.574l3.211,9.887a66.322,66.322,0,0,1,3.235,26.923c-.206,2.41-.466,3.824-.466,3.824l-.447.083q-2.008.363-3.883.658a122.3,122.3,0,0,1-20.005,1.718A126.175,126.175,0,0,0,398.717,517.891Z" transform="translate(-351.224 -476.5)"/><path d="M360.338,559.3v.054H359.7Q360.063,559.329,360.338,559.3Z" transform="translate(-340.951 -518.651)"/></g><ellipse cx="0.839" cy="1.728" rx="0.839" ry="1.728" transform="translate(191.491 253.671)" fill="#d39999"/><path d="M311.376,450.025c1.355-10.064,3.746-16.044,5.008-18.385.049.319.177,1.355.236,1.674a48.614,48.614,0,0,1,.108,5.2l-1.257,22.76,1.684,7.119c1.581,5.636-4.276,1.183-4.276,1.183a3.486,3.486,0,0,1-3.437,2.376l-.3-4.085a35.278,35.278,0,0,1,1.021-11.453,54.574,54.574,0,0,0,1.217-6.387Z" transform="translate(-172.626 -229.619)" fill="#fdc2cc"/><path d="M311.376,450.025c1.355-10.064,3.746-16.044,5.008-18.385.049.319.177,1.355.236,1.674a48.614,48.614,0,0,1,.108,5.2l-1.257,22.76,1.684,7.119c1.581,5.636-4.276,1.183-4.276,1.183a3.486,3.486,0,0,1-3.437,2.376l-.3-4.085a35.278,35.278,0,0,1,1.021-11.453,54.574,54.574,0,0,0,1.217-6.387Z" transform="translate(-172.626 -229.619)" opacity="0.05"/><path d="M399.6,483.644c-1.065,1.38-1.65,2.17-1.65,2.17l-4.418,6.5a5.518,5.518,0,0,1-3.181,2.248,10.72,10.72,0,0,1-7.786-.555,4.526,4.526,0,0,1-1.964-5.724l.982-2.278s-9.1,5.734-9.887,2.573,10.58-6.328,10.58-6.328,9.392-1.581,11.291-6.034c0,0,.82-1.051,1.964-2.661" transform="translate(-204.504 -250.96)" fill="#fdc2cc"/><path d="M401,508.847s-10.756-1.046-14.163-7.2l-1.561,5.081s11.291,7.8,13.869,6.785Z" transform="translate(-211.438 -265.259)" fill="#65617d"/><path d="M400.23,508.742s-10.751-1.046-14.163-7.2l-1.556,5.066s11.291,7.8,13.864,6.785Z" transform="translate(-211.046 -265.203)" opacity="0.1"/><path d="M312.907,510.46s-3.765,1.335-4.507.594l1.694,3.117,3.2-2.455Z" transform="translate(-172.301 -269.744)" fill="#65617d"/><path d="M312.907,510.46s-3.765,1.335-4.507.594l1.694,3.117,3.2-2.455Z" transform="translate(-172.301 -269.744)" opacity="0.1"/><path d="M331.816,525.975v-6.5l-1.546,6.662Z" transform="translate(-168.136 -264.444)" opacity="0.1"/><path d="M360.416,264.453a5.777,5.777,0,0,1-4.035,2.126,31.793,31.793,0,0,1-4.688,0,11.759,11.759,0,0,0-7.074,1.782,17.988,17.988,0,0,0-3.245,3.437c-3.034,3.707-7.246,7.177-12.028,6.79a3.117,3.117,0,0,1-2.234-.943,3.584,3.584,0,0,1-.569-2.032,46.463,46.463,0,0,1,.29-9.161,19.314,19.314,0,0,1,1.384-5.464,18.656,18.656,0,0,1,3.329-4.752,20.359,20.359,0,0,1,5.808-4.654,10.418,10.418,0,0,1,7.266-.938c2.862.781,5.091,3.019,7.821,4.173C355.555,256.127,363.833,259.627,360.416,264.453Z" transform="translate(-181.482 -137.339)" opacity="0.1"/><path d="M360.416,263.238a5.777,5.777,0,0,1-4.035,2.126,31.8,31.8,0,0,1-4.688,0,11.72,11.72,0,0,0-7.074,1.777,17.985,17.985,0,0,0-3.245,3.437c-3.034,3.707-7.246,7.177-12.028,6.79a3.1,3.1,0,0,1-2.234-.943,3.569,3.569,0,0,1-.57-2.032,46.464,46.464,0,0,1,.29-9.161,19.315,19.315,0,0,1,1.384-5.464,18.528,18.528,0,0,1,3.328-4.747,20.29,20.29,0,0,1,5.808-4.659,10.418,10.418,0,0,1,7.266-.938c2.862.781,5.091,3.019,7.821,4.173C355.555,254.912,363.832,258.4,360.416,263.238Z" transform="translate(-181.482 -136.718)" fill="#865a61"/><path d="M291.842,473.47l-.039,1.792-.4-1.713Z" transform="translate(-148.349 -241.026)" fill="#fdc2cc"/><path d="M291.842,473.47l-.039,1.792-.4-1.713Z" transform="translate(-148.349 -241.026)" opacity="0.05"/><g transform="translate(178.704 160.11)" opacity="0.05"><path d="M397.833,352.662c-4.158,13.682,7.963,15.288,7.963,15.288l9.74,26.1c.79,4.448-9.3,17.4-9.3,17.4-.7,1.659-2.455,2.921-4.369,3.854a6.843,6.843,0,0,0,2.592-2.847s10.084-12.951,9.293-17.4l-9.74-26.108s-12.116-1.605-7.963-15.288c1.389-4.571,3.437-6.652,5.508-7.4C400.131,347.419,398.82,349.407,397.833,352.662Z" transform="translate(-395.184 -346.27)"/></g><g transform="translate(138.15 155.475)" opacity="0.1"><path d="M401,384.61a10.231,10.231,0,0,0,1.964,1.861,11.159,11.159,0,0,0,4.634,1.964v.515a11.124,11.124,0,0,1-4.2-1.861A10.186,10.186,0,0,1,401,384.61Z" transform="translate(-357.591 -361.153)"/><path d="M322.463,420.016v.172a63.413,63.413,0,0,0,.844,6.957c1.473,8.464-.457,25.268-.731,27.59-.157-.1-.314-.2-.491-.314.074-.56,2.337-18.886.766-27.851a62.211,62.211,0,0,1-.82-6.932v-.172a7.575,7.575,0,0,0-1.321-3.756,7.634,7.634,0,0,1,1.753,4.305Z" transform="translate(-316.717 -376.985)"/><path d="M327.361,337.5l-4.8-.093a.024.024,0,0,0-.025,0L316.4,351.283a38.254,38.254,0,0,0-2.455,7.477c-1.787,8.395-.663,12.578.7,14.645-1.537-1.812-3.122-5.94-1.144-15.219a37.844,37.844,0,0,1,2.43-7.482l6.181-13.874h0l5.66.113v.034C327.729,337.036,327.577,337.223,327.361,337.5Z" transform="translate(-312.577 -336.83)"/><path d="M416.39,345.87l.083.025Z" transform="translate(-365.425 -341.432)"/><path d="M369.86,343.592l-4.811-1.448h-.025c-.285.314-7.241,8.027-12.47,14.271-4.674,5.582-12.867,5.145-14.841,4.949-.358-.039-.722-.069-1.08-.093-5.366-.344-7.477-.982-8.184-2.337,1.006.982,3.221,1.473,7.737,1.748.363,0,.722.054,1.08.088,1.964.2,10.167.633,14.841-4.944,5.228-6.25,12.19-13.962,12.475-14.276h0l7,2.121A4.374,4.374,0,0,0,369.86,343.592Z" transform="translate(-320.658 -339.233)"/></g><path d="M288.386,776.536s-6.775,1.851-8.086-1.056" transform="translate(-157.996 -404.657)" opacity="0.1"/><path d="M374.351,773.65s-7.855,2.028-9.671-1.11" transform="translate(-200.951 -403.161)" opacity="0.1"/><ellipse cx="13.221" cy="2.234" rx="13.221" ry="2.234" transform="translate(81.326 349.305)" fill="#c7efdb" opacity="0.1"/><ellipse cx="13.221" cy="2.234" rx="13.221" ry="2.234" transform="translate(29.243 380.985)" fill="#c7efdb" opacity="0.1"/><ellipse cx="19.74" cy="3.338" rx="19.74" ry="3.338" transform="translate(8.958 351.539)" fill="#c7efdb"/><path d="M70.982,722.447a5.71,5.71,0,0,1-1.885-2.838,2.53,2.53,0,0,1,1.316-2.892c1.208-.461,2.5.373,3.476,1.218s2.1,1.812,3.383,1.635a5.15,5.15,0,0,1-1.591-4.821,1.963,1.963,0,0,1,.442-.982c.668-.717,1.885-.407,2.69.157,2.548,1.8,3.265,5.263,3.275,8.385a15.464,15.464,0,0,0,.049-3.437,3.535,3.535,0,0,1,1.3-3.054,3.927,3.927,0,0,1,1.964-.491,4.107,4.107,0,0,1,3.211.913,3.158,3.158,0,0,1-.128,3.927,12.837,12.837,0,0,1-3.319,2.661,7.324,7.324,0,0,0-2.376,2.263,2.316,2.316,0,0,0-.177.4H75.435a19.855,19.855,0,0,1-4.453-3.049Z" transform="translate(-50.448 -373.029)" fill="#c7efdb"/><ellipse cx="13.221" cy="2.234" rx="13.221" ry="2.234" transform="translate(492.349 367.99)" fill="#c7efdb" opacity="0.1"/><path d="M1042.91,748.885s7.541-.231,9.819-1.851,11.6-3.549,12.16-.952,11.335,12.907,2.818,12.975-19.78-1.326-22.048-2.71S1042.91,748.885,1042.91,748.885Z" transform="translate(-546.216 -389.045)" fill="#a8a8a8"/><path d="M1067.854,762.379c-8.513.069-19.78-1.326-22.048-2.71-1.728-1.051-2.415-4.826-2.646-6.569h-.25s.491,6.083,2.744,7.462,13.535,2.779,22.048,2.71c2.455,0,3.309-.893,3.26-2.19C1070.623,761.888,1069.685,762.379,1067.854,762.379Z" transform="translate(-546.216 -393.264)" opacity="0.2"/><path d="M1042.91,748.885s7.541-.231,9.819-1.851,11.6-3.549,12.16-.952,11.335,12.907,2.818,12.975-19.78-1.326-22.048-2.71S1042.91,748.885,1042.91,748.885Z" transform="translate(-865.216 -314.045)" fill="#a8a8a8"/><path d="M1042.91,748.885s7.541-.231,9.819-1.851,11.6-3.549,12.16-.952,11.335,12.907,2.818,12.975-19.78-1.326-22.048-2.71S1042.91,748.885,1042.91,748.885Z" transform="translate(-574.216 -185.045)" fill="#a8a8a8"/></g></svg>