<svg xmlns="http://www.w3.org/2000/svg" width="711.819" height="587.44" viewBox="0 0 711.819 587.44"><g transform="translate(-36.277 -47.521)"><circle cx="25.332" cy="25.332" r="25.332" transform="translate(36.277 154.473)" fill="#ff6584"/><circle cx="25.332" cy="25.332" r="25.332" transform="translate(382.962 52.347)" fill="#e6e6e6"/><path d="M432.377,530.232h-58.86a11.266,11.266,0,0,1-11.253-11.253V480.893a11.266,11.266,0,0,1,11.253-11.253h58.86a11.266,11.266,0,0,1,11.253,11.253v38.086A11.266,11.266,0,0,1,432.377,530.232Z" transform="translate(-11.529 104.729)" fill="#3f3d56"/><path d="M625.083,204.718c0,.971-.028,1.928-.113,2.871a39.4,39.4,0,1,1-74.138-21.265,36.2,36.2,0,0,1,2.9-4.658,39.39,39.39,0,0,1,71.211,19.843C625.041,202.565,625.083,203.634,625.083,204.718Z" transform="translate(123.012 -117.789)" fill="#3f3d56"/></g></svg>